M48
;GenerationSoftware,Autodesk,EAGLE,9.5.2*%
;CreationDate,2021-05-04T02:23:46Z*%
FMAT,2
ICI,OFF
METRIC,TZ,000.000
T10C0.350
T9C0.400
T8C0.500
T7C0.550
T6C0.610
T5C1.000
T4C1.100
T3C1.200
T2C1.700
T1C1.900
%
G90
M71
T1
X32206Y16226
X78129Y16226
T2
X52248Y9302
X64364Y9302
T3
X85907Y22131
X73977Y23901
X72475Y22272
X70973Y23901
X67969Y23901
X66467Y22272
X64965Y23901
X63463Y22272
X61961Y23901
X60459Y22272
X58957Y23901
X57455Y22272
X55953Y23901
X69471Y22272
X54451Y22272
X52949Y23901
X51447Y22272
X49945Y23901
X48443Y22272
X46941Y23901
X45439Y22272
X43937Y23901
X42435Y22272
X40933Y23901
X39431Y22272
X37929Y23901
X36427Y22272
X34925Y23901
X33412Y21042
X81889Y22131
X75479Y22272
X83898Y22131
X87916Y22131
X80047Y23249
X78483Y22272
X76981Y23901
T4
X100203Y2902
X100203Y4902
X98203Y2902
X98203Y4902
X102203Y2902
X102203Y4902
T5
X7874Y3632
X108496Y3683
X93548Y39332
X14580Y90907
T6
X43332Y72415
X43332Y67335
T7
X72758Y3454
X1829Y3429
X37135Y93078
X42939Y3353
X1841Y93078
X111176Y3454
T8
X32029Y88722
X29667Y88722
X28473Y88722
X24790Y88722
X22403Y88722
X27254Y88722
X35585Y88722
X36779Y88722
X33198Y88722
X25984Y88722
X37973Y88722
X39167Y88722
X30861Y88722
X23597Y88722
X21209Y88722
X20015Y88722
X34392Y88722
T9
X84226Y46774
X84214Y45390
X36461Y46804
X36462Y48082
X84112Y55918
X58572Y57404
T10
X61811Y57404
X63030Y39776
X60973Y38900
X81051Y31598
X84988Y28931
X94983Y23393
X97079Y23241
X97079Y16002
X107150Y15811
X107124Y23228
X105575Y23851
X104064Y23889
X102375Y23914
X85001Y54064
X29032Y9830
X26797Y13792
X34531Y49225
X2159Y32766
X35979Y54940
X29705Y72034
X20015Y77445
X33236Y66358
X31178Y70726
X36068Y74994
X51168Y84760
X38862Y40272
X24295Y81750
X26937Y81686
X29680Y81686
X32347Y81750
X62979Y65862
X52159Y76606
X110452Y42062
X86576Y65380
X2896Y22835
X1994Y69507
X22377Y70815
X66345Y51333
X83998Y51410
X63424Y42012
X15049Y18199
X15062Y17285
X15075Y16358
X26162Y17996
X27165Y17996
X28169Y17983
X29096Y17983
X19152Y18098
X19152Y17183
X19152Y16269
X23156Y78232
X22324Y82577
X23770Y79621
X22852Y83334
X24806Y78774
X25146Y77749
X26162Y77775
X25727Y84452
X26362Y78765
X27470Y84417
X27458Y79693
X27813Y77800
X28778Y77800
X30194Y83793
X29029Y78994
X31163Y84455
X30205Y79729
X30328Y77749
X31369Y77800
X34269Y84425
X31621Y78689
X35352Y84384
X32856Y79629
X33663Y83718
X76124Y50405
X17183Y74308
X17107Y70193
X30467Y74346
X34404Y77330
X37706Y71692
X37098Y61598
X22619Y57074
X13475Y55410
X14313Y55410
X34595Y69748
X24765Y15164
X29032Y12344
X29032Y16281
X28473Y7722
X37821Y82664
X6261Y53657
X4902Y45275
X2769Y31940
X3086Y30353
X42126Y80734
X24041Y83845
X26632Y83922
X29235Y83820
X32702Y83807
X17755Y84976
X23114Y77318
X35103Y68326
X32156Y73698
X34373Y59188
X38341Y76048
X19761Y62001
X27854Y58814
X42380Y83439
X4305Y85192
X4305Y81725
X7353Y81674
X10643Y81686
X10681Y85115
X10681Y88748
X7214Y88798
X4305Y88748
X2604Y20282
X35598Y52133
X22644Y66980
X82601Y28880
X62433Y37541
X63246Y37541
X93853Y21107
X93853Y20244
X100940Y30505
X43536Y31610
X59245Y36474
X14275Y34671
X16205Y31166
X14808Y30277
X14961Y28702
X18466Y41707
X20117Y41707
X14173Y39776
X34366Y27838
X35408Y27838
X38862Y39040
X36208Y43205
X36347Y53823
X40411Y33503
X9576Y31915
X9576Y30975
X6680Y35141
X7645Y28562
X1778Y41427
X34874Y72923
X7620Y41453
X6742Y40833
X5847Y38603
X5982Y34087
X4572Y34328
X29362Y4242
X36691Y38774
X33934Y70968
X99250Y6642
X99212Y11214
X102057Y7988
X55905Y42697
X38900Y78511
X69164Y38303
X102311Y31039
X29515Y58039
X83312Y29515
X103861Y31140
X28908Y57353
X57384Y43317
X81890Y29515
X86843Y30150
X105435Y30683
X27309Y54356
X56667Y41732
X83236Y33833
X96164Y28524
X77191Y45339
X61606Y44169
X57464Y51718
X74473Y51764
X73304Y52408
X56420Y51552
X70587Y53394
X56372Y52466
X71499Y53889
X56324Y53375
X72408Y54217
X55438Y52589
X73086Y54823
X55105Y53439
X73665Y55529
X54427Y52807
X74295Y56185
X33122Y77826
X53797Y53492
X73609Y56794
X53518Y56744
X73228Y51015
X53693Y52169
X52849Y52581
X77033Y50477
X52474Y51714
X51629Y52197
X75420Y49798
X76098Y49191
X51133Y51283
X51164Y50368
X76856Y48477
X76070Y47978
X50255Y50394
X50185Y49479
X75395Y47368
X76073Y46761
X49276Y49505
X33960Y71971
X33515Y73711
X33731Y62751
X20384Y57709
X19736Y58903
X4597Y39129
X10554Y10173
X7099Y21615
X2883Y25108
X8471Y34544
X11989Y14935
X17158Y8534
X6604Y23165
X11341Y44272
X17501Y47142
X9169Y55042
X14326Y43739
X24409Y11100
M30