G04 EAGLE Gerber RS-274X export*
G75*
%MOMM*%
%FSLAX34Y34*%
%LPD*%
%INCopper Layer 15*%
%IPPOS*%
%AMOC8*
5,1,8,0,0,1.08239X$1,22.5*%
G01*
%ADD10C,1.800000*%
%ADD11C,2.550000*%
%ADD12C,1.650000*%
%ADD13C,1.117600*%
%ADD14C,0.756400*%
%ADD15C,0.203200*%
%ADD16C,0.956400*%
%ADD17C,0.806400*%
%ADD18C,0.152400*%
%ADD19C,0.906400*%


D10*
X800473Y232485D03*
X784830Y222724D03*
X769810Y239014D03*
X754790Y222724D03*
X739770Y239014D03*
X724750Y222724D03*
X709730Y239014D03*
X694710Y222724D03*
X679690Y239014D03*
X664670Y222724D03*
X649650Y239014D03*
X634630Y222724D03*
X619610Y239014D03*
X604590Y222724D03*
X589570Y239014D03*
X574550Y222724D03*
X559530Y239014D03*
X544510Y222724D03*
X529490Y239014D03*
X514470Y222724D03*
X499450Y239014D03*
X484430Y222724D03*
X469410Y239014D03*
X454390Y222724D03*
X439370Y239014D03*
X424350Y222724D03*
X409330Y239014D03*
X394310Y222724D03*
X379290Y239014D03*
X364270Y222724D03*
X349250Y239014D03*
X334120Y210424D03*
X818890Y221314D03*
X838980Y221314D03*
X859070Y221314D03*
X879160Y221314D03*
D11*
X643640Y93024D03*
X522480Y93024D03*
D12*
X982030Y49022D03*
X982030Y29022D03*
X1002030Y49022D03*
X1002030Y29022D03*
X1022030Y49022D03*
X1022030Y29022D03*
D13*
X433324Y724154D03*
X433324Y673354D03*
D14*
X366910Y387738D03*
X559054Y426974D03*
X295148Y580390D03*
X833120Y295148D03*
D15*
X564388Y432054D02*
X564388Y433832D01*
X578866Y439928D02*
X594050Y424744D01*
X833120Y295148D02*
X840994Y303022D01*
X570484Y439928D02*
X564388Y433832D01*
X570484Y439928D02*
X578866Y439928D01*
X594050Y424744D02*
X629722Y424744D01*
X644652Y419100D02*
X758444Y419100D01*
X832104Y345440D01*
X834898Y345440D01*
X840994Y339344D01*
X840994Y303022D01*
D14*
X1038606Y311404D03*
D15*
X1021334Y328676D01*
X851662Y328676D02*
X840994Y339344D01*
X851662Y328676D02*
X1021334Y328676D01*
X631444Y426466D02*
X629722Y424744D01*
X637286Y426466D02*
X644652Y419100D01*
X637286Y426466D02*
X631444Y426466D01*
X564388Y432054D02*
X559488Y427154D01*
X559487Y427154D02*
X559452Y427121D01*
X559414Y427091D01*
X559374Y427064D01*
X559332Y427041D01*
X559289Y427021D01*
X559243Y427004D01*
X559197Y426991D01*
X559150Y426982D01*
X559102Y426976D01*
X559054Y426974D01*
D14*
X289080Y573532D03*
X573836Y433174D03*
X818896Y295148D03*
X868426Y301498D03*
D15*
X988822Y301498D01*
X1002030Y314706D02*
X1011428Y314706D01*
X1016000Y310134D01*
X1016000Y307340D01*
X1019556Y303784D01*
X1054354Y303784D01*
X1054354Y306832D01*
D14*
X1054354Y306832D03*
D15*
X1002030Y314706D02*
X988822Y301498D01*
D14*
X273088Y543560D03*
X566674Y417322D03*
X832358Y338328D03*
X961644Y285242D03*
X771906Y453390D03*
X616065Y441694D03*
X574642Y517177D03*
X744728Y517638D03*
X733044Y524082D03*
X564198Y515521D03*
X705866Y533936D03*
X563718Y524664D03*
X714987Y538892D03*
X563238Y533752D03*
X724075Y542166D03*
X554376Y525886D03*
X730860Y548234D03*
X551046Y534392D03*
X736651Y555295D03*
X544266Y528066D03*
X742950Y561848D03*
X537972Y534924D03*
X736092Y567944D03*
X535178Y567436D03*
X732282Y510146D03*
X536929Y521689D03*
X528492Y525808D03*
X770326Y504774D03*
X761238Y504050D03*
X524738Y517144D03*
X516288Y521970D03*
X754200Y497982D03*
X760984Y491914D03*
X511332Y512826D03*
X511642Y503682D03*
X768558Y484774D03*
X760702Y479778D03*
X502554Y503936D03*
X501848Y494791D03*
X753946Y473682D03*
X760730Y467614D03*
X492760Y495046D03*
X339598Y719709D03*
X335153Y737108D03*
X337312Y627507D03*
X203835Y577088D03*
X197358Y589026D03*
X45974Y391287D03*
X105537Y101727D03*
X70993Y216154D03*
X28829Y251079D03*
X84709Y345440D03*
X119888Y149352D03*
X171577Y85344D03*
X66040Y231648D03*
X113411Y442722D03*
X175006Y471424D03*
X91694Y550418D03*
X143256Y437388D03*
X618109Y574040D03*
X630301Y397764D03*
X609727Y389001D03*
X810514Y315976D03*
X849884Y289306D03*
X949833Y233934D03*
X970788Y232410D03*
X970788Y160020D03*
X1071499Y158115D03*
X1071245Y232283D03*
X1055751Y238506D03*
X1040638Y238887D03*
X1023747Y239141D03*
X850011Y540639D03*
X290322Y98298D03*
X267970Y137922D03*
X345313Y492252D03*
X21590Y327660D03*
X359791Y549402D03*
X297053Y720344D03*
X200152Y774446D03*
X332359Y663575D03*
X311785Y707263D03*
X360680Y749935D03*
X511683Y847598D03*
X388620Y402717D03*
D16*
X1111758Y34544D03*
X18288Y34290D03*
X18415Y930783D03*
X371348Y930783D03*
X429387Y33528D03*
X727583Y34544D03*
D14*
X242951Y817499D03*
X269367Y816864D03*
X296799Y816864D03*
X323469Y817499D03*
X629793Y658622D03*
X521589Y766064D03*
X1104519Y420624D03*
X865759Y653796D03*
X28956Y228346D03*
X19939Y695071D03*
X223774Y708152D03*
D17*
X841121Y559181D03*
X842264Y467741D03*
X842137Y453898D03*
X364614Y468043D03*
X364617Y480822D03*
X585724Y574040D03*
D14*
X663448Y513334D03*
X839978Y514096D03*
X634238Y420116D03*
X150495Y181991D03*
X150622Y172847D03*
X150749Y163576D03*
X261620Y179959D03*
X271653Y179959D03*
X281686Y179832D03*
X290957Y179832D03*
X191516Y180975D03*
X191516Y171831D03*
X191516Y162687D03*
X231559Y782320D03*
X223238Y825766D03*
X237697Y796210D03*
X228518Y833338D03*
X248059Y787745D03*
X251460Y777494D03*
X261620Y777748D03*
X257271Y844519D03*
X263624Y787654D03*
X274701Y844169D03*
X274585Y796925D03*
X278130Y778002D03*
X287782Y778002D03*
X301938Y837932D03*
X290294Y789940D03*
X311630Y844550D03*
X302048Y797294D03*
X303276Y777494D03*
X313690Y778002D03*
X342694Y844248D03*
X316215Y786892D03*
X353517Y843839D03*
X328560Y796290D03*
X336626Y837184D03*
X331216Y778256D03*
X171831Y743077D03*
X171069Y701929D03*
X304673Y743458D03*
X344043Y773303D03*
X377063Y716915D03*
X370981Y615979D03*
X226187Y570738D03*
X134747Y554101D03*
X143129Y554101D03*
X345948Y697484D03*
X247650Y151638D03*
X290322Y123444D03*
X290322Y162814D03*
X284734Y77216D03*
X378206Y826643D03*
X62611Y536575D03*
X49022Y452755D03*
X27686Y319405D03*
X30861Y303530D03*
X421259Y807339D03*
X240411Y838454D03*
X266319Y839216D03*
X292354Y838200D03*
X327025Y838073D03*
X177546Y849757D03*
X231140Y773176D03*
X351028Y683260D03*
X321564Y736981D03*
X343726Y591884D03*
X383413Y760476D03*
X197612Y620014D03*
X278544Y588137D03*
X423799Y834390D03*
X43053Y851916D03*
X43053Y817245D03*
X73533Y816737D03*
X106426Y816864D03*
X106807Y851154D03*
X106807Y887476D03*
X72136Y887984D03*
X43053Y887476D03*
X26035Y202819D03*
X355981Y521335D03*
D18*
X307086Y570230D01*
X234188Y669798D02*
X226441Y669798D01*
D14*
X226441Y669798D03*
D18*
X307086Y596900D02*
X307086Y570230D01*
X307086Y596900D02*
X234188Y669798D01*
D14*
X826008Y288798D03*
X624332Y375412D03*
X632460Y375412D03*
X938530Y211074D03*
X938530Y202438D03*
X1009396Y305054D03*
X435356Y316103D03*
X592455Y364744D03*
X142748Y346710D03*
X162052Y311658D03*
X148082Y302768D03*
X149606Y287020D03*
X184658Y417068D03*
X201168Y417068D03*
X141732Y397764D03*
X343662Y278384D03*
X354076Y278384D03*
X388620Y390398D03*
X362077Y432054D03*
X363474Y538226D03*
X404114Y335026D03*
X95758Y319151D03*
X95758Y309753D03*
X66802Y351409D03*
X76454Y285623D03*
X17780Y414274D03*
D15*
X17780Y505226D01*
X17787Y505830D01*
X17809Y506435D01*
X17845Y507038D01*
X17895Y507640D01*
X17960Y508241D01*
X18039Y508841D01*
X18132Y509438D01*
X18239Y510033D01*
X18360Y510625D01*
X18496Y511214D01*
X18645Y511800D01*
X18809Y512382D01*
X18986Y512960D01*
X19177Y513534D01*
X19381Y514102D01*
X19599Y514666D01*
X19831Y515225D01*
X20075Y515778D01*
X20333Y516324D01*
X20604Y516865D01*
X20887Y517399D01*
X21183Y517926D01*
X21491Y518446D01*
X21812Y518958D01*
X22145Y519463D01*
X22490Y519959D01*
X22846Y520448D01*
X23214Y520927D01*
X23594Y521398D01*
X23984Y521859D01*
X24385Y522312D01*
X24797Y522754D01*
X25219Y523187D01*
X222557Y720525D02*
X223064Y721019D01*
X223582Y721501D01*
X224111Y721971D01*
X224651Y722428D01*
X225202Y722872D01*
X225764Y723303D01*
X226335Y723720D01*
X226917Y724124D01*
X227507Y724514D01*
X228107Y724889D01*
X228716Y725250D01*
X229333Y725597D01*
X229958Y725928D01*
X230591Y726245D01*
X231231Y726547D01*
X231878Y726833D01*
X232532Y727104D01*
X233192Y727359D01*
X233858Y727599D01*
X234530Y727822D01*
X235206Y728029D01*
X235888Y728221D01*
X236573Y728396D01*
X237263Y728554D01*
X237956Y728697D01*
X238653Y728822D01*
X239352Y728931D01*
X240054Y729024D01*
X240757Y729099D01*
X241463Y729158D01*
X242169Y729200D01*
X242876Y729226D01*
X243584Y729234D01*
X348742Y729234D01*
D14*
X348742Y729234D03*
D15*
X222558Y720525D02*
X25220Y523187D01*
D14*
X76200Y414528D03*
X67417Y408325D03*
X58474Y386026D03*
X59817Y340868D03*
X45720Y343281D03*
X293624Y42418D03*
X244094Y110998D03*
X339344Y709676D03*
X992505Y66421D03*
X992124Y112141D03*
X1020572Y79883D03*
D19*
X200152Y887222D03*
D14*
X389001Y785114D03*
X691642Y383032D03*
X1023112Y310388D03*
D19*
X212090Y887222D03*
X235966Y887222D03*
X308610Y887222D03*
X391668Y887222D03*
X379730Y887222D03*
X367792Y887222D03*
X355854Y887222D03*
X343916Y887222D03*
X331978Y887222D03*
X320294Y887222D03*
X296672Y887222D03*
X284734Y887222D03*
X247904Y887222D03*
X224028Y887222D03*
X272542Y887222D03*
X259842Y887222D03*
M02*
