G04 EAGLE Gerber RS-274X export*
G75*
%MOMM*%
%FSLAX34Y34*%
%LPD*%
%INSilkscreen Bottom*%
%IPPOS*%
%AMOC8*
5,1,8,0,0,1.08239X$1,22.5*%
G01*
%ADD10C,0.000000*%
%ADD11C,0.025400*%
%ADD12C,0.127000*%
%ADD13C,0.177800*%
%ADD14C,0.101600*%
%ADD15R,1.100000X0.600000*%


D10*
X963930Y8722D02*
X1040130Y8722D01*
X1040130Y41402D01*
X1052830Y41402D01*
X1052830Y43942D01*
X1052830Y61722D01*
X951230Y61722D01*
X951230Y46482D01*
X951230Y41402D01*
X963930Y41402D01*
X963930Y8722D01*
D11*
X348488Y666073D02*
X348488Y666919D01*
X348488Y666073D02*
X348490Y666018D01*
X348495Y665962D01*
X348504Y665908D01*
X348517Y665854D01*
X348533Y665801D01*
X348552Y665749D01*
X348575Y665698D01*
X348601Y665650D01*
X348631Y665602D01*
X348663Y665557D01*
X348698Y665515D01*
X348736Y665474D01*
X348777Y665436D01*
X348819Y665401D01*
X348864Y665369D01*
X348912Y665339D01*
X348960Y665313D01*
X349011Y665290D01*
X349063Y665271D01*
X349116Y665255D01*
X349170Y665242D01*
X349224Y665233D01*
X349280Y665228D01*
X349335Y665226D01*
X351451Y665226D01*
X351509Y665228D01*
X351566Y665234D01*
X351623Y665244D01*
X351680Y665257D01*
X351735Y665275D01*
X351788Y665296D01*
X351841Y665321D01*
X351891Y665349D01*
X351939Y665381D01*
X351986Y665416D01*
X352029Y665454D01*
X352070Y665495D01*
X352108Y665538D01*
X352143Y665585D01*
X352175Y665633D01*
X352203Y665683D01*
X352228Y665736D01*
X352249Y665789D01*
X352267Y665844D01*
X352280Y665901D01*
X352290Y665958D01*
X352296Y666015D01*
X352298Y666073D01*
X352298Y666919D01*
X348488Y668283D02*
X348488Y669342D01*
X348490Y669406D01*
X348496Y669470D01*
X348505Y669533D01*
X348519Y669595D01*
X348536Y669657D01*
X348557Y669717D01*
X348581Y669776D01*
X348609Y669834D01*
X348641Y669889D01*
X348675Y669943D01*
X348713Y669994D01*
X348754Y670044D01*
X348798Y670090D01*
X348844Y670134D01*
X348894Y670175D01*
X348945Y670213D01*
X348999Y670247D01*
X349054Y670279D01*
X349112Y670307D01*
X349171Y670331D01*
X349231Y670352D01*
X349293Y670369D01*
X349355Y670383D01*
X349418Y670392D01*
X349482Y670398D01*
X349546Y670400D01*
X349610Y670398D01*
X349674Y670392D01*
X349737Y670383D01*
X349799Y670369D01*
X349861Y670352D01*
X349921Y670331D01*
X349980Y670307D01*
X350038Y670279D01*
X350093Y670247D01*
X350147Y670213D01*
X350198Y670175D01*
X350248Y670134D01*
X350294Y670090D01*
X350338Y670044D01*
X350379Y669994D01*
X350417Y669943D01*
X350451Y669889D01*
X350483Y669834D01*
X350511Y669776D01*
X350535Y669717D01*
X350556Y669657D01*
X350573Y669595D01*
X350587Y669533D01*
X350596Y669470D01*
X350602Y669406D01*
X350604Y669342D01*
X352298Y669553D02*
X352298Y668283D01*
X352298Y669553D02*
X352296Y669610D01*
X352290Y669666D01*
X352281Y669722D01*
X352268Y669777D01*
X352251Y669831D01*
X352231Y669884D01*
X352207Y669935D01*
X352180Y669985D01*
X352149Y670032D01*
X352116Y670078D01*
X352079Y670121D01*
X352040Y670162D01*
X351998Y670200D01*
X351953Y670235D01*
X351907Y670267D01*
X351858Y670296D01*
X351808Y670321D01*
X351755Y670343D01*
X351702Y670362D01*
X351647Y670377D01*
X351592Y670388D01*
X351536Y670396D01*
X351479Y670400D01*
X351423Y670400D01*
X351366Y670396D01*
X351310Y670388D01*
X351255Y670377D01*
X351200Y670362D01*
X351147Y670343D01*
X351094Y670321D01*
X351044Y670296D01*
X350995Y670267D01*
X350949Y670235D01*
X350904Y670200D01*
X350862Y670162D01*
X350823Y670121D01*
X350786Y670078D01*
X350753Y670032D01*
X350722Y669985D01*
X350695Y669935D01*
X350671Y669884D01*
X350651Y669831D01*
X350634Y669777D01*
X350621Y669722D01*
X350612Y669666D01*
X350606Y669610D01*
X350604Y669553D01*
X350605Y669553D02*
X350605Y668707D01*
X350181Y672788D02*
X350181Y674058D01*
X350181Y672788D02*
X350183Y672733D01*
X350188Y672677D01*
X350197Y672623D01*
X350210Y672569D01*
X350226Y672516D01*
X350245Y672464D01*
X350268Y672413D01*
X350294Y672365D01*
X350324Y672317D01*
X350356Y672272D01*
X350391Y672230D01*
X350429Y672189D01*
X350470Y672151D01*
X350512Y672116D01*
X350557Y672084D01*
X350605Y672054D01*
X350653Y672028D01*
X350704Y672005D01*
X350756Y671986D01*
X350809Y671970D01*
X350863Y671957D01*
X350917Y671948D01*
X350973Y671943D01*
X351028Y671941D01*
X351240Y671941D01*
X351304Y671943D01*
X351368Y671949D01*
X351431Y671958D01*
X351493Y671972D01*
X351555Y671989D01*
X351615Y672010D01*
X351674Y672034D01*
X351732Y672062D01*
X351787Y672094D01*
X351841Y672128D01*
X351892Y672166D01*
X351942Y672207D01*
X351988Y672251D01*
X352032Y672297D01*
X352073Y672347D01*
X352111Y672398D01*
X352145Y672452D01*
X352177Y672507D01*
X352205Y672565D01*
X352229Y672624D01*
X352250Y672684D01*
X352267Y672746D01*
X352281Y672808D01*
X352290Y672871D01*
X352296Y672935D01*
X352298Y672999D01*
X352296Y673063D01*
X352290Y673127D01*
X352281Y673190D01*
X352267Y673252D01*
X352250Y673314D01*
X352229Y673374D01*
X352205Y673433D01*
X352177Y673491D01*
X352145Y673546D01*
X352111Y673600D01*
X352073Y673651D01*
X352032Y673701D01*
X351988Y673747D01*
X351942Y673791D01*
X351892Y673832D01*
X351841Y673870D01*
X351787Y673904D01*
X351732Y673936D01*
X351674Y673964D01*
X351615Y673988D01*
X351555Y674009D01*
X351493Y674026D01*
X351431Y674040D01*
X351368Y674049D01*
X351304Y674055D01*
X351240Y674057D01*
X351240Y674058D02*
X350181Y674058D01*
X350181Y674057D02*
X350100Y674055D01*
X350020Y674049D01*
X349940Y674040D01*
X349861Y674026D01*
X349782Y674009D01*
X349704Y673988D01*
X349627Y673964D01*
X349552Y673936D01*
X349478Y673904D01*
X349405Y673869D01*
X349335Y673830D01*
X349266Y673788D01*
X349199Y673743D01*
X349134Y673695D01*
X349072Y673643D01*
X349013Y673589D01*
X348956Y673532D01*
X348902Y673473D01*
X348850Y673411D01*
X348802Y673346D01*
X348757Y673279D01*
X348715Y673211D01*
X348676Y673140D01*
X348641Y673067D01*
X348609Y672993D01*
X348581Y672918D01*
X348557Y672841D01*
X348536Y672763D01*
X348519Y672684D01*
X348505Y672605D01*
X348496Y672525D01*
X348490Y672445D01*
X348488Y672364D01*
D12*
X233824Y813880D02*
X233824Y821880D01*
X251824Y821880D01*
X251824Y813880D01*
X233824Y813880D01*
X235617Y819380D02*
X235619Y819433D01*
X235625Y819485D01*
X235635Y819537D01*
X235648Y819588D01*
X235666Y819638D01*
X235687Y819687D01*
X235712Y819734D01*
X235740Y819778D01*
X235771Y819821D01*
X235806Y819861D01*
X235843Y819898D01*
X235883Y819933D01*
X235926Y819964D01*
X235971Y819992D01*
X236017Y820017D01*
X236066Y820038D01*
X236116Y820056D01*
X236167Y820069D01*
X236219Y820079D01*
X236271Y820085D01*
X236324Y820087D01*
X236377Y820085D01*
X236429Y820079D01*
X236481Y820069D01*
X236532Y820056D01*
X236582Y820038D01*
X236631Y820017D01*
X236678Y819992D01*
X236722Y819964D01*
X236765Y819933D01*
X236805Y819898D01*
X236842Y819861D01*
X236877Y819821D01*
X236908Y819778D01*
X236936Y819733D01*
X236961Y819687D01*
X236982Y819638D01*
X237000Y819588D01*
X237013Y819537D01*
X237023Y819485D01*
X237029Y819433D01*
X237031Y819380D01*
X237029Y819327D01*
X237023Y819275D01*
X237013Y819223D01*
X237000Y819172D01*
X236982Y819122D01*
X236961Y819073D01*
X236936Y819026D01*
X236908Y818982D01*
X236877Y818939D01*
X236842Y818899D01*
X236805Y818862D01*
X236765Y818827D01*
X236722Y818796D01*
X236677Y818768D01*
X236631Y818743D01*
X236582Y818722D01*
X236532Y818704D01*
X236481Y818691D01*
X236429Y818681D01*
X236377Y818675D01*
X236324Y818673D01*
X236271Y818675D01*
X236219Y818681D01*
X236167Y818691D01*
X236116Y818704D01*
X236066Y818722D01*
X236017Y818743D01*
X235970Y818768D01*
X235926Y818796D01*
X235883Y818827D01*
X235843Y818862D01*
X235806Y818899D01*
X235771Y818939D01*
X235740Y818982D01*
X235712Y819027D01*
X235687Y819073D01*
X235666Y819122D01*
X235648Y819172D01*
X235635Y819223D01*
X235625Y819275D01*
X235619Y819327D01*
X235617Y819380D01*
X260494Y821626D02*
X260494Y813626D01*
X260494Y821626D02*
X278494Y821626D01*
X278494Y813626D01*
X260494Y813626D01*
X262287Y819126D02*
X262289Y819179D01*
X262295Y819231D01*
X262305Y819283D01*
X262318Y819334D01*
X262336Y819384D01*
X262357Y819433D01*
X262382Y819480D01*
X262410Y819524D01*
X262441Y819567D01*
X262476Y819607D01*
X262513Y819644D01*
X262553Y819679D01*
X262596Y819710D01*
X262641Y819738D01*
X262687Y819763D01*
X262736Y819784D01*
X262786Y819802D01*
X262837Y819815D01*
X262889Y819825D01*
X262941Y819831D01*
X262994Y819833D01*
X263047Y819831D01*
X263099Y819825D01*
X263151Y819815D01*
X263202Y819802D01*
X263252Y819784D01*
X263301Y819763D01*
X263348Y819738D01*
X263392Y819710D01*
X263435Y819679D01*
X263475Y819644D01*
X263512Y819607D01*
X263547Y819567D01*
X263578Y819524D01*
X263606Y819479D01*
X263631Y819433D01*
X263652Y819384D01*
X263670Y819334D01*
X263683Y819283D01*
X263693Y819231D01*
X263699Y819179D01*
X263701Y819126D01*
X263699Y819073D01*
X263693Y819021D01*
X263683Y818969D01*
X263670Y818918D01*
X263652Y818868D01*
X263631Y818819D01*
X263606Y818772D01*
X263578Y818728D01*
X263547Y818685D01*
X263512Y818645D01*
X263475Y818608D01*
X263435Y818573D01*
X263392Y818542D01*
X263347Y818514D01*
X263301Y818489D01*
X263252Y818468D01*
X263202Y818450D01*
X263151Y818437D01*
X263099Y818427D01*
X263047Y818421D01*
X262994Y818419D01*
X262941Y818421D01*
X262889Y818427D01*
X262837Y818437D01*
X262786Y818450D01*
X262736Y818468D01*
X262687Y818489D01*
X262640Y818514D01*
X262596Y818542D01*
X262553Y818573D01*
X262513Y818608D01*
X262476Y818645D01*
X262441Y818685D01*
X262410Y818728D01*
X262382Y818773D01*
X262357Y818819D01*
X262336Y818868D01*
X262318Y818918D01*
X262305Y818969D01*
X262295Y819021D01*
X262289Y819073D01*
X262287Y819126D01*
X287926Y821626D02*
X287926Y813626D01*
X287926Y821626D02*
X305926Y821626D01*
X305926Y813626D01*
X287926Y813626D01*
X289719Y819126D02*
X289721Y819179D01*
X289727Y819231D01*
X289737Y819283D01*
X289750Y819334D01*
X289768Y819384D01*
X289789Y819433D01*
X289814Y819480D01*
X289842Y819524D01*
X289873Y819567D01*
X289908Y819607D01*
X289945Y819644D01*
X289985Y819679D01*
X290028Y819710D01*
X290073Y819738D01*
X290119Y819763D01*
X290168Y819784D01*
X290218Y819802D01*
X290269Y819815D01*
X290321Y819825D01*
X290373Y819831D01*
X290426Y819833D01*
X290479Y819831D01*
X290531Y819825D01*
X290583Y819815D01*
X290634Y819802D01*
X290684Y819784D01*
X290733Y819763D01*
X290780Y819738D01*
X290824Y819710D01*
X290867Y819679D01*
X290907Y819644D01*
X290944Y819607D01*
X290979Y819567D01*
X291010Y819524D01*
X291038Y819479D01*
X291063Y819433D01*
X291084Y819384D01*
X291102Y819334D01*
X291115Y819283D01*
X291125Y819231D01*
X291131Y819179D01*
X291133Y819126D01*
X291131Y819073D01*
X291125Y819021D01*
X291115Y818969D01*
X291102Y818918D01*
X291084Y818868D01*
X291063Y818819D01*
X291038Y818772D01*
X291010Y818728D01*
X290979Y818685D01*
X290944Y818645D01*
X290907Y818608D01*
X290867Y818573D01*
X290824Y818542D01*
X290779Y818514D01*
X290733Y818489D01*
X290684Y818468D01*
X290634Y818450D01*
X290583Y818437D01*
X290531Y818427D01*
X290479Y818421D01*
X290426Y818419D01*
X290373Y818421D01*
X290321Y818427D01*
X290269Y818437D01*
X290218Y818450D01*
X290168Y818468D01*
X290119Y818489D01*
X290072Y818514D01*
X290028Y818542D01*
X289985Y818573D01*
X289945Y818608D01*
X289908Y818645D01*
X289873Y818685D01*
X289842Y818728D01*
X289814Y818773D01*
X289789Y818819D01*
X289768Y818868D01*
X289750Y818918D01*
X289737Y818969D01*
X289727Y819021D01*
X289721Y819073D01*
X289719Y819126D01*
X314342Y821880D02*
X314342Y813880D01*
X314342Y821880D02*
X332342Y821880D01*
X332342Y813880D01*
X314342Y813880D01*
X316135Y819380D02*
X316137Y819433D01*
X316143Y819485D01*
X316153Y819537D01*
X316166Y819588D01*
X316184Y819638D01*
X316205Y819687D01*
X316230Y819734D01*
X316258Y819778D01*
X316289Y819821D01*
X316324Y819861D01*
X316361Y819898D01*
X316401Y819933D01*
X316444Y819964D01*
X316489Y819992D01*
X316535Y820017D01*
X316584Y820038D01*
X316634Y820056D01*
X316685Y820069D01*
X316737Y820079D01*
X316789Y820085D01*
X316842Y820087D01*
X316895Y820085D01*
X316947Y820079D01*
X316999Y820069D01*
X317050Y820056D01*
X317100Y820038D01*
X317149Y820017D01*
X317196Y819992D01*
X317240Y819964D01*
X317283Y819933D01*
X317323Y819898D01*
X317360Y819861D01*
X317395Y819821D01*
X317426Y819778D01*
X317454Y819733D01*
X317479Y819687D01*
X317500Y819638D01*
X317518Y819588D01*
X317531Y819537D01*
X317541Y819485D01*
X317547Y819433D01*
X317549Y819380D01*
X317547Y819327D01*
X317541Y819275D01*
X317531Y819223D01*
X317518Y819172D01*
X317500Y819122D01*
X317479Y819073D01*
X317454Y819026D01*
X317426Y818982D01*
X317395Y818939D01*
X317360Y818899D01*
X317323Y818862D01*
X317283Y818827D01*
X317240Y818796D01*
X317195Y818768D01*
X317149Y818743D01*
X317100Y818722D01*
X317050Y818704D01*
X316999Y818691D01*
X316947Y818681D01*
X316895Y818675D01*
X316842Y818673D01*
X316789Y818675D01*
X316737Y818681D01*
X316685Y818691D01*
X316634Y818704D01*
X316584Y818722D01*
X316535Y818743D01*
X316488Y818768D01*
X316444Y818796D01*
X316401Y818827D01*
X316361Y818862D01*
X316324Y818899D01*
X316289Y818939D01*
X316258Y818982D01*
X316230Y819027D01*
X316205Y819073D01*
X316184Y819122D01*
X316166Y819172D01*
X316153Y819223D01*
X316143Y819275D01*
X316137Y819327D01*
X316135Y819380D01*
X392964Y777741D02*
X395464Y777741D01*
X392964Y777741D02*
X392964Y787741D01*
X405464Y792741D02*
X415464Y792741D01*
X427964Y787741D02*
X427964Y777741D01*
X402964Y777741D02*
X395464Y777741D01*
X417964Y777741D02*
X427964Y777741D01*
D13*
X419665Y806330D02*
X419665Y810916D01*
X419665Y806330D02*
X419663Y806247D01*
X419657Y806165D01*
X419648Y806083D01*
X419634Y806001D01*
X419617Y805920D01*
X419596Y805840D01*
X419571Y805761D01*
X419542Y805684D01*
X419510Y805607D01*
X419475Y805533D01*
X419436Y805460D01*
X419393Y805389D01*
X419347Y805320D01*
X419298Y805253D01*
X419246Y805189D01*
X419191Y805127D01*
X419134Y805068D01*
X419073Y805012D01*
X419010Y804958D01*
X418945Y804908D01*
X418877Y804860D01*
X418807Y804816D01*
X418735Y804776D01*
X418661Y804738D01*
X418586Y804704D01*
X418509Y804674D01*
X418430Y804647D01*
X418351Y804624D01*
X418270Y804605D01*
X418189Y804590D01*
X418107Y804578D01*
X418025Y804570D01*
X417942Y804566D01*
X417860Y804566D01*
X417777Y804570D01*
X417695Y804578D01*
X417613Y804590D01*
X417532Y804605D01*
X417451Y804624D01*
X417372Y804647D01*
X417293Y804674D01*
X417216Y804704D01*
X417141Y804738D01*
X417067Y804776D01*
X416995Y804816D01*
X416925Y804860D01*
X416857Y804908D01*
X416792Y804958D01*
X416729Y805012D01*
X416668Y805068D01*
X416611Y805127D01*
X416556Y805189D01*
X416504Y805253D01*
X416455Y805320D01*
X416409Y805389D01*
X416366Y805460D01*
X416327Y805533D01*
X416292Y805607D01*
X416260Y805684D01*
X416231Y805761D01*
X416206Y805840D01*
X416185Y805920D01*
X416168Y806001D01*
X416154Y806083D01*
X416145Y806165D01*
X416139Y806247D01*
X416137Y806330D01*
X416137Y810916D01*
X410166Y810917D02*
X410088Y810915D01*
X410010Y810909D01*
X409933Y810900D01*
X409856Y810886D01*
X409780Y810869D01*
X409705Y810849D01*
X409631Y810824D01*
X409558Y810796D01*
X409487Y810765D01*
X409417Y810729D01*
X409350Y810691D01*
X409284Y810649D01*
X409220Y810604D01*
X409159Y810557D01*
X409100Y810506D01*
X409043Y810452D01*
X408989Y810395D01*
X408938Y810336D01*
X408891Y810275D01*
X408846Y810211D01*
X408804Y810145D01*
X408766Y810078D01*
X408730Y810008D01*
X408699Y809937D01*
X408671Y809864D01*
X408646Y809790D01*
X408626Y809715D01*
X408609Y809639D01*
X408595Y809562D01*
X408586Y809485D01*
X408580Y809407D01*
X408578Y809329D01*
X410166Y810916D02*
X410254Y810914D01*
X410343Y810908D01*
X410431Y810899D01*
X410518Y810885D01*
X410605Y810868D01*
X410691Y810847D01*
X410776Y810823D01*
X410859Y810795D01*
X410942Y810763D01*
X411023Y810727D01*
X411102Y810688D01*
X411180Y810646D01*
X411256Y810600D01*
X411329Y810552D01*
X411401Y810500D01*
X411470Y810445D01*
X411537Y810387D01*
X411601Y810326D01*
X411662Y810262D01*
X411721Y810196D01*
X411777Y810127D01*
X411829Y810056D01*
X411879Y809983D01*
X411925Y809908D01*
X411968Y809831D01*
X412008Y809752D01*
X412044Y809671D01*
X412077Y809589D01*
X412106Y809505D01*
X409107Y808094D02*
X409050Y808152D01*
X408995Y808212D01*
X408943Y808274D01*
X408895Y808339D01*
X408849Y808407D01*
X408807Y808476D01*
X408768Y808547D01*
X408732Y808620D01*
X408700Y808695D01*
X408672Y808771D01*
X408647Y808848D01*
X408626Y808927D01*
X408609Y809006D01*
X408595Y809086D01*
X408586Y809167D01*
X408580Y809248D01*
X408578Y809329D01*
X409107Y808094D02*
X412106Y804566D01*
X408578Y804566D01*
X404791Y809505D02*
X403027Y810916D01*
X403027Y804566D01*
X404791Y804566D02*
X401263Y804566D01*
D12*
X76207Y290435D02*
X76207Y287935D01*
X66207Y287935D01*
X61207Y300435D02*
X61207Y310435D01*
X66207Y322935D02*
X76207Y322935D01*
X76207Y297935D02*
X76207Y290435D01*
X76207Y312935D02*
X76207Y322935D01*
D13*
X87595Y299274D02*
X90417Y299274D01*
X90500Y299276D01*
X90582Y299282D01*
X90664Y299291D01*
X90746Y299305D01*
X90827Y299322D01*
X90907Y299343D01*
X90986Y299368D01*
X91063Y299397D01*
X91140Y299429D01*
X91214Y299464D01*
X91287Y299503D01*
X91358Y299546D01*
X91427Y299592D01*
X91494Y299641D01*
X91558Y299693D01*
X91620Y299748D01*
X91679Y299805D01*
X91735Y299866D01*
X91789Y299929D01*
X91839Y299994D01*
X91887Y300062D01*
X91931Y300132D01*
X91971Y300204D01*
X92009Y300278D01*
X92043Y300353D01*
X92073Y300430D01*
X92100Y300509D01*
X92123Y300588D01*
X92142Y300669D01*
X92157Y300750D01*
X92169Y300832D01*
X92177Y300914D01*
X92181Y300997D01*
X92181Y301079D01*
X92177Y301162D01*
X92169Y301244D01*
X92157Y301326D01*
X92142Y301407D01*
X92123Y301488D01*
X92100Y301567D01*
X92073Y301646D01*
X92043Y301723D01*
X92009Y301798D01*
X91971Y301872D01*
X91931Y301944D01*
X91887Y302014D01*
X91839Y302082D01*
X91789Y302147D01*
X91735Y302210D01*
X91679Y302271D01*
X91620Y302328D01*
X91558Y302383D01*
X91494Y302435D01*
X91427Y302484D01*
X91358Y302530D01*
X91287Y302573D01*
X91214Y302612D01*
X91140Y302647D01*
X91063Y302679D01*
X90986Y302708D01*
X90907Y302733D01*
X90827Y302754D01*
X90746Y302771D01*
X90664Y302785D01*
X90582Y302794D01*
X90500Y302800D01*
X90417Y302802D01*
X87595Y302802D01*
X87512Y302800D01*
X87430Y302794D01*
X87348Y302785D01*
X87266Y302771D01*
X87185Y302754D01*
X87105Y302733D01*
X87026Y302708D01*
X86949Y302679D01*
X86872Y302647D01*
X86798Y302612D01*
X86725Y302573D01*
X86654Y302530D01*
X86585Y302484D01*
X86518Y302435D01*
X86454Y302383D01*
X86392Y302328D01*
X86333Y302271D01*
X86277Y302210D01*
X86223Y302147D01*
X86173Y302082D01*
X86125Y302014D01*
X86081Y301944D01*
X86041Y301872D01*
X86003Y301798D01*
X85969Y301723D01*
X85939Y301646D01*
X85912Y301567D01*
X85889Y301488D01*
X85870Y301407D01*
X85855Y301326D01*
X85843Y301244D01*
X85835Y301162D01*
X85831Y301079D01*
X85831Y300997D01*
X85835Y300914D01*
X85843Y300832D01*
X85855Y300750D01*
X85870Y300669D01*
X85889Y300588D01*
X85912Y300509D01*
X85939Y300430D01*
X85969Y300353D01*
X86003Y300278D01*
X86041Y300204D01*
X86081Y300132D01*
X86125Y300062D01*
X86173Y299994D01*
X86223Y299929D01*
X86277Y299866D01*
X86333Y299805D01*
X86392Y299748D01*
X86454Y299693D01*
X86518Y299641D01*
X86585Y299592D01*
X86654Y299546D01*
X86725Y299503D01*
X86798Y299464D01*
X86872Y299429D01*
X86949Y299397D01*
X87026Y299368D01*
X87105Y299343D01*
X87185Y299322D01*
X87266Y299305D01*
X87348Y299291D01*
X87430Y299282D01*
X87512Y299276D01*
X87595Y299274D01*
X87242Y302096D02*
X85831Y303508D01*
X90770Y306036D02*
X92181Y307800D01*
X85831Y307800D01*
X85831Y306036D02*
X85831Y309564D01*
D12*
X58775Y279661D02*
X56275Y279661D01*
X58775Y279661D02*
X58775Y269661D01*
X46275Y264661D02*
X36275Y264661D01*
X23775Y269661D02*
X23775Y279661D01*
X48775Y279661D02*
X56275Y279661D01*
X33775Y279661D02*
X23775Y279661D01*
D13*
X46420Y251072D02*
X46420Y248250D01*
X46420Y251072D02*
X46418Y251155D01*
X46412Y251237D01*
X46403Y251319D01*
X46389Y251401D01*
X46372Y251482D01*
X46351Y251562D01*
X46326Y251641D01*
X46297Y251718D01*
X46265Y251795D01*
X46230Y251869D01*
X46191Y251942D01*
X46148Y252013D01*
X46102Y252082D01*
X46053Y252149D01*
X46001Y252213D01*
X45946Y252275D01*
X45889Y252334D01*
X45828Y252390D01*
X45765Y252444D01*
X45700Y252494D01*
X45632Y252542D01*
X45562Y252586D01*
X45490Y252626D01*
X45416Y252664D01*
X45341Y252698D01*
X45264Y252728D01*
X45185Y252755D01*
X45106Y252778D01*
X45025Y252797D01*
X44944Y252812D01*
X44862Y252824D01*
X44780Y252832D01*
X44697Y252836D01*
X44615Y252836D01*
X44532Y252832D01*
X44450Y252824D01*
X44368Y252812D01*
X44287Y252797D01*
X44206Y252778D01*
X44127Y252755D01*
X44048Y252728D01*
X43971Y252698D01*
X43896Y252664D01*
X43822Y252626D01*
X43750Y252586D01*
X43680Y252542D01*
X43612Y252494D01*
X43547Y252444D01*
X43484Y252390D01*
X43423Y252334D01*
X43366Y252275D01*
X43311Y252213D01*
X43259Y252149D01*
X43210Y252082D01*
X43164Y252013D01*
X43121Y251942D01*
X43082Y251869D01*
X43047Y251795D01*
X43015Y251718D01*
X42986Y251641D01*
X42961Y251562D01*
X42940Y251482D01*
X42923Y251401D01*
X42909Y251319D01*
X42900Y251237D01*
X42894Y251155D01*
X42892Y251072D01*
X42892Y248250D01*
X42894Y248167D01*
X42900Y248085D01*
X42909Y248003D01*
X42923Y247921D01*
X42940Y247840D01*
X42961Y247760D01*
X42986Y247681D01*
X43015Y247604D01*
X43047Y247527D01*
X43082Y247453D01*
X43121Y247380D01*
X43164Y247309D01*
X43210Y247240D01*
X43259Y247173D01*
X43311Y247109D01*
X43366Y247047D01*
X43423Y246988D01*
X43484Y246932D01*
X43547Y246878D01*
X43612Y246828D01*
X43680Y246780D01*
X43750Y246736D01*
X43822Y246696D01*
X43896Y246658D01*
X43971Y246624D01*
X44048Y246594D01*
X44127Y246567D01*
X44206Y246544D01*
X44287Y246525D01*
X44368Y246510D01*
X44450Y246498D01*
X44532Y246490D01*
X44615Y246486D01*
X44697Y246486D01*
X44780Y246490D01*
X44862Y246498D01*
X44944Y246510D01*
X45025Y246525D01*
X45106Y246544D01*
X45185Y246567D01*
X45264Y246594D01*
X45341Y246624D01*
X45416Y246658D01*
X45490Y246696D01*
X45562Y246736D01*
X45632Y246780D01*
X45700Y246828D01*
X45765Y246878D01*
X45828Y246932D01*
X45889Y246988D01*
X45946Y247047D01*
X46001Y247109D01*
X46053Y247173D01*
X46102Y247240D01*
X46148Y247309D01*
X46191Y247380D01*
X46230Y247453D01*
X46265Y247527D01*
X46297Y247604D01*
X46326Y247681D01*
X46351Y247760D01*
X46372Y247840D01*
X46389Y247921D01*
X46403Y248003D01*
X46412Y248085D01*
X46418Y248167D01*
X46420Y248250D01*
X43598Y247897D02*
X42187Y246486D01*
X36130Y251249D02*
X36132Y251327D01*
X36138Y251405D01*
X36147Y251482D01*
X36161Y251559D01*
X36178Y251635D01*
X36198Y251710D01*
X36223Y251784D01*
X36251Y251857D01*
X36282Y251928D01*
X36318Y251998D01*
X36356Y252065D01*
X36398Y252131D01*
X36443Y252195D01*
X36490Y252256D01*
X36541Y252315D01*
X36595Y252372D01*
X36652Y252426D01*
X36711Y252477D01*
X36772Y252524D01*
X36836Y252569D01*
X36902Y252611D01*
X36969Y252649D01*
X37039Y252685D01*
X37110Y252716D01*
X37183Y252744D01*
X37257Y252769D01*
X37332Y252789D01*
X37408Y252806D01*
X37485Y252820D01*
X37562Y252829D01*
X37640Y252835D01*
X37718Y252837D01*
X37718Y252836D02*
X37806Y252834D01*
X37895Y252828D01*
X37983Y252819D01*
X38070Y252805D01*
X38157Y252788D01*
X38243Y252767D01*
X38328Y252743D01*
X38411Y252715D01*
X38494Y252683D01*
X38575Y252647D01*
X38654Y252608D01*
X38732Y252566D01*
X38808Y252520D01*
X38881Y252472D01*
X38953Y252420D01*
X39022Y252365D01*
X39089Y252307D01*
X39153Y252246D01*
X39214Y252182D01*
X39273Y252116D01*
X39329Y252047D01*
X39381Y251976D01*
X39431Y251903D01*
X39477Y251828D01*
X39520Y251751D01*
X39560Y251672D01*
X39596Y251591D01*
X39629Y251509D01*
X39658Y251425D01*
X36659Y250014D02*
X36602Y250072D01*
X36547Y250132D01*
X36495Y250194D01*
X36447Y250259D01*
X36401Y250327D01*
X36359Y250396D01*
X36320Y250467D01*
X36284Y250540D01*
X36252Y250615D01*
X36224Y250691D01*
X36199Y250768D01*
X36178Y250847D01*
X36161Y250926D01*
X36147Y251006D01*
X36138Y251087D01*
X36132Y251168D01*
X36130Y251249D01*
X36659Y250014D02*
X39658Y246486D01*
X36130Y246486D01*
D12*
X60308Y360744D02*
X60308Y368744D01*
X60308Y360744D02*
X42308Y360744D01*
X42308Y368744D01*
X60308Y368744D01*
X57101Y363244D02*
X57103Y363297D01*
X57109Y363349D01*
X57119Y363401D01*
X57132Y363452D01*
X57150Y363502D01*
X57171Y363551D01*
X57196Y363598D01*
X57224Y363642D01*
X57255Y363685D01*
X57290Y363725D01*
X57327Y363762D01*
X57367Y363797D01*
X57410Y363828D01*
X57455Y363856D01*
X57501Y363881D01*
X57550Y363902D01*
X57600Y363920D01*
X57651Y363933D01*
X57703Y363943D01*
X57755Y363949D01*
X57808Y363951D01*
X57861Y363949D01*
X57913Y363943D01*
X57965Y363933D01*
X58016Y363920D01*
X58066Y363902D01*
X58115Y363881D01*
X58162Y363856D01*
X58206Y363828D01*
X58249Y363797D01*
X58289Y363762D01*
X58326Y363725D01*
X58361Y363685D01*
X58392Y363642D01*
X58420Y363597D01*
X58445Y363551D01*
X58466Y363502D01*
X58484Y363452D01*
X58497Y363401D01*
X58507Y363349D01*
X58513Y363297D01*
X58515Y363244D01*
X58513Y363191D01*
X58507Y363139D01*
X58497Y363087D01*
X58484Y363036D01*
X58466Y362986D01*
X58445Y362937D01*
X58420Y362890D01*
X58392Y362846D01*
X58361Y362803D01*
X58326Y362763D01*
X58289Y362726D01*
X58249Y362691D01*
X58206Y362660D01*
X58161Y362632D01*
X58115Y362607D01*
X58066Y362586D01*
X58016Y362568D01*
X57965Y362555D01*
X57913Y362545D01*
X57861Y362539D01*
X57808Y362537D01*
X57755Y362539D01*
X57703Y362545D01*
X57651Y362555D01*
X57600Y362568D01*
X57550Y362586D01*
X57501Y362607D01*
X57454Y362632D01*
X57410Y362660D01*
X57367Y362691D01*
X57327Y362726D01*
X57290Y362763D01*
X57255Y362803D01*
X57224Y362846D01*
X57196Y362891D01*
X57171Y362937D01*
X57150Y362986D01*
X57132Y363036D01*
X57119Y363087D01*
X57109Y363139D01*
X57103Y363191D01*
X57101Y363244D01*
X835008Y319468D02*
X835008Y311468D01*
X817008Y311468D01*
X817008Y319468D01*
X835008Y319468D01*
X831801Y313968D02*
X831803Y314021D01*
X831809Y314073D01*
X831819Y314125D01*
X831832Y314176D01*
X831850Y314226D01*
X831871Y314275D01*
X831896Y314322D01*
X831924Y314366D01*
X831955Y314409D01*
X831990Y314449D01*
X832027Y314486D01*
X832067Y314521D01*
X832110Y314552D01*
X832155Y314580D01*
X832201Y314605D01*
X832250Y314626D01*
X832300Y314644D01*
X832351Y314657D01*
X832403Y314667D01*
X832455Y314673D01*
X832508Y314675D01*
X832561Y314673D01*
X832613Y314667D01*
X832665Y314657D01*
X832716Y314644D01*
X832766Y314626D01*
X832815Y314605D01*
X832862Y314580D01*
X832906Y314552D01*
X832949Y314521D01*
X832989Y314486D01*
X833026Y314449D01*
X833061Y314409D01*
X833092Y314366D01*
X833120Y314321D01*
X833145Y314275D01*
X833166Y314226D01*
X833184Y314176D01*
X833197Y314125D01*
X833207Y314073D01*
X833213Y314021D01*
X833215Y313968D01*
X833213Y313915D01*
X833207Y313863D01*
X833197Y313811D01*
X833184Y313760D01*
X833166Y313710D01*
X833145Y313661D01*
X833120Y313614D01*
X833092Y313570D01*
X833061Y313527D01*
X833026Y313487D01*
X832989Y313450D01*
X832949Y313415D01*
X832906Y313384D01*
X832861Y313356D01*
X832815Y313331D01*
X832766Y313310D01*
X832716Y313292D01*
X832665Y313279D01*
X832613Y313269D01*
X832561Y313263D01*
X832508Y313261D01*
X832455Y313263D01*
X832403Y313269D01*
X832351Y313279D01*
X832300Y313292D01*
X832250Y313310D01*
X832201Y313331D01*
X832154Y313356D01*
X832110Y313384D01*
X832067Y313415D01*
X832027Y313450D01*
X831990Y313487D01*
X831955Y313527D01*
X831924Y313570D01*
X831896Y313615D01*
X831871Y313661D01*
X831850Y313710D01*
X831832Y313760D01*
X831819Y313811D01*
X831809Y313863D01*
X831803Y313915D01*
X831801Y313968D01*
D11*
X347100Y458343D02*
X346254Y458343D01*
X347100Y458343D02*
X347155Y458345D01*
X347211Y458350D01*
X347265Y458359D01*
X347319Y458372D01*
X347372Y458388D01*
X347424Y458407D01*
X347475Y458430D01*
X347524Y458456D01*
X347571Y458486D01*
X347616Y458518D01*
X347658Y458553D01*
X347699Y458591D01*
X347737Y458632D01*
X347772Y458674D01*
X347804Y458719D01*
X347834Y458767D01*
X347860Y458815D01*
X347883Y458866D01*
X347902Y458918D01*
X347918Y458971D01*
X347931Y459025D01*
X347940Y459079D01*
X347945Y459135D01*
X347947Y459190D01*
X347947Y461306D01*
X347945Y461364D01*
X347939Y461421D01*
X347929Y461478D01*
X347916Y461535D01*
X347898Y461590D01*
X347877Y461643D01*
X347852Y461696D01*
X347824Y461746D01*
X347792Y461794D01*
X347757Y461841D01*
X347719Y461884D01*
X347678Y461925D01*
X347635Y461963D01*
X347588Y461998D01*
X347540Y462030D01*
X347490Y462058D01*
X347437Y462083D01*
X347384Y462104D01*
X347329Y462122D01*
X347272Y462135D01*
X347215Y462145D01*
X347158Y462151D01*
X347100Y462153D01*
X346254Y462153D01*
X344890Y460460D02*
X343620Y460460D01*
X343562Y460458D01*
X343505Y460452D01*
X343448Y460442D01*
X343391Y460429D01*
X343336Y460411D01*
X343283Y460390D01*
X343230Y460365D01*
X343180Y460337D01*
X343132Y460305D01*
X343085Y460270D01*
X343042Y460232D01*
X343001Y460191D01*
X342963Y460148D01*
X342928Y460101D01*
X342896Y460053D01*
X342868Y460003D01*
X342843Y459950D01*
X342822Y459897D01*
X342804Y459842D01*
X342791Y459785D01*
X342781Y459728D01*
X342775Y459671D01*
X342773Y459613D01*
X342773Y459401D01*
X342775Y459337D01*
X342781Y459273D01*
X342790Y459210D01*
X342804Y459148D01*
X342821Y459086D01*
X342842Y459026D01*
X342866Y458967D01*
X342894Y458909D01*
X342926Y458854D01*
X342960Y458800D01*
X342998Y458749D01*
X343039Y458699D01*
X343083Y458653D01*
X343129Y458609D01*
X343179Y458568D01*
X343230Y458530D01*
X343284Y458496D01*
X343339Y458464D01*
X343397Y458436D01*
X343456Y458412D01*
X343516Y458391D01*
X343578Y458374D01*
X343640Y458360D01*
X343703Y458351D01*
X343767Y458345D01*
X343831Y458343D01*
X343895Y458345D01*
X343959Y458351D01*
X344022Y458360D01*
X344084Y458374D01*
X344146Y458391D01*
X344206Y458412D01*
X344265Y458436D01*
X344323Y458464D01*
X344378Y458496D01*
X344432Y458530D01*
X344483Y458568D01*
X344533Y458609D01*
X344579Y458653D01*
X344623Y458699D01*
X344664Y458749D01*
X344702Y458800D01*
X344736Y458854D01*
X344768Y458909D01*
X344796Y458967D01*
X344820Y459026D01*
X344841Y459086D01*
X344858Y459148D01*
X344872Y459210D01*
X344881Y459273D01*
X344887Y459337D01*
X344889Y459401D01*
X344890Y459401D02*
X344890Y460460D01*
X344889Y460460D02*
X344887Y460541D01*
X344881Y460621D01*
X344872Y460701D01*
X344858Y460780D01*
X344841Y460859D01*
X344820Y460937D01*
X344796Y461014D01*
X344768Y461089D01*
X344736Y461163D01*
X344701Y461236D01*
X344662Y461307D01*
X344620Y461375D01*
X344575Y461442D01*
X344527Y461507D01*
X344475Y461569D01*
X344421Y461628D01*
X344364Y461685D01*
X344305Y461739D01*
X344243Y461791D01*
X344178Y461839D01*
X344111Y461884D01*
X344043Y461926D01*
X343972Y461965D01*
X343899Y462000D01*
X343825Y462032D01*
X343750Y462060D01*
X343673Y462084D01*
X343595Y462105D01*
X343516Y462122D01*
X343437Y462136D01*
X343357Y462145D01*
X343277Y462151D01*
X343196Y462153D01*
X346000Y470789D02*
X346846Y470789D01*
X346901Y470791D01*
X346957Y470796D01*
X347011Y470805D01*
X347065Y470818D01*
X347118Y470834D01*
X347170Y470853D01*
X347221Y470876D01*
X347270Y470902D01*
X347317Y470932D01*
X347362Y470964D01*
X347404Y470999D01*
X347445Y471037D01*
X347483Y471078D01*
X347518Y471120D01*
X347550Y471165D01*
X347580Y471213D01*
X347606Y471261D01*
X347629Y471312D01*
X347648Y471364D01*
X347664Y471417D01*
X347677Y471471D01*
X347686Y471525D01*
X347691Y471581D01*
X347693Y471636D01*
X347693Y473752D01*
X347691Y473810D01*
X347685Y473867D01*
X347675Y473924D01*
X347662Y473981D01*
X347644Y474036D01*
X347623Y474089D01*
X347598Y474142D01*
X347570Y474192D01*
X347538Y474240D01*
X347503Y474287D01*
X347465Y474330D01*
X347424Y474371D01*
X347381Y474409D01*
X347334Y474444D01*
X347286Y474476D01*
X347236Y474504D01*
X347183Y474529D01*
X347130Y474550D01*
X347075Y474568D01*
X347018Y474581D01*
X346961Y474591D01*
X346904Y474597D01*
X346846Y474599D01*
X346000Y474599D01*
X344636Y474599D02*
X344636Y474176D01*
X344636Y474599D02*
X342519Y474599D01*
X343577Y470789D01*
X840284Y549529D02*
X841130Y549529D01*
X841185Y549531D01*
X841241Y549536D01*
X841295Y549545D01*
X841349Y549558D01*
X841402Y549574D01*
X841454Y549593D01*
X841505Y549616D01*
X841554Y549642D01*
X841601Y549672D01*
X841646Y549704D01*
X841688Y549739D01*
X841729Y549777D01*
X841767Y549818D01*
X841802Y549860D01*
X841834Y549905D01*
X841864Y549953D01*
X841890Y550001D01*
X841913Y550052D01*
X841932Y550104D01*
X841948Y550157D01*
X841961Y550211D01*
X841970Y550265D01*
X841975Y550321D01*
X841977Y550376D01*
X841977Y552492D01*
X841975Y552550D01*
X841969Y552607D01*
X841959Y552664D01*
X841946Y552721D01*
X841928Y552776D01*
X841907Y552829D01*
X841882Y552882D01*
X841854Y552932D01*
X841822Y552980D01*
X841787Y553027D01*
X841749Y553070D01*
X841708Y553111D01*
X841665Y553149D01*
X841618Y553184D01*
X841570Y553216D01*
X841520Y553244D01*
X841467Y553269D01*
X841414Y553290D01*
X841359Y553308D01*
X841302Y553321D01*
X841245Y553331D01*
X841188Y553337D01*
X841130Y553339D01*
X840284Y553339D01*
X838919Y550587D02*
X838917Y550651D01*
X838911Y550715D01*
X838902Y550778D01*
X838888Y550840D01*
X838871Y550902D01*
X838850Y550962D01*
X838826Y551021D01*
X838798Y551079D01*
X838766Y551134D01*
X838732Y551188D01*
X838694Y551239D01*
X838653Y551289D01*
X838609Y551335D01*
X838563Y551379D01*
X838513Y551420D01*
X838462Y551458D01*
X838408Y551492D01*
X838353Y551524D01*
X838295Y551552D01*
X838236Y551576D01*
X838176Y551597D01*
X838114Y551614D01*
X838052Y551628D01*
X837989Y551637D01*
X837925Y551643D01*
X837861Y551645D01*
X837797Y551643D01*
X837733Y551637D01*
X837670Y551628D01*
X837608Y551614D01*
X837546Y551597D01*
X837486Y551576D01*
X837427Y551552D01*
X837369Y551524D01*
X837314Y551492D01*
X837260Y551458D01*
X837209Y551420D01*
X837159Y551379D01*
X837113Y551335D01*
X837069Y551289D01*
X837028Y551239D01*
X836990Y551188D01*
X836956Y551134D01*
X836924Y551079D01*
X836896Y551021D01*
X836872Y550962D01*
X836851Y550902D01*
X836834Y550840D01*
X836820Y550778D01*
X836811Y550715D01*
X836805Y550651D01*
X836803Y550587D01*
X836805Y550523D01*
X836811Y550459D01*
X836820Y550396D01*
X836834Y550334D01*
X836851Y550272D01*
X836872Y550212D01*
X836896Y550153D01*
X836924Y550095D01*
X836956Y550040D01*
X836990Y549986D01*
X837028Y549935D01*
X837069Y549885D01*
X837113Y549839D01*
X837159Y549795D01*
X837209Y549754D01*
X837260Y549716D01*
X837314Y549682D01*
X837369Y549650D01*
X837427Y549622D01*
X837486Y549598D01*
X837546Y549577D01*
X837608Y549560D01*
X837670Y549546D01*
X837733Y549537D01*
X837797Y549531D01*
X837861Y549529D01*
X837925Y549531D01*
X837989Y549537D01*
X838052Y549546D01*
X838114Y549560D01*
X838176Y549577D01*
X838236Y549598D01*
X838295Y549622D01*
X838353Y549650D01*
X838408Y549682D01*
X838462Y549716D01*
X838513Y549754D01*
X838563Y549795D01*
X838609Y549839D01*
X838653Y549885D01*
X838694Y549935D01*
X838732Y549986D01*
X838766Y550040D01*
X838798Y550095D01*
X838826Y550153D01*
X838850Y550212D01*
X838871Y550272D01*
X838888Y550334D01*
X838902Y550396D01*
X838911Y550459D01*
X838917Y550523D01*
X838919Y550587D01*
X838708Y552492D02*
X838706Y552549D01*
X838700Y552605D01*
X838691Y552661D01*
X838678Y552716D01*
X838661Y552770D01*
X838641Y552823D01*
X838617Y552874D01*
X838590Y552924D01*
X838559Y552971D01*
X838526Y553017D01*
X838489Y553060D01*
X838450Y553101D01*
X838408Y553139D01*
X838363Y553174D01*
X838317Y553206D01*
X838268Y553235D01*
X838218Y553260D01*
X838165Y553282D01*
X838112Y553301D01*
X838057Y553316D01*
X838002Y553327D01*
X837946Y553335D01*
X837889Y553339D01*
X837833Y553339D01*
X837776Y553335D01*
X837720Y553327D01*
X837665Y553316D01*
X837610Y553301D01*
X837557Y553282D01*
X837504Y553260D01*
X837454Y553235D01*
X837405Y553206D01*
X837359Y553174D01*
X837314Y553139D01*
X837272Y553101D01*
X837233Y553060D01*
X837196Y553017D01*
X837163Y552971D01*
X837132Y552924D01*
X837105Y552874D01*
X837081Y552823D01*
X837061Y552770D01*
X837044Y552716D01*
X837031Y552661D01*
X837022Y552605D01*
X837016Y552549D01*
X837014Y552492D01*
X837016Y552435D01*
X837022Y552379D01*
X837031Y552323D01*
X837044Y552268D01*
X837061Y552214D01*
X837081Y552161D01*
X837105Y552110D01*
X837132Y552060D01*
X837163Y552013D01*
X837196Y551967D01*
X837233Y551924D01*
X837272Y551883D01*
X837314Y551845D01*
X837359Y551810D01*
X837405Y551778D01*
X837454Y551749D01*
X837504Y551724D01*
X837557Y551702D01*
X837610Y551683D01*
X837665Y551668D01*
X837720Y551657D01*
X837776Y551649D01*
X837833Y551645D01*
X837889Y551645D01*
X837946Y551649D01*
X838002Y551657D01*
X838057Y551668D01*
X838112Y551683D01*
X838165Y551702D01*
X838218Y551724D01*
X838268Y551749D01*
X838317Y551778D01*
X838363Y551810D01*
X838408Y551845D01*
X838450Y551883D01*
X838489Y551924D01*
X838526Y551967D01*
X838559Y552013D01*
X838590Y552060D01*
X838617Y552110D01*
X838641Y552161D01*
X838661Y552214D01*
X838678Y552268D01*
X838691Y552323D01*
X838700Y552379D01*
X838706Y552435D01*
X838708Y552492D01*
X618363Y569680D02*
X618363Y570526D01*
X618363Y569680D02*
X618365Y569625D01*
X618370Y569569D01*
X618379Y569515D01*
X618392Y569461D01*
X618408Y569408D01*
X618427Y569356D01*
X618450Y569305D01*
X618476Y569257D01*
X618506Y569209D01*
X618538Y569164D01*
X618573Y569122D01*
X618611Y569081D01*
X618652Y569043D01*
X618694Y569008D01*
X618739Y568976D01*
X618787Y568946D01*
X618835Y568920D01*
X618886Y568897D01*
X618938Y568878D01*
X618991Y568862D01*
X619045Y568849D01*
X619099Y568840D01*
X619155Y568835D01*
X619210Y568833D01*
X621326Y568833D01*
X621384Y568835D01*
X621441Y568841D01*
X621498Y568851D01*
X621555Y568864D01*
X621610Y568882D01*
X621663Y568903D01*
X621716Y568928D01*
X621766Y568956D01*
X621814Y568988D01*
X621861Y569023D01*
X621904Y569061D01*
X621945Y569102D01*
X621983Y569145D01*
X622018Y569192D01*
X622050Y569240D01*
X622078Y569290D01*
X622103Y569343D01*
X622124Y569396D01*
X622142Y569451D01*
X622155Y569508D01*
X622165Y569565D01*
X622171Y569622D01*
X622173Y569680D01*
X622173Y570526D01*
X621326Y571890D02*
X622173Y572949D01*
X618363Y572949D01*
X618363Y574007D02*
X618363Y571890D01*
X620268Y575548D02*
X620378Y575550D01*
X620487Y575556D01*
X620596Y575565D01*
X620705Y575579D01*
X620813Y575596D01*
X620921Y575617D01*
X621027Y575641D01*
X621133Y575670D01*
X621238Y575702D01*
X621342Y575737D01*
X621444Y575776D01*
X621545Y575819D01*
X621644Y575866D01*
X621644Y575865D02*
X621694Y575885D01*
X621743Y575907D01*
X621791Y575933D01*
X621836Y575962D01*
X621879Y575995D01*
X621920Y576030D01*
X621959Y576068D01*
X621994Y576108D01*
X622027Y576151D01*
X622057Y576196D01*
X622084Y576243D01*
X622107Y576291D01*
X622127Y576341D01*
X622143Y576393D01*
X622156Y576445D01*
X622166Y576498D01*
X622171Y576552D01*
X622173Y576606D01*
X622171Y576660D01*
X622166Y576714D01*
X622156Y576767D01*
X622143Y576819D01*
X622127Y576871D01*
X622107Y576921D01*
X622084Y576969D01*
X622057Y577016D01*
X622027Y577061D01*
X621994Y577104D01*
X621959Y577144D01*
X621920Y577182D01*
X621879Y577217D01*
X621836Y577250D01*
X621791Y577279D01*
X621743Y577305D01*
X621694Y577327D01*
X621644Y577347D01*
X621545Y577394D01*
X621444Y577437D01*
X621342Y577476D01*
X621238Y577511D01*
X621133Y577543D01*
X621027Y577572D01*
X620921Y577596D01*
X620813Y577617D01*
X620705Y577634D01*
X620596Y577648D01*
X620487Y577657D01*
X620378Y577663D01*
X620268Y577665D01*
X620268Y575548D02*
X620158Y575550D01*
X620049Y575556D01*
X619940Y575565D01*
X619831Y575579D01*
X619723Y575596D01*
X619615Y575617D01*
X619509Y575641D01*
X619403Y575670D01*
X619298Y575702D01*
X619195Y575737D01*
X619092Y575776D01*
X618991Y575819D01*
X618892Y575866D01*
X618892Y575865D02*
X618842Y575885D01*
X618793Y575907D01*
X618745Y575933D01*
X618700Y575962D01*
X618657Y575995D01*
X618616Y576030D01*
X618577Y576068D01*
X618542Y576108D01*
X618509Y576151D01*
X618479Y576196D01*
X618452Y576243D01*
X618429Y576291D01*
X618409Y576341D01*
X618393Y576393D01*
X618380Y576445D01*
X618370Y576498D01*
X618365Y576552D01*
X618363Y576606D01*
X618892Y577347D02*
X618991Y577394D01*
X619092Y577437D01*
X619195Y577476D01*
X619298Y577511D01*
X619403Y577543D01*
X619509Y577572D01*
X619615Y577596D01*
X619723Y577617D01*
X619831Y577634D01*
X619940Y577648D01*
X620049Y577657D01*
X620158Y577663D01*
X620268Y577665D01*
X618892Y577347D02*
X618842Y577327D01*
X618793Y577305D01*
X618745Y577279D01*
X618700Y577250D01*
X618657Y577217D01*
X618616Y577182D01*
X618577Y577144D01*
X618542Y577104D01*
X618509Y577061D01*
X618479Y577016D01*
X618452Y576969D01*
X618429Y576921D01*
X618409Y576871D01*
X618393Y576819D01*
X618380Y576767D01*
X618370Y576714D01*
X618365Y576660D01*
X618363Y576606D01*
X619210Y575760D02*
X621326Y577453D01*
X380026Y555117D02*
X379180Y555117D01*
X380026Y555117D02*
X380081Y555119D01*
X380137Y555124D01*
X380191Y555133D01*
X380245Y555146D01*
X380298Y555162D01*
X380350Y555181D01*
X380401Y555204D01*
X380450Y555230D01*
X380497Y555260D01*
X380542Y555292D01*
X380584Y555327D01*
X380625Y555365D01*
X380663Y555406D01*
X380698Y555448D01*
X380730Y555493D01*
X380760Y555541D01*
X380786Y555589D01*
X380809Y555640D01*
X380828Y555692D01*
X380844Y555745D01*
X380857Y555799D01*
X380866Y555853D01*
X380871Y555909D01*
X380873Y555964D01*
X380873Y558080D01*
X380871Y558138D01*
X380865Y558195D01*
X380855Y558252D01*
X380842Y558309D01*
X380824Y558364D01*
X380803Y558417D01*
X380778Y558470D01*
X380750Y558520D01*
X380718Y558568D01*
X380683Y558615D01*
X380645Y558658D01*
X380604Y558699D01*
X380561Y558737D01*
X380514Y558772D01*
X380466Y558804D01*
X380416Y558832D01*
X380363Y558857D01*
X380310Y558878D01*
X380255Y558896D01*
X380198Y558909D01*
X380141Y558919D01*
X380084Y558925D01*
X380026Y558927D01*
X379180Y558927D01*
X377816Y558080D02*
X376757Y558927D01*
X376757Y555117D01*
X375699Y555117D02*
X377816Y555117D01*
X372994Y558928D02*
X372934Y558926D01*
X372875Y558920D01*
X372815Y558911D01*
X372757Y558898D01*
X372700Y558881D01*
X372643Y558861D01*
X372588Y558837D01*
X372535Y558810D01*
X372483Y558780D01*
X372434Y558746D01*
X372387Y558709D01*
X372342Y558670D01*
X372299Y558627D01*
X372260Y558582D01*
X372223Y558535D01*
X372189Y558486D01*
X372159Y558434D01*
X372132Y558381D01*
X372108Y558326D01*
X372088Y558269D01*
X372071Y558212D01*
X372058Y558154D01*
X372049Y558094D01*
X372043Y558035D01*
X372041Y557975D01*
X372994Y558927D02*
X373061Y558925D01*
X373128Y558920D01*
X373194Y558911D01*
X373260Y558898D01*
X373324Y558882D01*
X373388Y558862D01*
X373451Y558838D01*
X373513Y558812D01*
X373572Y558782D01*
X373630Y558749D01*
X373687Y558712D01*
X373741Y558673D01*
X373793Y558631D01*
X373842Y558586D01*
X373889Y558538D01*
X373933Y558488D01*
X373975Y558435D01*
X374013Y558380D01*
X374049Y558324D01*
X374081Y558265D01*
X374110Y558205D01*
X374136Y558143D01*
X374158Y558080D01*
X372358Y557234D02*
X372317Y557276D01*
X372278Y557321D01*
X372241Y557367D01*
X372207Y557416D01*
X372176Y557466D01*
X372149Y557518D01*
X372124Y557572D01*
X372102Y557627D01*
X372083Y557683D01*
X372068Y557740D01*
X372056Y557798D01*
X372048Y557857D01*
X372043Y557916D01*
X372041Y557975D01*
X372359Y557234D02*
X374158Y555117D01*
X372041Y555117D01*
X66590Y535940D02*
X65744Y535940D01*
X66590Y535940D02*
X66645Y535942D01*
X66701Y535947D01*
X66755Y535956D01*
X66809Y535969D01*
X66862Y535985D01*
X66914Y536004D01*
X66965Y536027D01*
X67014Y536053D01*
X67061Y536083D01*
X67106Y536115D01*
X67148Y536150D01*
X67189Y536188D01*
X67227Y536229D01*
X67262Y536271D01*
X67294Y536316D01*
X67324Y536364D01*
X67350Y536412D01*
X67373Y536463D01*
X67392Y536515D01*
X67408Y536568D01*
X67421Y536622D01*
X67430Y536676D01*
X67435Y536732D01*
X67437Y536787D01*
X67437Y538903D01*
X67435Y538961D01*
X67429Y539018D01*
X67419Y539075D01*
X67406Y539132D01*
X67388Y539187D01*
X67367Y539240D01*
X67342Y539293D01*
X67314Y539343D01*
X67282Y539391D01*
X67247Y539438D01*
X67209Y539481D01*
X67168Y539522D01*
X67125Y539560D01*
X67078Y539595D01*
X67030Y539627D01*
X66980Y539655D01*
X66927Y539680D01*
X66874Y539701D01*
X66819Y539719D01*
X66762Y539732D01*
X66705Y539742D01*
X66648Y539748D01*
X66590Y539750D01*
X65744Y539750D01*
X63215Y539751D02*
X63155Y539749D01*
X63096Y539743D01*
X63036Y539734D01*
X62978Y539721D01*
X62921Y539704D01*
X62864Y539684D01*
X62809Y539660D01*
X62756Y539633D01*
X62704Y539603D01*
X62655Y539569D01*
X62608Y539532D01*
X62563Y539493D01*
X62520Y539450D01*
X62481Y539405D01*
X62444Y539358D01*
X62410Y539309D01*
X62380Y539257D01*
X62353Y539204D01*
X62329Y539149D01*
X62309Y539092D01*
X62292Y539035D01*
X62279Y538977D01*
X62270Y538917D01*
X62264Y538858D01*
X62262Y538798D01*
X63215Y539750D02*
X63282Y539748D01*
X63349Y539743D01*
X63415Y539734D01*
X63481Y539721D01*
X63545Y539705D01*
X63609Y539685D01*
X63672Y539661D01*
X63734Y539635D01*
X63793Y539605D01*
X63851Y539572D01*
X63908Y539535D01*
X63962Y539496D01*
X64014Y539454D01*
X64063Y539409D01*
X64110Y539361D01*
X64154Y539311D01*
X64196Y539258D01*
X64234Y539203D01*
X64270Y539147D01*
X64302Y539088D01*
X64331Y539028D01*
X64357Y538966D01*
X64379Y538903D01*
X62580Y538057D02*
X62539Y538099D01*
X62500Y538144D01*
X62463Y538190D01*
X62429Y538239D01*
X62398Y538289D01*
X62371Y538341D01*
X62346Y538395D01*
X62324Y538450D01*
X62305Y538506D01*
X62290Y538563D01*
X62278Y538621D01*
X62270Y538680D01*
X62265Y538739D01*
X62263Y538798D01*
X62580Y538057D02*
X64380Y535940D01*
X62263Y535940D01*
X58605Y538798D02*
X58607Y538858D01*
X58613Y538917D01*
X58622Y538977D01*
X58635Y539035D01*
X58652Y539092D01*
X58672Y539149D01*
X58696Y539204D01*
X58723Y539257D01*
X58753Y539309D01*
X58787Y539358D01*
X58824Y539405D01*
X58863Y539450D01*
X58906Y539493D01*
X58951Y539532D01*
X58998Y539569D01*
X59047Y539603D01*
X59099Y539633D01*
X59152Y539660D01*
X59207Y539684D01*
X59264Y539704D01*
X59321Y539721D01*
X59379Y539734D01*
X59439Y539743D01*
X59498Y539749D01*
X59558Y539751D01*
X59558Y539750D02*
X59625Y539748D01*
X59692Y539743D01*
X59758Y539734D01*
X59824Y539721D01*
X59888Y539705D01*
X59952Y539685D01*
X60015Y539661D01*
X60077Y539635D01*
X60136Y539605D01*
X60194Y539572D01*
X60251Y539535D01*
X60305Y539496D01*
X60357Y539454D01*
X60406Y539409D01*
X60453Y539361D01*
X60497Y539311D01*
X60539Y539258D01*
X60577Y539203D01*
X60613Y539147D01*
X60645Y539088D01*
X60674Y539028D01*
X60700Y538966D01*
X60722Y538903D01*
X58922Y538057D02*
X58881Y538099D01*
X58842Y538144D01*
X58805Y538190D01*
X58771Y538239D01*
X58740Y538289D01*
X58713Y538341D01*
X58688Y538395D01*
X58666Y538450D01*
X58647Y538506D01*
X58632Y538563D01*
X58620Y538621D01*
X58612Y538680D01*
X58607Y538739D01*
X58605Y538798D01*
X58923Y538057D02*
X60722Y535940D01*
X58605Y535940D01*
X29125Y201295D02*
X28279Y201295D01*
X29125Y201295D02*
X29180Y201297D01*
X29236Y201302D01*
X29290Y201311D01*
X29344Y201324D01*
X29397Y201340D01*
X29449Y201359D01*
X29500Y201382D01*
X29549Y201408D01*
X29596Y201438D01*
X29641Y201470D01*
X29683Y201505D01*
X29724Y201543D01*
X29762Y201584D01*
X29797Y201626D01*
X29829Y201671D01*
X29859Y201719D01*
X29885Y201767D01*
X29908Y201818D01*
X29927Y201870D01*
X29943Y201923D01*
X29956Y201977D01*
X29965Y202031D01*
X29970Y202087D01*
X29972Y202142D01*
X29972Y204258D01*
X29970Y204316D01*
X29964Y204373D01*
X29954Y204430D01*
X29941Y204487D01*
X29923Y204542D01*
X29902Y204595D01*
X29877Y204648D01*
X29849Y204698D01*
X29817Y204746D01*
X29782Y204793D01*
X29744Y204836D01*
X29703Y204877D01*
X29660Y204915D01*
X29613Y204950D01*
X29565Y204982D01*
X29515Y205010D01*
X29462Y205035D01*
X29409Y205056D01*
X29354Y205074D01*
X29297Y205087D01*
X29240Y205097D01*
X29183Y205103D01*
X29125Y205105D01*
X28279Y205105D01*
X25750Y205106D02*
X25690Y205104D01*
X25631Y205098D01*
X25571Y205089D01*
X25513Y205076D01*
X25456Y205059D01*
X25399Y205039D01*
X25344Y205015D01*
X25291Y204988D01*
X25239Y204958D01*
X25190Y204924D01*
X25143Y204887D01*
X25098Y204848D01*
X25055Y204805D01*
X25016Y204760D01*
X24979Y204713D01*
X24945Y204664D01*
X24915Y204612D01*
X24888Y204559D01*
X24864Y204504D01*
X24844Y204447D01*
X24827Y204390D01*
X24814Y204332D01*
X24805Y204272D01*
X24799Y204213D01*
X24797Y204153D01*
X25750Y205105D02*
X25817Y205103D01*
X25884Y205098D01*
X25950Y205089D01*
X26016Y205076D01*
X26080Y205060D01*
X26144Y205040D01*
X26207Y205016D01*
X26269Y204990D01*
X26328Y204960D01*
X26386Y204927D01*
X26443Y204890D01*
X26497Y204851D01*
X26549Y204809D01*
X26598Y204764D01*
X26645Y204716D01*
X26689Y204666D01*
X26731Y204613D01*
X26769Y204558D01*
X26805Y204502D01*
X26837Y204443D01*
X26866Y204383D01*
X26892Y204321D01*
X26914Y204258D01*
X25115Y203412D02*
X25074Y203454D01*
X25035Y203499D01*
X24998Y203545D01*
X24964Y203594D01*
X24933Y203644D01*
X24906Y203696D01*
X24881Y203750D01*
X24859Y203805D01*
X24840Y203861D01*
X24825Y203918D01*
X24813Y203976D01*
X24805Y204035D01*
X24800Y204094D01*
X24798Y204153D01*
X25115Y203412D02*
X26915Y201295D01*
X24798Y201295D01*
X23257Y201295D02*
X22199Y201295D01*
X22135Y201297D01*
X22071Y201303D01*
X22008Y201312D01*
X21946Y201326D01*
X21884Y201343D01*
X21824Y201364D01*
X21765Y201388D01*
X21707Y201416D01*
X21652Y201448D01*
X21598Y201482D01*
X21547Y201520D01*
X21497Y201561D01*
X21451Y201605D01*
X21407Y201651D01*
X21366Y201701D01*
X21328Y201752D01*
X21294Y201806D01*
X21262Y201861D01*
X21234Y201919D01*
X21210Y201978D01*
X21189Y202038D01*
X21172Y202100D01*
X21158Y202162D01*
X21149Y202225D01*
X21143Y202289D01*
X21141Y202353D01*
X21143Y202417D01*
X21149Y202481D01*
X21158Y202544D01*
X21172Y202606D01*
X21189Y202668D01*
X21210Y202728D01*
X21234Y202787D01*
X21262Y202845D01*
X21294Y202900D01*
X21328Y202954D01*
X21366Y203005D01*
X21407Y203055D01*
X21451Y203101D01*
X21497Y203145D01*
X21547Y203186D01*
X21598Y203224D01*
X21652Y203258D01*
X21707Y203290D01*
X21765Y203318D01*
X21824Y203342D01*
X21884Y203363D01*
X21946Y203380D01*
X22008Y203394D01*
X22071Y203403D01*
X22135Y203409D01*
X22199Y203411D01*
X21987Y205105D02*
X23257Y205105D01*
X21987Y205105D02*
X21930Y205103D01*
X21874Y205097D01*
X21818Y205088D01*
X21763Y205075D01*
X21709Y205058D01*
X21656Y205038D01*
X21605Y205014D01*
X21555Y204987D01*
X21508Y204956D01*
X21462Y204923D01*
X21419Y204886D01*
X21378Y204847D01*
X21340Y204805D01*
X21305Y204760D01*
X21273Y204714D01*
X21244Y204665D01*
X21219Y204615D01*
X21197Y204562D01*
X21178Y204509D01*
X21163Y204454D01*
X21152Y204399D01*
X21144Y204343D01*
X21140Y204286D01*
X21140Y204230D01*
X21144Y204173D01*
X21152Y204117D01*
X21163Y204062D01*
X21178Y204007D01*
X21197Y203954D01*
X21219Y203901D01*
X21244Y203851D01*
X21273Y203802D01*
X21305Y203756D01*
X21340Y203711D01*
X21378Y203669D01*
X21419Y203630D01*
X21462Y203593D01*
X21508Y203560D01*
X21555Y203529D01*
X21605Y203502D01*
X21656Y203478D01*
X21709Y203458D01*
X21763Y203441D01*
X21818Y203428D01*
X21874Y203419D01*
X21930Y203413D01*
X21987Y203411D01*
X21987Y203412D02*
X22834Y203412D01*
X181382Y434721D02*
X182229Y434721D01*
X182284Y434723D01*
X182340Y434728D01*
X182394Y434737D01*
X182448Y434750D01*
X182501Y434766D01*
X182553Y434785D01*
X182604Y434808D01*
X182653Y434834D01*
X182700Y434864D01*
X182745Y434896D01*
X182787Y434931D01*
X182828Y434969D01*
X182866Y435010D01*
X182901Y435052D01*
X182933Y435097D01*
X182963Y435145D01*
X182989Y435193D01*
X183012Y435244D01*
X183031Y435296D01*
X183047Y435349D01*
X183060Y435403D01*
X183069Y435457D01*
X183074Y435513D01*
X183076Y435568D01*
X183076Y437684D01*
X183074Y437742D01*
X183068Y437799D01*
X183058Y437856D01*
X183045Y437913D01*
X183027Y437968D01*
X183006Y438021D01*
X182981Y438074D01*
X182953Y438124D01*
X182921Y438172D01*
X182886Y438219D01*
X182848Y438262D01*
X182807Y438303D01*
X182764Y438341D01*
X182717Y438376D01*
X182669Y438408D01*
X182619Y438436D01*
X182566Y438461D01*
X182513Y438482D01*
X182458Y438500D01*
X182401Y438513D01*
X182344Y438523D01*
X182287Y438529D01*
X182229Y438531D01*
X181382Y438531D01*
X178854Y438532D02*
X178794Y438530D01*
X178735Y438524D01*
X178675Y438515D01*
X178617Y438502D01*
X178560Y438485D01*
X178503Y438465D01*
X178448Y438441D01*
X178395Y438414D01*
X178343Y438384D01*
X178294Y438350D01*
X178247Y438313D01*
X178202Y438274D01*
X178159Y438231D01*
X178120Y438186D01*
X178083Y438139D01*
X178049Y438090D01*
X178019Y438038D01*
X177992Y437985D01*
X177968Y437930D01*
X177948Y437873D01*
X177931Y437816D01*
X177918Y437758D01*
X177909Y437698D01*
X177903Y437639D01*
X177901Y437579D01*
X178854Y438531D02*
X178921Y438529D01*
X178988Y438524D01*
X179054Y438515D01*
X179120Y438502D01*
X179184Y438486D01*
X179248Y438466D01*
X179311Y438442D01*
X179373Y438416D01*
X179432Y438386D01*
X179490Y438353D01*
X179547Y438316D01*
X179601Y438277D01*
X179653Y438235D01*
X179702Y438190D01*
X179749Y438142D01*
X179793Y438092D01*
X179835Y438039D01*
X179873Y437984D01*
X179909Y437928D01*
X179941Y437869D01*
X179970Y437809D01*
X179996Y437747D01*
X180018Y437684D01*
X178219Y436838D02*
X178178Y436880D01*
X178139Y436925D01*
X178102Y436971D01*
X178068Y437020D01*
X178037Y437070D01*
X178010Y437122D01*
X177985Y437176D01*
X177963Y437231D01*
X177944Y437287D01*
X177929Y437344D01*
X177917Y437402D01*
X177909Y437461D01*
X177904Y437520D01*
X177902Y437579D01*
X178219Y436838D02*
X180018Y434721D01*
X177902Y434721D01*
X176361Y435568D02*
X175514Y438531D01*
X176361Y435568D02*
X174244Y435568D01*
X174879Y436414D02*
X174879Y434721D01*
X105325Y99822D02*
X104479Y99822D01*
X105325Y99822D02*
X105380Y99824D01*
X105436Y99829D01*
X105490Y99838D01*
X105544Y99851D01*
X105597Y99867D01*
X105649Y99886D01*
X105700Y99909D01*
X105749Y99935D01*
X105796Y99965D01*
X105841Y99997D01*
X105883Y100032D01*
X105924Y100070D01*
X105962Y100111D01*
X105997Y100153D01*
X106029Y100198D01*
X106059Y100246D01*
X106085Y100294D01*
X106108Y100345D01*
X106127Y100397D01*
X106143Y100450D01*
X106156Y100504D01*
X106165Y100558D01*
X106170Y100614D01*
X106172Y100669D01*
X106172Y102785D01*
X106170Y102843D01*
X106164Y102900D01*
X106154Y102957D01*
X106141Y103014D01*
X106123Y103069D01*
X106102Y103122D01*
X106077Y103175D01*
X106049Y103225D01*
X106017Y103273D01*
X105982Y103320D01*
X105944Y103363D01*
X105903Y103404D01*
X105860Y103442D01*
X105813Y103477D01*
X105765Y103509D01*
X105715Y103537D01*
X105662Y103562D01*
X105609Y103583D01*
X105554Y103601D01*
X105497Y103614D01*
X105440Y103624D01*
X105383Y103630D01*
X105325Y103632D01*
X104479Y103632D01*
X101950Y103633D02*
X101890Y103631D01*
X101831Y103625D01*
X101771Y103616D01*
X101713Y103603D01*
X101656Y103586D01*
X101599Y103566D01*
X101544Y103542D01*
X101491Y103515D01*
X101439Y103485D01*
X101390Y103451D01*
X101343Y103414D01*
X101298Y103375D01*
X101255Y103332D01*
X101216Y103287D01*
X101179Y103240D01*
X101145Y103191D01*
X101115Y103139D01*
X101088Y103086D01*
X101064Y103031D01*
X101044Y102974D01*
X101027Y102917D01*
X101014Y102859D01*
X101005Y102799D01*
X100999Y102740D01*
X100997Y102680D01*
X101950Y103632D02*
X102017Y103630D01*
X102084Y103625D01*
X102150Y103616D01*
X102216Y103603D01*
X102280Y103587D01*
X102344Y103567D01*
X102407Y103543D01*
X102469Y103517D01*
X102528Y103487D01*
X102586Y103454D01*
X102643Y103417D01*
X102697Y103378D01*
X102749Y103336D01*
X102798Y103291D01*
X102845Y103243D01*
X102889Y103193D01*
X102931Y103140D01*
X102969Y103085D01*
X103005Y103029D01*
X103037Y102970D01*
X103066Y102910D01*
X103092Y102848D01*
X103114Y102785D01*
X101315Y101939D02*
X101274Y101981D01*
X101235Y102026D01*
X101198Y102072D01*
X101164Y102121D01*
X101133Y102171D01*
X101106Y102223D01*
X101081Y102277D01*
X101059Y102332D01*
X101040Y102388D01*
X101025Y102445D01*
X101013Y102503D01*
X101005Y102562D01*
X101000Y102621D01*
X100998Y102680D01*
X101315Y101939D02*
X103115Y99822D01*
X100998Y99822D01*
X99457Y99822D02*
X98187Y99822D01*
X98132Y99824D01*
X98076Y99829D01*
X98022Y99838D01*
X97968Y99851D01*
X97915Y99867D01*
X97863Y99886D01*
X97812Y99909D01*
X97764Y99935D01*
X97716Y99965D01*
X97671Y99997D01*
X97629Y100032D01*
X97588Y100070D01*
X97550Y100111D01*
X97515Y100153D01*
X97483Y100198D01*
X97453Y100246D01*
X97427Y100294D01*
X97404Y100345D01*
X97385Y100397D01*
X97369Y100450D01*
X97356Y100504D01*
X97347Y100558D01*
X97342Y100614D01*
X97340Y100669D01*
X97340Y101092D01*
X97342Y101147D01*
X97347Y101203D01*
X97356Y101257D01*
X97369Y101311D01*
X97385Y101364D01*
X97404Y101416D01*
X97427Y101467D01*
X97453Y101516D01*
X97483Y101563D01*
X97515Y101608D01*
X97550Y101650D01*
X97588Y101691D01*
X97629Y101729D01*
X97671Y101764D01*
X97716Y101796D01*
X97764Y101826D01*
X97812Y101852D01*
X97863Y101875D01*
X97915Y101894D01*
X97968Y101910D01*
X98022Y101923D01*
X98076Y101932D01*
X98132Y101937D01*
X98187Y101939D01*
X99457Y101939D01*
X99457Y103632D01*
X97340Y103632D01*
X37338Y341138D02*
X37338Y341985D01*
X37338Y341138D02*
X37340Y341083D01*
X37345Y341027D01*
X37354Y340973D01*
X37367Y340919D01*
X37383Y340866D01*
X37402Y340814D01*
X37425Y340763D01*
X37451Y340715D01*
X37481Y340667D01*
X37513Y340622D01*
X37548Y340580D01*
X37586Y340539D01*
X37627Y340501D01*
X37669Y340466D01*
X37714Y340434D01*
X37762Y340404D01*
X37810Y340378D01*
X37861Y340355D01*
X37913Y340336D01*
X37966Y340320D01*
X38020Y340307D01*
X38074Y340298D01*
X38130Y340293D01*
X38185Y340291D01*
X40301Y340291D01*
X40359Y340293D01*
X40416Y340299D01*
X40473Y340309D01*
X40530Y340322D01*
X40585Y340340D01*
X40638Y340361D01*
X40691Y340386D01*
X40741Y340414D01*
X40789Y340446D01*
X40836Y340481D01*
X40879Y340519D01*
X40920Y340560D01*
X40958Y340603D01*
X40993Y340650D01*
X41025Y340698D01*
X41053Y340748D01*
X41078Y340801D01*
X41099Y340854D01*
X41117Y340909D01*
X41130Y340966D01*
X41140Y341023D01*
X41146Y341080D01*
X41148Y341138D01*
X41148Y341985D01*
X41149Y344513D02*
X41147Y344573D01*
X41141Y344632D01*
X41132Y344692D01*
X41119Y344750D01*
X41102Y344807D01*
X41082Y344864D01*
X41058Y344919D01*
X41031Y344972D01*
X41001Y345024D01*
X40967Y345073D01*
X40930Y345120D01*
X40891Y345165D01*
X40848Y345208D01*
X40803Y345247D01*
X40756Y345284D01*
X40707Y345318D01*
X40655Y345348D01*
X40602Y345375D01*
X40547Y345399D01*
X40490Y345419D01*
X40433Y345436D01*
X40375Y345449D01*
X40315Y345458D01*
X40256Y345464D01*
X40196Y345466D01*
X41148Y344513D02*
X41146Y344446D01*
X41141Y344379D01*
X41132Y344313D01*
X41119Y344247D01*
X41103Y344183D01*
X41083Y344119D01*
X41059Y344056D01*
X41033Y343994D01*
X41003Y343935D01*
X40970Y343877D01*
X40933Y343820D01*
X40894Y343766D01*
X40852Y343714D01*
X40807Y343665D01*
X40759Y343618D01*
X40709Y343574D01*
X40656Y343532D01*
X40601Y343494D01*
X40545Y343458D01*
X40486Y343426D01*
X40426Y343397D01*
X40364Y343371D01*
X40301Y343349D01*
X39455Y345148D02*
X39497Y345189D01*
X39542Y345228D01*
X39588Y345265D01*
X39637Y345299D01*
X39687Y345330D01*
X39739Y345357D01*
X39793Y345382D01*
X39848Y345404D01*
X39904Y345423D01*
X39961Y345438D01*
X40019Y345450D01*
X40078Y345458D01*
X40137Y345463D01*
X40196Y345465D01*
X39455Y345148D02*
X37338Y343349D01*
X37338Y345465D01*
X39455Y347006D02*
X39455Y348276D01*
X39453Y348331D01*
X39448Y348387D01*
X39439Y348441D01*
X39426Y348495D01*
X39410Y348548D01*
X39391Y348600D01*
X39368Y348651D01*
X39342Y348700D01*
X39312Y348747D01*
X39280Y348792D01*
X39245Y348834D01*
X39207Y348875D01*
X39166Y348913D01*
X39124Y348948D01*
X39079Y348980D01*
X39032Y349010D01*
X38983Y349036D01*
X38932Y349059D01*
X38880Y349078D01*
X38827Y349094D01*
X38773Y349107D01*
X38719Y349116D01*
X38663Y349121D01*
X38608Y349123D01*
X38396Y349123D01*
X38332Y349121D01*
X38268Y349115D01*
X38205Y349106D01*
X38143Y349092D01*
X38081Y349075D01*
X38021Y349054D01*
X37962Y349030D01*
X37904Y349002D01*
X37849Y348970D01*
X37795Y348936D01*
X37744Y348898D01*
X37694Y348857D01*
X37648Y348813D01*
X37604Y348767D01*
X37563Y348717D01*
X37525Y348666D01*
X37491Y348612D01*
X37459Y348557D01*
X37431Y348499D01*
X37407Y348440D01*
X37386Y348380D01*
X37369Y348318D01*
X37355Y348256D01*
X37346Y348193D01*
X37340Y348129D01*
X37338Y348065D01*
X37340Y348001D01*
X37346Y347937D01*
X37355Y347874D01*
X37369Y347812D01*
X37386Y347750D01*
X37407Y347690D01*
X37431Y347631D01*
X37459Y347573D01*
X37491Y347518D01*
X37525Y347464D01*
X37563Y347413D01*
X37604Y347363D01*
X37648Y347317D01*
X37694Y347273D01*
X37744Y347232D01*
X37795Y347194D01*
X37849Y347160D01*
X37904Y347128D01*
X37962Y347100D01*
X38021Y347076D01*
X38081Y347055D01*
X38143Y347038D01*
X38205Y347024D01*
X38268Y347015D01*
X38332Y347009D01*
X38396Y347007D01*
X38396Y347006D02*
X39455Y347006D01*
X39455Y347007D02*
X39536Y347009D01*
X39616Y347015D01*
X39696Y347024D01*
X39775Y347038D01*
X39854Y347055D01*
X39932Y347076D01*
X40009Y347100D01*
X40084Y347128D01*
X40158Y347160D01*
X40231Y347195D01*
X40301Y347234D01*
X40370Y347276D01*
X40437Y347321D01*
X40502Y347369D01*
X40564Y347421D01*
X40623Y347475D01*
X40680Y347532D01*
X40734Y347591D01*
X40786Y347653D01*
X40834Y347718D01*
X40879Y347785D01*
X40921Y347853D01*
X40960Y347924D01*
X40995Y347997D01*
X41027Y348071D01*
X41055Y348146D01*
X41079Y348223D01*
X41100Y348301D01*
X41117Y348380D01*
X41131Y348459D01*
X41140Y348539D01*
X41146Y348619D01*
X41148Y348700D01*
X297053Y725059D02*
X297053Y725906D01*
X297053Y725059D02*
X297055Y725004D01*
X297060Y724948D01*
X297069Y724894D01*
X297082Y724840D01*
X297098Y724787D01*
X297117Y724735D01*
X297140Y724684D01*
X297166Y724636D01*
X297196Y724588D01*
X297228Y724543D01*
X297263Y724501D01*
X297301Y724460D01*
X297342Y724422D01*
X297384Y724387D01*
X297429Y724355D01*
X297477Y724325D01*
X297525Y724299D01*
X297576Y724276D01*
X297628Y724257D01*
X297681Y724241D01*
X297735Y724228D01*
X297789Y724219D01*
X297845Y724214D01*
X297900Y724212D01*
X300016Y724212D01*
X300074Y724214D01*
X300131Y724220D01*
X300188Y724230D01*
X300245Y724243D01*
X300300Y724261D01*
X300353Y724282D01*
X300406Y724307D01*
X300456Y724335D01*
X300504Y724367D01*
X300551Y724402D01*
X300594Y724440D01*
X300635Y724481D01*
X300673Y724524D01*
X300708Y724571D01*
X300740Y724619D01*
X300768Y724669D01*
X300793Y724722D01*
X300814Y724775D01*
X300832Y724830D01*
X300845Y724887D01*
X300855Y724944D01*
X300861Y725001D01*
X300863Y725059D01*
X300863Y725906D01*
X297053Y727270D02*
X297053Y728328D01*
X297055Y728392D01*
X297061Y728456D01*
X297070Y728519D01*
X297084Y728581D01*
X297101Y728643D01*
X297122Y728703D01*
X297146Y728762D01*
X297174Y728820D01*
X297206Y728875D01*
X297240Y728929D01*
X297278Y728980D01*
X297319Y729030D01*
X297363Y729076D01*
X297409Y729120D01*
X297459Y729161D01*
X297510Y729199D01*
X297564Y729233D01*
X297619Y729265D01*
X297677Y729293D01*
X297736Y729317D01*
X297796Y729338D01*
X297858Y729355D01*
X297920Y729369D01*
X297983Y729378D01*
X298047Y729384D01*
X298111Y729386D01*
X298175Y729384D01*
X298239Y729378D01*
X298302Y729369D01*
X298364Y729355D01*
X298426Y729338D01*
X298486Y729317D01*
X298545Y729293D01*
X298603Y729265D01*
X298658Y729233D01*
X298712Y729199D01*
X298763Y729161D01*
X298813Y729120D01*
X298859Y729076D01*
X298903Y729030D01*
X298944Y728980D01*
X298982Y728929D01*
X299016Y728875D01*
X299048Y728820D01*
X299076Y728762D01*
X299100Y728703D01*
X299121Y728643D01*
X299138Y728581D01*
X299152Y728519D01*
X299161Y728456D01*
X299167Y728392D01*
X299169Y728328D01*
X300863Y728540D02*
X300863Y727270D01*
X300863Y728540D02*
X300861Y728597D01*
X300855Y728653D01*
X300846Y728709D01*
X300833Y728764D01*
X300816Y728818D01*
X300796Y728871D01*
X300772Y728922D01*
X300745Y728972D01*
X300714Y729019D01*
X300681Y729065D01*
X300644Y729108D01*
X300605Y729149D01*
X300563Y729187D01*
X300518Y729222D01*
X300472Y729254D01*
X300423Y729283D01*
X300373Y729308D01*
X300320Y729330D01*
X300267Y729349D01*
X300212Y729364D01*
X300157Y729375D01*
X300101Y729383D01*
X300044Y729387D01*
X299988Y729387D01*
X299931Y729383D01*
X299875Y729375D01*
X299820Y729364D01*
X299765Y729349D01*
X299712Y729330D01*
X299659Y729308D01*
X299609Y729283D01*
X299560Y729254D01*
X299514Y729222D01*
X299469Y729187D01*
X299427Y729149D01*
X299388Y729108D01*
X299351Y729065D01*
X299318Y729019D01*
X299287Y728972D01*
X299260Y728922D01*
X299236Y728871D01*
X299216Y728818D01*
X299199Y728764D01*
X299186Y728709D01*
X299177Y728653D01*
X299171Y728597D01*
X299169Y728540D01*
X299170Y728540D02*
X299170Y727693D01*
X298958Y730927D02*
X299068Y730929D01*
X299177Y730935D01*
X299286Y730944D01*
X299395Y730958D01*
X299503Y730975D01*
X299611Y730996D01*
X299717Y731020D01*
X299823Y731049D01*
X299928Y731081D01*
X300032Y731116D01*
X300134Y731155D01*
X300235Y731198D01*
X300334Y731245D01*
X300384Y731265D01*
X300433Y731287D01*
X300481Y731313D01*
X300526Y731342D01*
X300569Y731375D01*
X300610Y731410D01*
X300649Y731448D01*
X300684Y731488D01*
X300717Y731531D01*
X300747Y731576D01*
X300774Y731623D01*
X300797Y731671D01*
X300817Y731721D01*
X300833Y731773D01*
X300846Y731825D01*
X300856Y731878D01*
X300861Y731932D01*
X300863Y731986D01*
X300861Y732040D01*
X300856Y732094D01*
X300846Y732147D01*
X300833Y732199D01*
X300817Y732251D01*
X300797Y732301D01*
X300774Y732349D01*
X300747Y732396D01*
X300717Y732441D01*
X300684Y732484D01*
X300649Y732524D01*
X300610Y732562D01*
X300569Y732597D01*
X300526Y732630D01*
X300481Y732659D01*
X300433Y732685D01*
X300384Y732707D01*
X300334Y732727D01*
X300334Y732726D02*
X300235Y732773D01*
X300134Y732816D01*
X300032Y732855D01*
X299928Y732890D01*
X299823Y732922D01*
X299717Y732951D01*
X299611Y732975D01*
X299503Y732996D01*
X299395Y733013D01*
X299286Y733027D01*
X299177Y733036D01*
X299068Y733042D01*
X298958Y733044D01*
X298958Y730927D02*
X298848Y730929D01*
X298739Y730935D01*
X298630Y730944D01*
X298521Y730958D01*
X298413Y730975D01*
X298305Y730996D01*
X298199Y731020D01*
X298093Y731049D01*
X297988Y731081D01*
X297885Y731116D01*
X297782Y731155D01*
X297681Y731198D01*
X297582Y731245D01*
X297532Y731265D01*
X297483Y731287D01*
X297435Y731313D01*
X297390Y731342D01*
X297347Y731375D01*
X297306Y731410D01*
X297267Y731448D01*
X297232Y731488D01*
X297199Y731531D01*
X297169Y731576D01*
X297142Y731623D01*
X297119Y731671D01*
X297099Y731721D01*
X297083Y731773D01*
X297070Y731825D01*
X297060Y731878D01*
X297055Y731932D01*
X297053Y731986D01*
X297582Y732726D02*
X297681Y732773D01*
X297782Y732816D01*
X297885Y732855D01*
X297988Y732890D01*
X298093Y732922D01*
X298199Y732951D01*
X298305Y732975D01*
X298413Y732996D01*
X298521Y733013D01*
X298630Y733027D01*
X298739Y733036D01*
X298848Y733042D01*
X298958Y733044D01*
X297582Y732727D02*
X297532Y732707D01*
X297483Y732685D01*
X297435Y732659D01*
X297390Y732630D01*
X297347Y732597D01*
X297306Y732562D01*
X297267Y732524D01*
X297232Y732484D01*
X297199Y732441D01*
X297169Y732396D01*
X297142Y732349D01*
X297119Y732301D01*
X297099Y732251D01*
X297083Y732199D01*
X297070Y732147D01*
X297060Y732094D01*
X297055Y732040D01*
X297053Y731986D01*
X297900Y731139D02*
X300016Y732832D01*
X333629Y750713D02*
X333629Y751560D01*
X333629Y750713D02*
X333631Y750658D01*
X333636Y750602D01*
X333645Y750548D01*
X333658Y750494D01*
X333674Y750441D01*
X333693Y750389D01*
X333716Y750338D01*
X333742Y750290D01*
X333772Y750242D01*
X333804Y750197D01*
X333839Y750155D01*
X333877Y750114D01*
X333918Y750076D01*
X333960Y750041D01*
X334005Y750009D01*
X334053Y749979D01*
X334101Y749953D01*
X334152Y749930D01*
X334204Y749911D01*
X334257Y749895D01*
X334311Y749882D01*
X334365Y749873D01*
X334421Y749868D01*
X334476Y749866D01*
X336592Y749866D01*
X336650Y749868D01*
X336707Y749874D01*
X336764Y749884D01*
X336821Y749897D01*
X336876Y749915D01*
X336929Y749936D01*
X336982Y749961D01*
X337032Y749989D01*
X337080Y750021D01*
X337127Y750056D01*
X337170Y750094D01*
X337211Y750135D01*
X337249Y750178D01*
X337284Y750225D01*
X337316Y750273D01*
X337344Y750323D01*
X337369Y750376D01*
X337390Y750429D01*
X337408Y750484D01*
X337421Y750541D01*
X337431Y750598D01*
X337437Y750655D01*
X337439Y750713D01*
X337439Y751560D01*
X333629Y752924D02*
X333629Y753982D01*
X333631Y754046D01*
X333637Y754110D01*
X333646Y754173D01*
X333660Y754235D01*
X333677Y754297D01*
X333698Y754357D01*
X333722Y754416D01*
X333750Y754474D01*
X333782Y754529D01*
X333816Y754583D01*
X333854Y754634D01*
X333895Y754684D01*
X333939Y754730D01*
X333985Y754774D01*
X334035Y754815D01*
X334086Y754853D01*
X334140Y754887D01*
X334195Y754919D01*
X334253Y754947D01*
X334312Y754971D01*
X334372Y754992D01*
X334434Y755009D01*
X334496Y755023D01*
X334559Y755032D01*
X334623Y755038D01*
X334687Y755040D01*
X334751Y755038D01*
X334815Y755032D01*
X334878Y755023D01*
X334940Y755009D01*
X335002Y754992D01*
X335062Y754971D01*
X335121Y754947D01*
X335179Y754919D01*
X335234Y754887D01*
X335288Y754853D01*
X335339Y754815D01*
X335389Y754774D01*
X335435Y754730D01*
X335479Y754684D01*
X335520Y754634D01*
X335558Y754583D01*
X335592Y754529D01*
X335624Y754474D01*
X335652Y754416D01*
X335676Y754357D01*
X335697Y754297D01*
X335714Y754235D01*
X335728Y754173D01*
X335737Y754110D01*
X335743Y754046D01*
X335745Y753982D01*
X337439Y754194D02*
X337439Y752924D01*
X337439Y754194D02*
X337437Y754251D01*
X337431Y754307D01*
X337422Y754363D01*
X337409Y754418D01*
X337392Y754472D01*
X337372Y754525D01*
X337348Y754576D01*
X337321Y754626D01*
X337290Y754673D01*
X337257Y754719D01*
X337220Y754762D01*
X337181Y754803D01*
X337139Y754841D01*
X337094Y754876D01*
X337048Y754908D01*
X336999Y754937D01*
X336949Y754962D01*
X336896Y754984D01*
X336843Y755003D01*
X336788Y755018D01*
X336733Y755029D01*
X336677Y755037D01*
X336620Y755041D01*
X336564Y755041D01*
X336507Y755037D01*
X336451Y755029D01*
X336396Y755018D01*
X336341Y755003D01*
X336288Y754984D01*
X336235Y754962D01*
X336185Y754937D01*
X336136Y754908D01*
X336090Y754876D01*
X336045Y754841D01*
X336003Y754803D01*
X335964Y754762D01*
X335927Y754719D01*
X335894Y754673D01*
X335863Y754626D01*
X335836Y754576D01*
X335812Y754525D01*
X335792Y754472D01*
X335775Y754418D01*
X335762Y754363D01*
X335753Y754307D01*
X335747Y754251D01*
X335745Y754194D01*
X335746Y754194D02*
X335746Y753347D01*
X336592Y756581D02*
X337439Y757640D01*
X333629Y757640D01*
X333629Y758698D02*
X333629Y756581D01*
X356896Y707898D02*
X357743Y707898D01*
X357798Y707900D01*
X357854Y707905D01*
X357908Y707914D01*
X357962Y707927D01*
X358015Y707943D01*
X358067Y707962D01*
X358118Y707985D01*
X358167Y708011D01*
X358214Y708041D01*
X358259Y708073D01*
X358301Y708108D01*
X358342Y708146D01*
X358380Y708187D01*
X358415Y708229D01*
X358447Y708274D01*
X358477Y708322D01*
X358503Y708370D01*
X358526Y708421D01*
X358545Y708473D01*
X358561Y708526D01*
X358574Y708580D01*
X358583Y708634D01*
X358588Y708690D01*
X358590Y708745D01*
X358590Y710861D01*
X358588Y710919D01*
X358582Y710976D01*
X358572Y711033D01*
X358559Y711090D01*
X358541Y711145D01*
X358520Y711198D01*
X358495Y711251D01*
X358467Y711301D01*
X358435Y711349D01*
X358400Y711396D01*
X358362Y711439D01*
X358321Y711480D01*
X358278Y711518D01*
X358231Y711553D01*
X358183Y711585D01*
X358133Y711613D01*
X358080Y711638D01*
X358027Y711659D01*
X357972Y711677D01*
X357915Y711690D01*
X357858Y711700D01*
X357801Y711706D01*
X357743Y711708D01*
X356896Y711708D01*
X355532Y707898D02*
X354474Y707898D01*
X354410Y707900D01*
X354346Y707906D01*
X354283Y707915D01*
X354221Y707929D01*
X354159Y707946D01*
X354099Y707967D01*
X354040Y707991D01*
X353982Y708019D01*
X353927Y708051D01*
X353873Y708085D01*
X353822Y708123D01*
X353772Y708164D01*
X353726Y708208D01*
X353682Y708254D01*
X353641Y708304D01*
X353603Y708355D01*
X353569Y708409D01*
X353537Y708464D01*
X353509Y708522D01*
X353485Y708581D01*
X353464Y708641D01*
X353447Y708703D01*
X353433Y708765D01*
X353424Y708828D01*
X353418Y708892D01*
X353416Y708956D01*
X353418Y709020D01*
X353424Y709084D01*
X353433Y709147D01*
X353447Y709209D01*
X353464Y709271D01*
X353485Y709331D01*
X353509Y709390D01*
X353537Y709448D01*
X353569Y709503D01*
X353603Y709557D01*
X353641Y709608D01*
X353682Y709658D01*
X353726Y709704D01*
X353772Y709748D01*
X353822Y709789D01*
X353873Y709827D01*
X353927Y709861D01*
X353982Y709893D01*
X354040Y709921D01*
X354099Y709945D01*
X354159Y709966D01*
X354221Y709983D01*
X354283Y709997D01*
X354346Y710006D01*
X354410Y710012D01*
X354474Y710014D01*
X354262Y711708D02*
X355532Y711708D01*
X354262Y711708D02*
X354205Y711706D01*
X354149Y711700D01*
X354093Y711691D01*
X354038Y711678D01*
X353984Y711661D01*
X353931Y711641D01*
X353880Y711617D01*
X353830Y711590D01*
X353783Y711559D01*
X353737Y711526D01*
X353694Y711489D01*
X353653Y711450D01*
X353615Y711408D01*
X353580Y711363D01*
X353548Y711317D01*
X353519Y711268D01*
X353494Y711218D01*
X353472Y711165D01*
X353453Y711112D01*
X353438Y711057D01*
X353427Y711002D01*
X353419Y710946D01*
X353415Y710889D01*
X353415Y710833D01*
X353419Y710776D01*
X353427Y710720D01*
X353438Y710665D01*
X353453Y710610D01*
X353472Y710557D01*
X353494Y710504D01*
X353519Y710454D01*
X353548Y710405D01*
X353580Y710359D01*
X353615Y710314D01*
X353653Y710272D01*
X353694Y710233D01*
X353737Y710196D01*
X353783Y710163D01*
X353830Y710132D01*
X353880Y710105D01*
X353931Y710081D01*
X353984Y710061D01*
X354038Y710044D01*
X354093Y710031D01*
X354149Y710022D01*
X354205Y710016D01*
X354262Y710014D01*
X354262Y710015D02*
X355109Y710015D01*
X350711Y711709D02*
X350651Y711707D01*
X350592Y711701D01*
X350532Y711692D01*
X350474Y711679D01*
X350417Y711662D01*
X350360Y711642D01*
X350305Y711618D01*
X350252Y711591D01*
X350200Y711561D01*
X350151Y711527D01*
X350104Y711490D01*
X350059Y711451D01*
X350016Y711408D01*
X349977Y711363D01*
X349940Y711316D01*
X349906Y711267D01*
X349876Y711215D01*
X349849Y711162D01*
X349825Y711107D01*
X349805Y711050D01*
X349788Y710993D01*
X349775Y710935D01*
X349766Y710875D01*
X349760Y710816D01*
X349758Y710756D01*
X350711Y711708D02*
X350778Y711706D01*
X350845Y711701D01*
X350911Y711692D01*
X350977Y711679D01*
X351041Y711663D01*
X351105Y711643D01*
X351168Y711619D01*
X351230Y711593D01*
X351289Y711563D01*
X351347Y711530D01*
X351404Y711493D01*
X351458Y711454D01*
X351510Y711412D01*
X351559Y711367D01*
X351606Y711319D01*
X351650Y711269D01*
X351692Y711216D01*
X351730Y711161D01*
X351766Y711105D01*
X351798Y711046D01*
X351827Y710986D01*
X351853Y710924D01*
X351875Y710861D01*
X350075Y710015D02*
X350034Y710057D01*
X349995Y710102D01*
X349958Y710148D01*
X349924Y710197D01*
X349893Y710247D01*
X349866Y710299D01*
X349841Y710353D01*
X349819Y710408D01*
X349800Y710464D01*
X349785Y710521D01*
X349773Y710579D01*
X349765Y710638D01*
X349760Y710697D01*
X349758Y710756D01*
X350076Y710015D02*
X351875Y707898D01*
X349758Y707898D01*
X357590Y628650D02*
X358436Y628650D01*
X358491Y628652D01*
X358547Y628657D01*
X358601Y628666D01*
X358655Y628679D01*
X358708Y628695D01*
X358760Y628714D01*
X358811Y628737D01*
X358860Y628763D01*
X358907Y628793D01*
X358952Y628825D01*
X358994Y628860D01*
X359035Y628898D01*
X359073Y628939D01*
X359108Y628981D01*
X359140Y629026D01*
X359170Y629074D01*
X359196Y629122D01*
X359219Y629173D01*
X359238Y629225D01*
X359254Y629278D01*
X359267Y629332D01*
X359276Y629386D01*
X359281Y629442D01*
X359283Y629497D01*
X359283Y631613D01*
X359281Y631671D01*
X359275Y631728D01*
X359265Y631785D01*
X359252Y631842D01*
X359234Y631897D01*
X359213Y631950D01*
X359188Y632003D01*
X359160Y632053D01*
X359128Y632101D01*
X359093Y632148D01*
X359055Y632191D01*
X359014Y632232D01*
X358971Y632270D01*
X358924Y632305D01*
X358876Y632337D01*
X358826Y632365D01*
X358773Y632390D01*
X358720Y632411D01*
X358665Y632429D01*
X358608Y632442D01*
X358551Y632452D01*
X358494Y632458D01*
X358436Y632460D01*
X357590Y632460D01*
X356226Y628650D02*
X355167Y628650D01*
X355103Y628652D01*
X355039Y628658D01*
X354976Y628667D01*
X354914Y628681D01*
X354852Y628698D01*
X354792Y628719D01*
X354733Y628743D01*
X354675Y628771D01*
X354620Y628803D01*
X354566Y628837D01*
X354515Y628875D01*
X354465Y628916D01*
X354419Y628960D01*
X354375Y629006D01*
X354334Y629056D01*
X354296Y629107D01*
X354262Y629161D01*
X354230Y629216D01*
X354202Y629274D01*
X354178Y629333D01*
X354157Y629393D01*
X354140Y629455D01*
X354126Y629517D01*
X354117Y629580D01*
X354111Y629644D01*
X354109Y629708D01*
X354111Y629772D01*
X354117Y629836D01*
X354126Y629899D01*
X354140Y629961D01*
X354157Y630023D01*
X354178Y630083D01*
X354202Y630142D01*
X354230Y630200D01*
X354262Y630255D01*
X354296Y630309D01*
X354334Y630360D01*
X354375Y630410D01*
X354419Y630456D01*
X354465Y630500D01*
X354515Y630541D01*
X354566Y630579D01*
X354620Y630613D01*
X354675Y630645D01*
X354733Y630673D01*
X354792Y630697D01*
X354852Y630718D01*
X354914Y630735D01*
X354976Y630749D01*
X355039Y630758D01*
X355103Y630764D01*
X355167Y630766D01*
X354956Y632460D02*
X356226Y632460D01*
X354956Y632460D02*
X354899Y632458D01*
X354843Y632452D01*
X354787Y632443D01*
X354732Y632430D01*
X354678Y632413D01*
X354625Y632393D01*
X354574Y632369D01*
X354524Y632342D01*
X354477Y632311D01*
X354431Y632278D01*
X354388Y632241D01*
X354347Y632202D01*
X354309Y632160D01*
X354274Y632115D01*
X354242Y632069D01*
X354213Y632020D01*
X354188Y631970D01*
X354166Y631917D01*
X354147Y631864D01*
X354132Y631809D01*
X354121Y631754D01*
X354113Y631698D01*
X354109Y631641D01*
X354109Y631585D01*
X354113Y631528D01*
X354121Y631472D01*
X354132Y631417D01*
X354147Y631362D01*
X354166Y631309D01*
X354188Y631256D01*
X354213Y631206D01*
X354242Y631157D01*
X354274Y631111D01*
X354309Y631066D01*
X354347Y631024D01*
X354388Y630985D01*
X354431Y630948D01*
X354477Y630915D01*
X354524Y630884D01*
X354574Y630857D01*
X354625Y630833D01*
X354678Y630813D01*
X354732Y630796D01*
X354787Y630783D01*
X354843Y630774D01*
X354899Y630768D01*
X354956Y630766D01*
X354956Y630767D02*
X355802Y630767D01*
X352568Y628650D02*
X351510Y628650D01*
X351446Y628652D01*
X351382Y628658D01*
X351319Y628667D01*
X351257Y628681D01*
X351195Y628698D01*
X351135Y628719D01*
X351076Y628743D01*
X351018Y628771D01*
X350963Y628803D01*
X350909Y628837D01*
X350858Y628875D01*
X350808Y628916D01*
X350762Y628960D01*
X350718Y629006D01*
X350677Y629056D01*
X350639Y629107D01*
X350605Y629161D01*
X350573Y629216D01*
X350545Y629274D01*
X350521Y629333D01*
X350500Y629393D01*
X350483Y629455D01*
X350469Y629517D01*
X350460Y629580D01*
X350454Y629644D01*
X350452Y629708D01*
X350454Y629772D01*
X350460Y629836D01*
X350469Y629899D01*
X350483Y629961D01*
X350500Y630023D01*
X350521Y630083D01*
X350545Y630142D01*
X350573Y630200D01*
X350605Y630255D01*
X350639Y630309D01*
X350677Y630360D01*
X350718Y630410D01*
X350762Y630456D01*
X350808Y630500D01*
X350858Y630541D01*
X350909Y630579D01*
X350963Y630613D01*
X351018Y630645D01*
X351076Y630673D01*
X351135Y630697D01*
X351195Y630718D01*
X351257Y630735D01*
X351319Y630749D01*
X351382Y630758D01*
X351446Y630764D01*
X351510Y630766D01*
X351298Y632460D02*
X352568Y632460D01*
X351298Y632460D02*
X351241Y632458D01*
X351185Y632452D01*
X351129Y632443D01*
X351074Y632430D01*
X351020Y632413D01*
X350967Y632393D01*
X350916Y632369D01*
X350866Y632342D01*
X350819Y632311D01*
X350773Y632278D01*
X350730Y632241D01*
X350689Y632202D01*
X350651Y632160D01*
X350616Y632115D01*
X350584Y632069D01*
X350555Y632020D01*
X350530Y631970D01*
X350508Y631917D01*
X350489Y631864D01*
X350474Y631809D01*
X350463Y631754D01*
X350455Y631698D01*
X350451Y631641D01*
X350451Y631585D01*
X350455Y631528D01*
X350463Y631472D01*
X350474Y631417D01*
X350489Y631362D01*
X350508Y631309D01*
X350530Y631256D01*
X350555Y631206D01*
X350584Y631157D01*
X350616Y631111D01*
X350651Y631066D01*
X350689Y631024D01*
X350730Y630985D01*
X350773Y630948D01*
X350819Y630915D01*
X350866Y630884D01*
X350916Y630857D01*
X350967Y630833D01*
X351020Y630813D01*
X351074Y630796D01*
X351129Y630783D01*
X351185Y630774D01*
X351241Y630768D01*
X351298Y630766D01*
X351298Y630767D02*
X352145Y630767D01*
X220387Y779780D02*
X219541Y779780D01*
X220387Y779780D02*
X220442Y779782D01*
X220498Y779787D01*
X220552Y779796D01*
X220606Y779809D01*
X220659Y779825D01*
X220711Y779844D01*
X220762Y779867D01*
X220811Y779893D01*
X220858Y779923D01*
X220903Y779955D01*
X220945Y779990D01*
X220986Y780028D01*
X221024Y780069D01*
X221059Y780111D01*
X221091Y780156D01*
X221121Y780204D01*
X221147Y780252D01*
X221170Y780303D01*
X221189Y780355D01*
X221205Y780408D01*
X221218Y780462D01*
X221227Y780516D01*
X221232Y780572D01*
X221234Y780627D01*
X221234Y782743D01*
X221232Y782801D01*
X221226Y782858D01*
X221216Y782915D01*
X221203Y782972D01*
X221185Y783027D01*
X221164Y783080D01*
X221139Y783133D01*
X221111Y783183D01*
X221079Y783231D01*
X221044Y783278D01*
X221006Y783321D01*
X220965Y783362D01*
X220922Y783400D01*
X220875Y783435D01*
X220827Y783467D01*
X220777Y783495D01*
X220724Y783520D01*
X220671Y783541D01*
X220616Y783559D01*
X220559Y783572D01*
X220502Y783582D01*
X220445Y783588D01*
X220387Y783590D01*
X219541Y783590D01*
X218177Y779780D02*
X217118Y779780D01*
X217054Y779782D01*
X216990Y779788D01*
X216927Y779797D01*
X216865Y779811D01*
X216803Y779828D01*
X216743Y779849D01*
X216684Y779873D01*
X216626Y779901D01*
X216571Y779933D01*
X216517Y779967D01*
X216466Y780005D01*
X216416Y780046D01*
X216370Y780090D01*
X216326Y780136D01*
X216285Y780186D01*
X216247Y780237D01*
X216213Y780291D01*
X216181Y780346D01*
X216153Y780404D01*
X216129Y780463D01*
X216108Y780523D01*
X216091Y780585D01*
X216077Y780647D01*
X216068Y780710D01*
X216062Y780774D01*
X216060Y780838D01*
X216062Y780902D01*
X216068Y780966D01*
X216077Y781029D01*
X216091Y781091D01*
X216108Y781153D01*
X216129Y781213D01*
X216153Y781272D01*
X216181Y781330D01*
X216213Y781385D01*
X216247Y781439D01*
X216285Y781490D01*
X216326Y781540D01*
X216370Y781586D01*
X216416Y781630D01*
X216466Y781671D01*
X216517Y781709D01*
X216571Y781743D01*
X216626Y781775D01*
X216684Y781803D01*
X216743Y781827D01*
X216803Y781848D01*
X216865Y781865D01*
X216927Y781879D01*
X216990Y781888D01*
X217054Y781894D01*
X217118Y781896D01*
X216907Y783590D02*
X218177Y783590D01*
X216907Y783590D02*
X216850Y783588D01*
X216794Y783582D01*
X216738Y783573D01*
X216683Y783560D01*
X216629Y783543D01*
X216576Y783523D01*
X216525Y783499D01*
X216475Y783472D01*
X216428Y783441D01*
X216382Y783408D01*
X216339Y783371D01*
X216298Y783332D01*
X216260Y783290D01*
X216225Y783245D01*
X216193Y783199D01*
X216164Y783150D01*
X216139Y783100D01*
X216117Y783047D01*
X216098Y782994D01*
X216083Y782939D01*
X216072Y782884D01*
X216064Y782828D01*
X216060Y782771D01*
X216060Y782715D01*
X216064Y782658D01*
X216072Y782602D01*
X216083Y782547D01*
X216098Y782492D01*
X216117Y782439D01*
X216139Y782386D01*
X216164Y782336D01*
X216193Y782287D01*
X216225Y782241D01*
X216260Y782196D01*
X216298Y782154D01*
X216339Y782115D01*
X216382Y782078D01*
X216428Y782045D01*
X216475Y782014D01*
X216525Y781987D01*
X216576Y781963D01*
X216629Y781943D01*
X216683Y781926D01*
X216738Y781913D01*
X216794Y781904D01*
X216850Y781898D01*
X216907Y781896D01*
X216907Y781897D02*
X217753Y781897D01*
X214519Y781897D02*
X213249Y781897D01*
X213191Y781895D01*
X213134Y781889D01*
X213077Y781879D01*
X213020Y781866D01*
X212965Y781848D01*
X212912Y781827D01*
X212859Y781802D01*
X212809Y781774D01*
X212761Y781742D01*
X212714Y781707D01*
X212671Y781669D01*
X212630Y781628D01*
X212592Y781585D01*
X212557Y781538D01*
X212525Y781490D01*
X212497Y781440D01*
X212472Y781387D01*
X212451Y781334D01*
X212433Y781279D01*
X212420Y781222D01*
X212410Y781165D01*
X212404Y781108D01*
X212402Y781050D01*
X212402Y780838D01*
X212403Y780838D02*
X212405Y780774D01*
X212411Y780710D01*
X212420Y780647D01*
X212434Y780585D01*
X212451Y780523D01*
X212472Y780463D01*
X212496Y780404D01*
X212524Y780346D01*
X212556Y780291D01*
X212590Y780237D01*
X212628Y780186D01*
X212669Y780136D01*
X212713Y780090D01*
X212759Y780046D01*
X212809Y780005D01*
X212860Y779967D01*
X212914Y779933D01*
X212969Y779901D01*
X213027Y779873D01*
X213086Y779849D01*
X213146Y779828D01*
X213208Y779811D01*
X213270Y779797D01*
X213333Y779788D01*
X213397Y779782D01*
X213461Y779780D01*
X213525Y779782D01*
X213589Y779788D01*
X213652Y779797D01*
X213714Y779811D01*
X213776Y779828D01*
X213836Y779849D01*
X213895Y779873D01*
X213953Y779901D01*
X214008Y779933D01*
X214062Y779967D01*
X214113Y780005D01*
X214163Y780046D01*
X214209Y780090D01*
X214253Y780136D01*
X214294Y780186D01*
X214332Y780237D01*
X214366Y780291D01*
X214398Y780346D01*
X214426Y780404D01*
X214450Y780463D01*
X214471Y780523D01*
X214488Y780585D01*
X214502Y780647D01*
X214511Y780710D01*
X214517Y780774D01*
X214519Y780838D01*
X214519Y781897D01*
X214517Y781978D01*
X214511Y782058D01*
X214502Y782138D01*
X214488Y782217D01*
X214471Y782296D01*
X214450Y782374D01*
X214426Y782451D01*
X214398Y782526D01*
X214366Y782600D01*
X214331Y782673D01*
X214292Y782744D01*
X214250Y782812D01*
X214205Y782879D01*
X214157Y782944D01*
X214105Y783006D01*
X214051Y783065D01*
X213994Y783122D01*
X213935Y783176D01*
X213873Y783228D01*
X213808Y783276D01*
X213741Y783321D01*
X213673Y783363D01*
X213602Y783402D01*
X213529Y783437D01*
X213455Y783469D01*
X213380Y783497D01*
X213303Y783521D01*
X213225Y783542D01*
X213146Y783559D01*
X213067Y783573D01*
X212987Y783582D01*
X212907Y783588D01*
X212826Y783590D01*
X310896Y720318D02*
X310896Y719471D01*
X310898Y719416D01*
X310903Y719360D01*
X310912Y719306D01*
X310925Y719252D01*
X310941Y719199D01*
X310960Y719147D01*
X310983Y719096D01*
X311009Y719048D01*
X311039Y719000D01*
X311071Y718955D01*
X311106Y718913D01*
X311144Y718872D01*
X311185Y718834D01*
X311227Y718799D01*
X311272Y718767D01*
X311320Y718737D01*
X311368Y718711D01*
X311419Y718688D01*
X311471Y718669D01*
X311524Y718653D01*
X311578Y718640D01*
X311632Y718631D01*
X311688Y718626D01*
X311743Y718624D01*
X313859Y718624D01*
X313917Y718626D01*
X313974Y718632D01*
X314031Y718642D01*
X314088Y718655D01*
X314143Y718673D01*
X314196Y718694D01*
X314249Y718719D01*
X314299Y718747D01*
X314347Y718779D01*
X314394Y718814D01*
X314437Y718852D01*
X314478Y718893D01*
X314516Y718936D01*
X314551Y718983D01*
X314583Y719031D01*
X314611Y719081D01*
X314636Y719134D01*
X314657Y719187D01*
X314675Y719242D01*
X314688Y719299D01*
X314698Y719356D01*
X314704Y719413D01*
X314706Y719471D01*
X314706Y720318D01*
X310896Y721682D02*
X310896Y722740D01*
X310898Y722804D01*
X310904Y722868D01*
X310913Y722931D01*
X310927Y722993D01*
X310944Y723055D01*
X310965Y723115D01*
X310989Y723174D01*
X311017Y723232D01*
X311049Y723287D01*
X311083Y723341D01*
X311121Y723392D01*
X311162Y723442D01*
X311206Y723488D01*
X311252Y723532D01*
X311302Y723573D01*
X311353Y723611D01*
X311407Y723645D01*
X311462Y723677D01*
X311520Y723705D01*
X311579Y723729D01*
X311639Y723750D01*
X311701Y723767D01*
X311763Y723781D01*
X311826Y723790D01*
X311890Y723796D01*
X311954Y723798D01*
X312018Y723796D01*
X312082Y723790D01*
X312145Y723781D01*
X312207Y723767D01*
X312269Y723750D01*
X312329Y723729D01*
X312388Y723705D01*
X312446Y723677D01*
X312501Y723645D01*
X312555Y723611D01*
X312606Y723573D01*
X312656Y723532D01*
X312702Y723488D01*
X312746Y723442D01*
X312787Y723392D01*
X312825Y723341D01*
X312859Y723287D01*
X312891Y723232D01*
X312919Y723174D01*
X312943Y723115D01*
X312964Y723055D01*
X312981Y722993D01*
X312995Y722931D01*
X313004Y722868D01*
X313010Y722804D01*
X313012Y722740D01*
X314706Y722952D02*
X314706Y721682D01*
X314706Y722952D02*
X314704Y723009D01*
X314698Y723065D01*
X314689Y723121D01*
X314676Y723176D01*
X314659Y723230D01*
X314639Y723283D01*
X314615Y723334D01*
X314588Y723384D01*
X314557Y723431D01*
X314524Y723477D01*
X314487Y723520D01*
X314448Y723561D01*
X314406Y723599D01*
X314361Y723634D01*
X314315Y723666D01*
X314266Y723695D01*
X314216Y723720D01*
X314163Y723742D01*
X314110Y723761D01*
X314055Y723776D01*
X314000Y723787D01*
X313944Y723795D01*
X313887Y723799D01*
X313831Y723799D01*
X313774Y723795D01*
X313718Y723787D01*
X313663Y723776D01*
X313608Y723761D01*
X313555Y723742D01*
X313502Y723720D01*
X313452Y723695D01*
X313403Y723666D01*
X313357Y723634D01*
X313312Y723599D01*
X313270Y723561D01*
X313231Y723520D01*
X313194Y723477D01*
X313161Y723431D01*
X313130Y723384D01*
X313103Y723334D01*
X313079Y723283D01*
X313059Y723230D01*
X313042Y723176D01*
X313029Y723121D01*
X313020Y723065D01*
X313014Y723009D01*
X313012Y722952D01*
X313013Y722952D02*
X313013Y722105D01*
X314283Y725339D02*
X314706Y725339D01*
X314706Y727456D01*
X310896Y726398D01*
X453517Y137541D02*
X453517Y133731D01*
X453517Y137541D02*
X452459Y137541D01*
X452395Y137539D01*
X452331Y137533D01*
X452268Y137524D01*
X452206Y137510D01*
X452144Y137493D01*
X452084Y137472D01*
X452025Y137448D01*
X451967Y137420D01*
X451912Y137388D01*
X451858Y137354D01*
X451807Y137316D01*
X451757Y137275D01*
X451711Y137231D01*
X451667Y137185D01*
X451626Y137135D01*
X451588Y137084D01*
X451554Y137030D01*
X451522Y136975D01*
X451494Y136917D01*
X451470Y136858D01*
X451449Y136798D01*
X451432Y136736D01*
X451418Y136674D01*
X451409Y136611D01*
X451403Y136547D01*
X451401Y136483D01*
X451403Y136419D01*
X451409Y136355D01*
X451418Y136292D01*
X451432Y136230D01*
X451449Y136168D01*
X451470Y136108D01*
X451494Y136049D01*
X451522Y135991D01*
X451554Y135936D01*
X451588Y135882D01*
X451626Y135831D01*
X451667Y135781D01*
X451711Y135735D01*
X451757Y135691D01*
X451807Y135650D01*
X451858Y135612D01*
X451912Y135578D01*
X451967Y135546D01*
X452025Y135518D01*
X452084Y135494D01*
X452144Y135473D01*
X452206Y135456D01*
X452268Y135442D01*
X452331Y135433D01*
X452395Y135427D01*
X452459Y135425D01*
X452459Y135424D02*
X453517Y135424D01*
X452247Y135424D02*
X451400Y133731D01*
X449880Y136694D02*
X448822Y137541D01*
X448822Y133731D01*
X449880Y133731D02*
X447764Y133731D01*
X446223Y134578D02*
X445376Y137541D01*
X446223Y134578D02*
X444106Y134578D01*
X444741Y135424D02*
X444741Y133731D01*
D14*
X34417Y281619D02*
X22733Y281619D01*
X34417Y281619D02*
X34417Y284864D01*
X34415Y284977D01*
X34409Y285090D01*
X34399Y285203D01*
X34385Y285316D01*
X34368Y285428D01*
X34346Y285539D01*
X34321Y285649D01*
X34291Y285759D01*
X34258Y285867D01*
X34221Y285974D01*
X34181Y286080D01*
X34136Y286184D01*
X34088Y286287D01*
X34037Y286388D01*
X33982Y286487D01*
X33924Y286584D01*
X33862Y286679D01*
X33797Y286772D01*
X33729Y286862D01*
X33658Y286950D01*
X33583Y287036D01*
X33506Y287119D01*
X33426Y287199D01*
X33343Y287276D01*
X33257Y287351D01*
X33169Y287422D01*
X33079Y287490D01*
X32986Y287555D01*
X32891Y287617D01*
X32794Y287675D01*
X32695Y287730D01*
X32594Y287781D01*
X32491Y287829D01*
X32387Y287874D01*
X32281Y287914D01*
X32174Y287951D01*
X32066Y287984D01*
X31956Y288014D01*
X31846Y288039D01*
X31735Y288061D01*
X31623Y288078D01*
X31510Y288092D01*
X31397Y288102D01*
X31284Y288108D01*
X31171Y288110D01*
X31058Y288108D01*
X30945Y288102D01*
X30832Y288092D01*
X30719Y288078D01*
X30607Y288061D01*
X30496Y288039D01*
X30386Y288014D01*
X30276Y287984D01*
X30168Y287951D01*
X30061Y287914D01*
X29955Y287874D01*
X29851Y287829D01*
X29748Y287781D01*
X29647Y287730D01*
X29548Y287675D01*
X29451Y287617D01*
X29356Y287555D01*
X29263Y287490D01*
X29173Y287422D01*
X29085Y287351D01*
X28999Y287276D01*
X28916Y287199D01*
X28836Y287119D01*
X28759Y287036D01*
X28684Y286950D01*
X28613Y286862D01*
X28545Y286772D01*
X28480Y286679D01*
X28418Y286584D01*
X28360Y286487D01*
X28305Y286388D01*
X28254Y286287D01*
X28206Y286184D01*
X28161Y286080D01*
X28121Y285974D01*
X28084Y285867D01*
X28051Y285759D01*
X28021Y285649D01*
X27996Y285539D01*
X27974Y285428D01*
X27957Y285316D01*
X27943Y285203D01*
X27933Y285090D01*
X27927Y284977D01*
X27925Y284864D01*
X27926Y284864D02*
X27926Y281619D01*
X27926Y285513D02*
X22733Y288110D01*
X31821Y292975D02*
X34417Y296220D01*
X22733Y296220D01*
X22733Y292975D02*
X22733Y299466D01*
X25979Y304404D02*
X26092Y304406D01*
X26205Y304412D01*
X26318Y304422D01*
X26431Y304436D01*
X26543Y304453D01*
X26654Y304475D01*
X26764Y304500D01*
X26874Y304530D01*
X26982Y304563D01*
X27089Y304600D01*
X27195Y304640D01*
X27299Y304685D01*
X27402Y304733D01*
X27503Y304784D01*
X27602Y304839D01*
X27699Y304897D01*
X27794Y304959D01*
X27887Y305024D01*
X27977Y305092D01*
X28065Y305163D01*
X28151Y305238D01*
X28234Y305315D01*
X28314Y305395D01*
X28391Y305478D01*
X28466Y305564D01*
X28537Y305652D01*
X28605Y305742D01*
X28670Y305835D01*
X28732Y305930D01*
X28790Y306027D01*
X28845Y306126D01*
X28896Y306227D01*
X28944Y306330D01*
X28989Y306434D01*
X29029Y306540D01*
X29066Y306647D01*
X29099Y306755D01*
X29129Y306865D01*
X29154Y306975D01*
X29176Y307086D01*
X29193Y307198D01*
X29207Y307311D01*
X29217Y307424D01*
X29223Y307537D01*
X29225Y307650D01*
X29223Y307763D01*
X29217Y307876D01*
X29207Y307989D01*
X29193Y308102D01*
X29176Y308214D01*
X29154Y308325D01*
X29129Y308435D01*
X29099Y308545D01*
X29066Y308653D01*
X29029Y308760D01*
X28989Y308866D01*
X28944Y308970D01*
X28896Y309073D01*
X28845Y309174D01*
X28790Y309273D01*
X28732Y309370D01*
X28670Y309465D01*
X28605Y309558D01*
X28537Y309648D01*
X28466Y309736D01*
X28391Y309822D01*
X28314Y309905D01*
X28234Y309985D01*
X28151Y310062D01*
X28065Y310137D01*
X27977Y310208D01*
X27887Y310276D01*
X27794Y310341D01*
X27699Y310403D01*
X27602Y310461D01*
X27503Y310516D01*
X27402Y310567D01*
X27299Y310615D01*
X27195Y310660D01*
X27089Y310700D01*
X26982Y310737D01*
X26874Y310770D01*
X26764Y310800D01*
X26654Y310825D01*
X26543Y310847D01*
X26431Y310864D01*
X26318Y310878D01*
X26205Y310888D01*
X26092Y310894D01*
X25979Y310896D01*
X25866Y310894D01*
X25753Y310888D01*
X25640Y310878D01*
X25527Y310864D01*
X25415Y310847D01*
X25304Y310825D01*
X25194Y310800D01*
X25084Y310770D01*
X24976Y310737D01*
X24869Y310700D01*
X24763Y310660D01*
X24659Y310615D01*
X24556Y310567D01*
X24455Y310516D01*
X24356Y310461D01*
X24259Y310403D01*
X24164Y310341D01*
X24071Y310276D01*
X23981Y310208D01*
X23893Y310137D01*
X23807Y310062D01*
X23724Y309985D01*
X23644Y309905D01*
X23567Y309822D01*
X23492Y309736D01*
X23421Y309648D01*
X23353Y309558D01*
X23288Y309465D01*
X23226Y309370D01*
X23168Y309273D01*
X23113Y309174D01*
X23062Y309073D01*
X23014Y308970D01*
X22969Y308866D01*
X22929Y308760D01*
X22892Y308653D01*
X22859Y308545D01*
X22829Y308435D01*
X22804Y308325D01*
X22782Y308214D01*
X22765Y308102D01*
X22751Y307989D01*
X22741Y307876D01*
X22735Y307763D01*
X22733Y307650D01*
X22735Y307537D01*
X22741Y307424D01*
X22751Y307311D01*
X22765Y307198D01*
X22782Y307086D01*
X22804Y306975D01*
X22829Y306865D01*
X22859Y306755D01*
X22892Y306647D01*
X22929Y306540D01*
X22969Y306434D01*
X23014Y306330D01*
X23062Y306227D01*
X23113Y306126D01*
X23168Y306027D01*
X23226Y305930D01*
X23288Y305835D01*
X23353Y305742D01*
X23421Y305652D01*
X23492Y305564D01*
X23567Y305478D01*
X23644Y305395D01*
X23724Y305315D01*
X23807Y305238D01*
X23893Y305163D01*
X23981Y305092D01*
X24071Y305024D01*
X24164Y304959D01*
X24259Y304897D01*
X24356Y304839D01*
X24455Y304784D01*
X24556Y304733D01*
X24659Y304685D01*
X24763Y304640D01*
X24869Y304600D01*
X24976Y304563D01*
X25084Y304530D01*
X25194Y304500D01*
X25304Y304475D01*
X25415Y304453D01*
X25527Y304436D01*
X25640Y304422D01*
X25753Y304412D01*
X25866Y304406D01*
X25979Y304404D01*
X31821Y305054D02*
X31922Y305056D01*
X32022Y305062D01*
X32122Y305072D01*
X32222Y305085D01*
X32321Y305103D01*
X32420Y305124D01*
X32517Y305149D01*
X32614Y305178D01*
X32709Y305211D01*
X32803Y305247D01*
X32895Y305287D01*
X32986Y305330D01*
X33075Y305377D01*
X33162Y305427D01*
X33248Y305481D01*
X33331Y305538D01*
X33411Y305598D01*
X33490Y305661D01*
X33566Y305728D01*
X33639Y305797D01*
X33709Y305869D01*
X33777Y305943D01*
X33842Y306020D01*
X33903Y306100D01*
X33962Y306182D01*
X34017Y306266D01*
X34069Y306352D01*
X34118Y306440D01*
X34163Y306530D01*
X34205Y306622D01*
X34243Y306715D01*
X34277Y306810D01*
X34308Y306905D01*
X34335Y307002D01*
X34358Y307100D01*
X34378Y307199D01*
X34393Y307299D01*
X34405Y307399D01*
X34413Y307499D01*
X34417Y307600D01*
X34417Y307700D01*
X34413Y307801D01*
X34405Y307901D01*
X34393Y308001D01*
X34378Y308101D01*
X34358Y308200D01*
X34335Y308298D01*
X34308Y308395D01*
X34277Y308490D01*
X34243Y308585D01*
X34205Y308678D01*
X34163Y308770D01*
X34118Y308860D01*
X34069Y308948D01*
X34017Y309034D01*
X33962Y309118D01*
X33903Y309200D01*
X33842Y309280D01*
X33777Y309357D01*
X33709Y309431D01*
X33639Y309503D01*
X33566Y309572D01*
X33490Y309639D01*
X33411Y309702D01*
X33331Y309762D01*
X33248Y309819D01*
X33162Y309873D01*
X33075Y309923D01*
X32986Y309970D01*
X32895Y310013D01*
X32803Y310053D01*
X32709Y310089D01*
X32614Y310122D01*
X32517Y310151D01*
X32420Y310176D01*
X32321Y310197D01*
X32222Y310215D01*
X32122Y310228D01*
X32022Y310238D01*
X31922Y310244D01*
X31821Y310246D01*
X31720Y310244D01*
X31620Y310238D01*
X31520Y310228D01*
X31420Y310215D01*
X31321Y310197D01*
X31222Y310176D01*
X31125Y310151D01*
X31028Y310122D01*
X30933Y310089D01*
X30839Y310053D01*
X30747Y310013D01*
X30656Y309970D01*
X30567Y309923D01*
X30480Y309873D01*
X30394Y309819D01*
X30311Y309762D01*
X30231Y309702D01*
X30152Y309639D01*
X30076Y309572D01*
X30003Y309503D01*
X29933Y309431D01*
X29865Y309357D01*
X29800Y309280D01*
X29739Y309200D01*
X29680Y309118D01*
X29625Y309034D01*
X29573Y308948D01*
X29524Y308860D01*
X29479Y308770D01*
X29437Y308678D01*
X29399Y308585D01*
X29365Y308490D01*
X29334Y308395D01*
X29307Y308298D01*
X29284Y308200D01*
X29264Y308101D01*
X29249Y308001D01*
X29237Y307901D01*
X29229Y307801D01*
X29225Y307700D01*
X29225Y307600D01*
X29229Y307499D01*
X29237Y307399D01*
X29249Y307299D01*
X29264Y307199D01*
X29284Y307100D01*
X29307Y307002D01*
X29334Y306905D01*
X29365Y306810D01*
X29399Y306715D01*
X29437Y306622D01*
X29479Y306530D01*
X29524Y306440D01*
X29573Y306352D01*
X29625Y306266D01*
X29680Y306182D01*
X29739Y306100D01*
X29800Y306020D01*
X29865Y305943D01*
X29933Y305869D01*
X30003Y305797D01*
X30076Y305728D01*
X30152Y305661D01*
X30231Y305598D01*
X30311Y305538D01*
X30394Y305481D01*
X30480Y305427D01*
X30567Y305377D01*
X30656Y305330D01*
X30747Y305287D01*
X30839Y305247D01*
X30933Y305211D01*
X31028Y305178D01*
X31125Y305149D01*
X31222Y305124D01*
X31321Y305103D01*
X31420Y305085D01*
X31520Y305072D01*
X31620Y305062D01*
X31720Y305056D01*
X31821Y305054D01*
X49149Y247710D02*
X60833Y247710D01*
X60833Y250955D01*
X60831Y251068D01*
X60825Y251181D01*
X60815Y251294D01*
X60801Y251407D01*
X60784Y251519D01*
X60762Y251630D01*
X60737Y251740D01*
X60707Y251850D01*
X60674Y251958D01*
X60637Y252065D01*
X60597Y252171D01*
X60552Y252275D01*
X60504Y252378D01*
X60453Y252479D01*
X60398Y252578D01*
X60340Y252675D01*
X60278Y252770D01*
X60213Y252863D01*
X60145Y252953D01*
X60074Y253041D01*
X59999Y253127D01*
X59922Y253210D01*
X59842Y253290D01*
X59759Y253367D01*
X59673Y253442D01*
X59585Y253513D01*
X59495Y253581D01*
X59402Y253646D01*
X59307Y253708D01*
X59210Y253766D01*
X59111Y253821D01*
X59010Y253872D01*
X58907Y253920D01*
X58803Y253965D01*
X58697Y254005D01*
X58590Y254042D01*
X58482Y254075D01*
X58372Y254105D01*
X58262Y254130D01*
X58151Y254152D01*
X58039Y254169D01*
X57926Y254183D01*
X57813Y254193D01*
X57700Y254199D01*
X57587Y254201D01*
X57474Y254199D01*
X57361Y254193D01*
X57248Y254183D01*
X57135Y254169D01*
X57023Y254152D01*
X56912Y254130D01*
X56802Y254105D01*
X56692Y254075D01*
X56584Y254042D01*
X56477Y254005D01*
X56371Y253965D01*
X56267Y253920D01*
X56164Y253872D01*
X56063Y253821D01*
X55964Y253766D01*
X55867Y253708D01*
X55772Y253646D01*
X55679Y253581D01*
X55589Y253513D01*
X55501Y253442D01*
X55415Y253367D01*
X55332Y253290D01*
X55252Y253210D01*
X55175Y253127D01*
X55100Y253041D01*
X55029Y252953D01*
X54961Y252863D01*
X54896Y252770D01*
X54834Y252675D01*
X54776Y252578D01*
X54721Y252479D01*
X54670Y252378D01*
X54622Y252275D01*
X54577Y252171D01*
X54537Y252065D01*
X54500Y251958D01*
X54467Y251850D01*
X54437Y251740D01*
X54412Y251630D01*
X54390Y251519D01*
X54373Y251407D01*
X54359Y251294D01*
X54349Y251181D01*
X54343Y251068D01*
X54341Y250955D01*
X54342Y250955D02*
X54342Y247710D01*
X54342Y251604D02*
X49149Y254201D01*
X58237Y259066D02*
X60833Y262311D01*
X49149Y262311D01*
X49149Y259066D02*
X49149Y265557D01*
X54342Y273092D02*
X54342Y276987D01*
X54342Y273092D02*
X54344Y272993D01*
X54350Y272893D01*
X54359Y272794D01*
X54372Y272696D01*
X54389Y272598D01*
X54410Y272500D01*
X54435Y272404D01*
X54463Y272309D01*
X54495Y272215D01*
X54530Y272122D01*
X54569Y272030D01*
X54612Y271940D01*
X54657Y271852D01*
X54707Y271765D01*
X54759Y271681D01*
X54815Y271598D01*
X54873Y271518D01*
X54935Y271440D01*
X55000Y271365D01*
X55068Y271292D01*
X55138Y271222D01*
X55211Y271154D01*
X55286Y271089D01*
X55364Y271027D01*
X55444Y270969D01*
X55527Y270913D01*
X55611Y270861D01*
X55698Y270811D01*
X55786Y270766D01*
X55876Y270723D01*
X55968Y270684D01*
X56061Y270649D01*
X56155Y270617D01*
X56250Y270589D01*
X56346Y270564D01*
X56444Y270543D01*
X56542Y270526D01*
X56640Y270513D01*
X56739Y270504D01*
X56839Y270498D01*
X56938Y270496D01*
X57587Y270496D01*
X57587Y270495D02*
X57700Y270497D01*
X57813Y270503D01*
X57926Y270513D01*
X58039Y270527D01*
X58151Y270544D01*
X58262Y270566D01*
X58372Y270591D01*
X58482Y270621D01*
X58590Y270654D01*
X58697Y270691D01*
X58803Y270731D01*
X58907Y270776D01*
X59010Y270824D01*
X59111Y270875D01*
X59210Y270930D01*
X59307Y270988D01*
X59402Y271050D01*
X59495Y271115D01*
X59585Y271183D01*
X59673Y271254D01*
X59759Y271329D01*
X59842Y271406D01*
X59922Y271486D01*
X59999Y271569D01*
X60074Y271655D01*
X60145Y271743D01*
X60213Y271833D01*
X60278Y271926D01*
X60340Y272021D01*
X60398Y272118D01*
X60453Y272217D01*
X60504Y272318D01*
X60552Y272421D01*
X60597Y272525D01*
X60637Y272631D01*
X60674Y272738D01*
X60707Y272846D01*
X60737Y272956D01*
X60762Y273066D01*
X60784Y273177D01*
X60801Y273289D01*
X60815Y273402D01*
X60825Y273515D01*
X60831Y273628D01*
X60833Y273741D01*
X60831Y273854D01*
X60825Y273967D01*
X60815Y274080D01*
X60801Y274193D01*
X60784Y274305D01*
X60762Y274416D01*
X60737Y274526D01*
X60707Y274636D01*
X60674Y274744D01*
X60637Y274851D01*
X60597Y274957D01*
X60552Y275061D01*
X60504Y275164D01*
X60453Y275265D01*
X60398Y275364D01*
X60340Y275461D01*
X60278Y275556D01*
X60213Y275649D01*
X60145Y275739D01*
X60074Y275827D01*
X59999Y275913D01*
X59922Y275996D01*
X59842Y276076D01*
X59759Y276153D01*
X59673Y276228D01*
X59585Y276299D01*
X59495Y276367D01*
X59402Y276432D01*
X59307Y276494D01*
X59210Y276552D01*
X59111Y276607D01*
X59010Y276658D01*
X58907Y276706D01*
X58803Y276751D01*
X58697Y276791D01*
X58590Y276828D01*
X58482Y276861D01*
X58372Y276891D01*
X58262Y276916D01*
X58151Y276938D01*
X58039Y276955D01*
X57926Y276969D01*
X57813Y276979D01*
X57700Y276985D01*
X57587Y276987D01*
X54342Y276987D01*
X54199Y276985D01*
X54056Y276979D01*
X53913Y276969D01*
X53771Y276955D01*
X53629Y276938D01*
X53487Y276916D01*
X53346Y276891D01*
X53206Y276861D01*
X53067Y276828D01*
X52929Y276791D01*
X52792Y276750D01*
X52656Y276706D01*
X52521Y276657D01*
X52388Y276605D01*
X52256Y276550D01*
X52126Y276490D01*
X51997Y276427D01*
X51870Y276361D01*
X51746Y276291D01*
X51623Y276218D01*
X51502Y276141D01*
X51383Y276061D01*
X51267Y275978D01*
X51152Y275892D01*
X51041Y275803D01*
X50931Y275710D01*
X50825Y275615D01*
X50721Y275516D01*
X50620Y275415D01*
X50521Y275311D01*
X50426Y275205D01*
X50333Y275095D01*
X50244Y274984D01*
X50158Y274869D01*
X50075Y274753D01*
X49995Y274634D01*
X49918Y274513D01*
X49845Y274391D01*
X49775Y274266D01*
X49709Y274139D01*
X49646Y274010D01*
X49586Y273880D01*
X49531Y273748D01*
X49479Y273615D01*
X49430Y273480D01*
X49386Y273344D01*
X49345Y273207D01*
X49308Y273069D01*
X49275Y272930D01*
X49245Y272790D01*
X49220Y272649D01*
X49198Y272507D01*
X49181Y272365D01*
X49167Y272223D01*
X49157Y272080D01*
X49151Y271937D01*
X49149Y271794D01*
D11*
X262255Y857364D02*
X266065Y857364D01*
X266065Y858422D01*
X266063Y858486D01*
X266057Y858550D01*
X266048Y858613D01*
X266034Y858675D01*
X266017Y858737D01*
X265996Y858797D01*
X265972Y858856D01*
X265944Y858914D01*
X265912Y858969D01*
X265878Y859023D01*
X265840Y859074D01*
X265799Y859124D01*
X265755Y859170D01*
X265709Y859214D01*
X265659Y859255D01*
X265608Y859293D01*
X265554Y859327D01*
X265499Y859359D01*
X265441Y859387D01*
X265382Y859411D01*
X265322Y859432D01*
X265260Y859449D01*
X265198Y859463D01*
X265135Y859472D01*
X265071Y859478D01*
X265007Y859480D01*
X264943Y859478D01*
X264879Y859472D01*
X264816Y859463D01*
X264754Y859449D01*
X264692Y859432D01*
X264632Y859411D01*
X264573Y859387D01*
X264515Y859359D01*
X264460Y859327D01*
X264406Y859293D01*
X264355Y859255D01*
X264305Y859214D01*
X264259Y859170D01*
X264215Y859124D01*
X264174Y859074D01*
X264136Y859023D01*
X264102Y858969D01*
X264070Y858914D01*
X264042Y858856D01*
X264018Y858797D01*
X263997Y858737D01*
X263980Y858675D01*
X263966Y858613D01*
X263957Y858550D01*
X263951Y858486D01*
X263949Y858422D01*
X263948Y858422D02*
X263948Y857364D01*
X263948Y858634D02*
X262255Y859481D01*
X263102Y861001D02*
X266065Y861847D01*
X263102Y861001D02*
X263102Y863117D01*
X263948Y862482D02*
X262255Y862482D01*
X262255Y864658D02*
X262255Y865717D01*
X262257Y865781D01*
X262263Y865845D01*
X262272Y865908D01*
X262286Y865970D01*
X262303Y866032D01*
X262324Y866092D01*
X262348Y866151D01*
X262376Y866209D01*
X262408Y866264D01*
X262442Y866318D01*
X262480Y866369D01*
X262521Y866419D01*
X262565Y866465D01*
X262611Y866509D01*
X262661Y866550D01*
X262712Y866588D01*
X262766Y866622D01*
X262821Y866654D01*
X262879Y866682D01*
X262938Y866706D01*
X262998Y866727D01*
X263060Y866744D01*
X263122Y866758D01*
X263185Y866767D01*
X263249Y866773D01*
X263313Y866775D01*
X263377Y866773D01*
X263441Y866767D01*
X263504Y866758D01*
X263566Y866744D01*
X263628Y866727D01*
X263688Y866706D01*
X263747Y866682D01*
X263805Y866654D01*
X263860Y866622D01*
X263914Y866588D01*
X263965Y866550D01*
X264015Y866509D01*
X264061Y866465D01*
X264105Y866419D01*
X264146Y866369D01*
X264184Y866318D01*
X264218Y866264D01*
X264250Y866209D01*
X264278Y866151D01*
X264302Y866092D01*
X264323Y866032D01*
X264340Y865970D01*
X264354Y865908D01*
X264363Y865845D01*
X264369Y865781D01*
X264371Y865717D01*
X266065Y865928D02*
X266065Y864658D01*
X266065Y865928D02*
X266063Y865985D01*
X266057Y866041D01*
X266048Y866097D01*
X266035Y866152D01*
X266018Y866206D01*
X265998Y866259D01*
X265974Y866310D01*
X265947Y866360D01*
X265916Y866407D01*
X265883Y866453D01*
X265846Y866496D01*
X265807Y866537D01*
X265765Y866575D01*
X265720Y866610D01*
X265674Y866642D01*
X265625Y866671D01*
X265575Y866696D01*
X265522Y866718D01*
X265469Y866737D01*
X265414Y866752D01*
X265359Y866763D01*
X265303Y866771D01*
X265246Y866775D01*
X265190Y866775D01*
X265133Y866771D01*
X265077Y866763D01*
X265022Y866752D01*
X264967Y866737D01*
X264914Y866718D01*
X264861Y866696D01*
X264811Y866671D01*
X264762Y866642D01*
X264716Y866610D01*
X264671Y866575D01*
X264629Y866537D01*
X264590Y866496D01*
X264553Y866453D01*
X264520Y866407D01*
X264489Y866360D01*
X264462Y866310D01*
X264438Y866259D01*
X264418Y866206D01*
X264401Y866152D01*
X264388Y866097D01*
X264379Y866041D01*
X264373Y865985D01*
X264371Y865928D01*
X264372Y865928D02*
X264372Y865082D01*
X39116Y388874D02*
X39116Y385064D01*
X39116Y388874D02*
X38058Y388874D01*
X37994Y388872D01*
X37930Y388866D01*
X37867Y388857D01*
X37805Y388843D01*
X37743Y388826D01*
X37683Y388805D01*
X37624Y388781D01*
X37566Y388753D01*
X37511Y388721D01*
X37457Y388687D01*
X37406Y388649D01*
X37356Y388608D01*
X37310Y388564D01*
X37266Y388518D01*
X37225Y388468D01*
X37187Y388417D01*
X37153Y388363D01*
X37121Y388308D01*
X37093Y388250D01*
X37069Y388191D01*
X37048Y388131D01*
X37031Y388069D01*
X37017Y388007D01*
X37008Y387944D01*
X37002Y387880D01*
X37000Y387816D01*
X37002Y387752D01*
X37008Y387688D01*
X37017Y387625D01*
X37031Y387563D01*
X37048Y387501D01*
X37069Y387441D01*
X37093Y387382D01*
X37121Y387324D01*
X37153Y387269D01*
X37187Y387215D01*
X37225Y387164D01*
X37266Y387114D01*
X37310Y387068D01*
X37356Y387024D01*
X37406Y386983D01*
X37457Y386945D01*
X37511Y386911D01*
X37566Y386879D01*
X37624Y386851D01*
X37683Y386827D01*
X37743Y386806D01*
X37805Y386789D01*
X37867Y386775D01*
X37930Y386766D01*
X37994Y386760D01*
X38058Y386758D01*
X38058Y386757D02*
X39116Y386757D01*
X37846Y386757D02*
X36999Y385064D01*
X35479Y385064D02*
X34209Y385064D01*
X34154Y385066D01*
X34098Y385071D01*
X34044Y385080D01*
X33990Y385093D01*
X33937Y385109D01*
X33885Y385128D01*
X33834Y385151D01*
X33786Y385177D01*
X33738Y385207D01*
X33693Y385239D01*
X33651Y385274D01*
X33610Y385312D01*
X33572Y385353D01*
X33537Y385395D01*
X33505Y385440D01*
X33475Y385488D01*
X33449Y385536D01*
X33426Y385587D01*
X33407Y385639D01*
X33391Y385692D01*
X33378Y385746D01*
X33369Y385800D01*
X33364Y385856D01*
X33362Y385911D01*
X33363Y385911D02*
X33363Y386334D01*
X33362Y386334D02*
X33364Y386389D01*
X33369Y386445D01*
X33378Y386499D01*
X33391Y386553D01*
X33407Y386606D01*
X33426Y386658D01*
X33449Y386709D01*
X33475Y386758D01*
X33505Y386805D01*
X33537Y386850D01*
X33572Y386892D01*
X33610Y386933D01*
X33651Y386971D01*
X33693Y387006D01*
X33738Y387038D01*
X33786Y387068D01*
X33834Y387094D01*
X33885Y387117D01*
X33937Y387136D01*
X33990Y387152D01*
X34044Y387165D01*
X34098Y387174D01*
X34154Y387179D01*
X34209Y387181D01*
X35479Y387181D01*
X35479Y388874D01*
X33363Y388874D01*
X30975Y388874D02*
X31822Y385911D01*
X29705Y385911D01*
X30340Y386757D02*
X30340Y385064D01*
D14*
X53594Y349250D02*
X53594Y337566D01*
X53594Y349250D02*
X50348Y349250D01*
X50235Y349248D01*
X50122Y349242D01*
X50009Y349232D01*
X49896Y349218D01*
X49784Y349201D01*
X49673Y349179D01*
X49563Y349154D01*
X49453Y349124D01*
X49345Y349091D01*
X49238Y349054D01*
X49132Y349014D01*
X49028Y348969D01*
X48925Y348921D01*
X48824Y348870D01*
X48725Y348815D01*
X48628Y348757D01*
X48533Y348695D01*
X48440Y348630D01*
X48350Y348562D01*
X48262Y348491D01*
X48176Y348416D01*
X48093Y348339D01*
X48013Y348259D01*
X47936Y348176D01*
X47861Y348090D01*
X47790Y348002D01*
X47722Y347912D01*
X47657Y347819D01*
X47595Y347724D01*
X47537Y347627D01*
X47482Y347528D01*
X47431Y347427D01*
X47383Y347324D01*
X47338Y347220D01*
X47298Y347114D01*
X47261Y347007D01*
X47228Y346899D01*
X47198Y346789D01*
X47173Y346679D01*
X47151Y346568D01*
X47134Y346456D01*
X47120Y346343D01*
X47110Y346230D01*
X47104Y346117D01*
X47102Y346004D01*
X47104Y345891D01*
X47110Y345778D01*
X47120Y345665D01*
X47134Y345552D01*
X47151Y345440D01*
X47173Y345329D01*
X47198Y345219D01*
X47228Y345109D01*
X47261Y345001D01*
X47298Y344894D01*
X47338Y344788D01*
X47383Y344684D01*
X47431Y344581D01*
X47482Y344480D01*
X47537Y344381D01*
X47595Y344284D01*
X47657Y344189D01*
X47722Y344096D01*
X47790Y344006D01*
X47861Y343918D01*
X47936Y343832D01*
X48013Y343749D01*
X48093Y343669D01*
X48176Y343592D01*
X48262Y343517D01*
X48350Y343446D01*
X48440Y343378D01*
X48533Y343313D01*
X48628Y343251D01*
X48725Y343193D01*
X48824Y343138D01*
X48925Y343087D01*
X49028Y343039D01*
X49132Y342994D01*
X49238Y342954D01*
X49345Y342917D01*
X49453Y342884D01*
X49563Y342854D01*
X49673Y342829D01*
X49784Y342807D01*
X49896Y342790D01*
X50009Y342776D01*
X50122Y342766D01*
X50235Y342760D01*
X50348Y342758D01*
X50348Y342759D02*
X53594Y342759D01*
X49699Y342759D02*
X47103Y337566D01*
X42238Y337566D02*
X38343Y337566D01*
X38244Y337568D01*
X38144Y337574D01*
X38045Y337583D01*
X37947Y337596D01*
X37849Y337613D01*
X37751Y337634D01*
X37655Y337659D01*
X37560Y337687D01*
X37466Y337719D01*
X37373Y337754D01*
X37281Y337793D01*
X37191Y337836D01*
X37103Y337881D01*
X37016Y337931D01*
X36932Y337983D01*
X36849Y338039D01*
X36769Y338097D01*
X36691Y338159D01*
X36616Y338224D01*
X36543Y338292D01*
X36473Y338362D01*
X36405Y338435D01*
X36340Y338510D01*
X36278Y338588D01*
X36220Y338668D01*
X36164Y338751D01*
X36112Y338835D01*
X36062Y338922D01*
X36017Y339010D01*
X35974Y339100D01*
X35935Y339192D01*
X35900Y339285D01*
X35868Y339379D01*
X35840Y339474D01*
X35815Y339570D01*
X35794Y339668D01*
X35777Y339766D01*
X35764Y339864D01*
X35755Y339963D01*
X35749Y340063D01*
X35747Y340162D01*
X35747Y341461D01*
X35749Y341560D01*
X35755Y341660D01*
X35764Y341759D01*
X35777Y341857D01*
X35794Y341955D01*
X35815Y342053D01*
X35840Y342149D01*
X35868Y342244D01*
X35900Y342338D01*
X35935Y342431D01*
X35974Y342523D01*
X36017Y342613D01*
X36062Y342701D01*
X36112Y342788D01*
X36164Y342872D01*
X36220Y342955D01*
X36278Y343035D01*
X36340Y343113D01*
X36405Y343188D01*
X36473Y343261D01*
X36543Y343331D01*
X36616Y343399D01*
X36691Y343464D01*
X36769Y343526D01*
X36849Y343584D01*
X36932Y343640D01*
X37016Y343692D01*
X37103Y343742D01*
X37191Y343787D01*
X37281Y343830D01*
X37373Y343869D01*
X37466Y343904D01*
X37560Y343936D01*
X37655Y343964D01*
X37751Y343989D01*
X37849Y344010D01*
X37947Y344027D01*
X38045Y344040D01*
X38144Y344049D01*
X38244Y344055D01*
X38343Y344057D01*
X42238Y344057D01*
X42238Y349250D01*
X35747Y349250D01*
X30808Y340812D02*
X30806Y340925D01*
X30800Y341038D01*
X30790Y341151D01*
X30776Y341264D01*
X30759Y341376D01*
X30737Y341487D01*
X30712Y341597D01*
X30682Y341707D01*
X30649Y341815D01*
X30612Y341922D01*
X30572Y342028D01*
X30527Y342132D01*
X30479Y342235D01*
X30428Y342336D01*
X30373Y342435D01*
X30315Y342532D01*
X30253Y342627D01*
X30188Y342720D01*
X30120Y342810D01*
X30049Y342898D01*
X29974Y342984D01*
X29897Y343067D01*
X29817Y343147D01*
X29734Y343224D01*
X29648Y343299D01*
X29560Y343370D01*
X29470Y343438D01*
X29377Y343503D01*
X29282Y343565D01*
X29185Y343623D01*
X29086Y343678D01*
X28985Y343729D01*
X28882Y343777D01*
X28778Y343822D01*
X28672Y343862D01*
X28565Y343899D01*
X28457Y343932D01*
X28347Y343962D01*
X28237Y343987D01*
X28126Y344009D01*
X28014Y344026D01*
X27901Y344040D01*
X27788Y344050D01*
X27675Y344056D01*
X27562Y344058D01*
X27449Y344056D01*
X27336Y344050D01*
X27223Y344040D01*
X27110Y344026D01*
X26998Y344009D01*
X26887Y343987D01*
X26777Y343962D01*
X26667Y343932D01*
X26559Y343899D01*
X26452Y343862D01*
X26346Y343822D01*
X26242Y343777D01*
X26139Y343729D01*
X26038Y343678D01*
X25939Y343623D01*
X25842Y343565D01*
X25747Y343503D01*
X25654Y343438D01*
X25564Y343370D01*
X25476Y343299D01*
X25390Y343224D01*
X25307Y343147D01*
X25227Y343067D01*
X25150Y342984D01*
X25075Y342898D01*
X25004Y342810D01*
X24936Y342720D01*
X24871Y342627D01*
X24809Y342532D01*
X24751Y342435D01*
X24696Y342336D01*
X24645Y342235D01*
X24597Y342132D01*
X24552Y342028D01*
X24512Y341922D01*
X24475Y341815D01*
X24442Y341707D01*
X24412Y341597D01*
X24387Y341487D01*
X24365Y341376D01*
X24348Y341264D01*
X24334Y341151D01*
X24324Y341038D01*
X24318Y340925D01*
X24316Y340812D01*
X24318Y340699D01*
X24324Y340586D01*
X24334Y340473D01*
X24348Y340360D01*
X24365Y340248D01*
X24387Y340137D01*
X24412Y340027D01*
X24442Y339917D01*
X24475Y339809D01*
X24512Y339702D01*
X24552Y339596D01*
X24597Y339492D01*
X24645Y339389D01*
X24696Y339288D01*
X24751Y339189D01*
X24809Y339092D01*
X24871Y338997D01*
X24936Y338904D01*
X25004Y338814D01*
X25075Y338726D01*
X25150Y338640D01*
X25227Y338557D01*
X25307Y338477D01*
X25390Y338400D01*
X25476Y338325D01*
X25564Y338254D01*
X25654Y338186D01*
X25747Y338121D01*
X25842Y338059D01*
X25939Y338001D01*
X26038Y337946D01*
X26139Y337895D01*
X26242Y337847D01*
X26346Y337802D01*
X26452Y337762D01*
X26559Y337725D01*
X26667Y337692D01*
X26777Y337662D01*
X26887Y337637D01*
X26998Y337615D01*
X27110Y337598D01*
X27223Y337584D01*
X27336Y337574D01*
X27449Y337568D01*
X27562Y337566D01*
X27675Y337568D01*
X27788Y337574D01*
X27901Y337584D01*
X28014Y337598D01*
X28126Y337615D01*
X28237Y337637D01*
X28347Y337662D01*
X28457Y337692D01*
X28565Y337725D01*
X28672Y337762D01*
X28778Y337802D01*
X28882Y337847D01*
X28985Y337895D01*
X29086Y337946D01*
X29185Y338001D01*
X29282Y338059D01*
X29377Y338121D01*
X29470Y338186D01*
X29560Y338254D01*
X29648Y338325D01*
X29734Y338400D01*
X29817Y338477D01*
X29897Y338557D01*
X29974Y338640D01*
X30049Y338726D01*
X30120Y338814D01*
X30188Y338904D01*
X30253Y338997D01*
X30315Y339092D01*
X30373Y339189D01*
X30428Y339288D01*
X30479Y339389D01*
X30527Y339492D01*
X30572Y339596D01*
X30612Y339702D01*
X30649Y339809D01*
X30682Y339917D01*
X30712Y340027D01*
X30737Y340137D01*
X30759Y340248D01*
X30776Y340360D01*
X30790Y340473D01*
X30800Y340586D01*
X30806Y340699D01*
X30808Y340812D01*
X30158Y346654D02*
X30156Y346755D01*
X30150Y346855D01*
X30140Y346955D01*
X30127Y347055D01*
X30109Y347154D01*
X30088Y347253D01*
X30063Y347350D01*
X30034Y347447D01*
X30001Y347542D01*
X29965Y347636D01*
X29925Y347728D01*
X29882Y347819D01*
X29835Y347908D01*
X29785Y347995D01*
X29731Y348081D01*
X29674Y348164D01*
X29614Y348244D01*
X29551Y348323D01*
X29484Y348399D01*
X29415Y348472D01*
X29343Y348542D01*
X29269Y348610D01*
X29192Y348675D01*
X29112Y348736D01*
X29030Y348795D01*
X28946Y348850D01*
X28860Y348902D01*
X28772Y348951D01*
X28682Y348996D01*
X28590Y349038D01*
X28497Y349076D01*
X28402Y349110D01*
X28307Y349141D01*
X28210Y349168D01*
X28112Y349191D01*
X28013Y349211D01*
X27913Y349226D01*
X27813Y349238D01*
X27713Y349246D01*
X27612Y349250D01*
X27512Y349250D01*
X27411Y349246D01*
X27311Y349238D01*
X27211Y349226D01*
X27111Y349211D01*
X27012Y349191D01*
X26914Y349168D01*
X26817Y349141D01*
X26722Y349110D01*
X26627Y349076D01*
X26534Y349038D01*
X26442Y348996D01*
X26352Y348951D01*
X26264Y348902D01*
X26178Y348850D01*
X26094Y348795D01*
X26012Y348736D01*
X25932Y348675D01*
X25855Y348610D01*
X25781Y348542D01*
X25709Y348472D01*
X25640Y348399D01*
X25573Y348323D01*
X25510Y348244D01*
X25450Y348164D01*
X25393Y348081D01*
X25339Y347995D01*
X25289Y347908D01*
X25242Y347819D01*
X25199Y347728D01*
X25159Y347636D01*
X25123Y347542D01*
X25090Y347447D01*
X25061Y347350D01*
X25036Y347253D01*
X25015Y347154D01*
X24997Y347055D01*
X24984Y346955D01*
X24974Y346855D01*
X24968Y346755D01*
X24966Y346654D01*
X24968Y346553D01*
X24974Y346453D01*
X24984Y346353D01*
X24997Y346253D01*
X25015Y346154D01*
X25036Y346055D01*
X25061Y345958D01*
X25090Y345861D01*
X25123Y345766D01*
X25159Y345672D01*
X25199Y345580D01*
X25242Y345489D01*
X25289Y345400D01*
X25339Y345313D01*
X25393Y345227D01*
X25450Y345144D01*
X25510Y345064D01*
X25573Y344985D01*
X25640Y344909D01*
X25709Y344836D01*
X25781Y344766D01*
X25855Y344698D01*
X25932Y344633D01*
X26012Y344572D01*
X26094Y344513D01*
X26178Y344458D01*
X26264Y344406D01*
X26352Y344357D01*
X26442Y344312D01*
X26534Y344270D01*
X26627Y344232D01*
X26722Y344198D01*
X26817Y344167D01*
X26914Y344140D01*
X27012Y344117D01*
X27111Y344097D01*
X27211Y344082D01*
X27311Y344070D01*
X27411Y344062D01*
X27512Y344058D01*
X27612Y344058D01*
X27713Y344062D01*
X27813Y344070D01*
X27913Y344082D01*
X28013Y344097D01*
X28112Y344117D01*
X28210Y344140D01*
X28307Y344167D01*
X28402Y344198D01*
X28497Y344232D01*
X28590Y344270D01*
X28682Y344312D01*
X28772Y344357D01*
X28860Y344406D01*
X28946Y344458D01*
X29030Y344513D01*
X29112Y344572D01*
X29192Y344633D01*
X29269Y344698D01*
X29343Y344766D01*
X29415Y344836D01*
X29484Y344909D01*
X29551Y344985D01*
X29614Y345064D01*
X29674Y345144D01*
X29731Y345227D01*
X29785Y345313D01*
X29835Y345400D01*
X29882Y345489D01*
X29925Y345580D01*
X29965Y345672D01*
X30001Y345766D01*
X30034Y345861D01*
X30063Y345958D01*
X30088Y346055D01*
X30109Y346154D01*
X30127Y346253D01*
X30140Y346353D01*
X30150Y346453D01*
X30156Y346553D01*
X30158Y346654D01*
D11*
X89408Y330568D02*
X93218Y330568D01*
X93218Y331626D01*
X93216Y331690D01*
X93210Y331754D01*
X93201Y331817D01*
X93187Y331879D01*
X93170Y331941D01*
X93149Y332001D01*
X93125Y332060D01*
X93097Y332118D01*
X93065Y332173D01*
X93031Y332227D01*
X92993Y332278D01*
X92952Y332328D01*
X92908Y332374D01*
X92862Y332418D01*
X92812Y332459D01*
X92761Y332497D01*
X92707Y332531D01*
X92652Y332563D01*
X92594Y332591D01*
X92535Y332615D01*
X92475Y332636D01*
X92413Y332653D01*
X92351Y332667D01*
X92288Y332676D01*
X92224Y332682D01*
X92160Y332684D01*
X92096Y332682D01*
X92032Y332676D01*
X91969Y332667D01*
X91907Y332653D01*
X91845Y332636D01*
X91785Y332615D01*
X91726Y332591D01*
X91668Y332563D01*
X91613Y332531D01*
X91559Y332497D01*
X91508Y332459D01*
X91458Y332418D01*
X91412Y332374D01*
X91368Y332328D01*
X91327Y332278D01*
X91289Y332227D01*
X91255Y332173D01*
X91223Y332118D01*
X91195Y332060D01*
X91171Y332001D01*
X91150Y331941D01*
X91133Y331879D01*
X91119Y331817D01*
X91110Y331754D01*
X91104Y331690D01*
X91102Y331626D01*
X91101Y331626D02*
X91101Y330568D01*
X91101Y331838D02*
X89408Y332685D01*
X89408Y334205D02*
X89408Y335475D01*
X89410Y335530D01*
X89415Y335586D01*
X89424Y335640D01*
X89437Y335694D01*
X89453Y335747D01*
X89472Y335799D01*
X89495Y335850D01*
X89521Y335899D01*
X89551Y335946D01*
X89583Y335991D01*
X89618Y336033D01*
X89656Y336074D01*
X89697Y336112D01*
X89739Y336147D01*
X89784Y336179D01*
X89832Y336209D01*
X89880Y336235D01*
X89931Y336258D01*
X89983Y336277D01*
X90036Y336293D01*
X90090Y336306D01*
X90144Y336315D01*
X90200Y336320D01*
X90255Y336322D01*
X90255Y336321D02*
X90678Y336321D01*
X90678Y336322D02*
X90733Y336320D01*
X90789Y336315D01*
X90843Y336306D01*
X90897Y336293D01*
X90950Y336277D01*
X91002Y336258D01*
X91053Y336235D01*
X91102Y336209D01*
X91149Y336179D01*
X91194Y336147D01*
X91236Y336112D01*
X91277Y336074D01*
X91315Y336033D01*
X91350Y335991D01*
X91382Y335946D01*
X91412Y335899D01*
X91438Y335850D01*
X91461Y335799D01*
X91480Y335747D01*
X91496Y335694D01*
X91509Y335640D01*
X91518Y335586D01*
X91523Y335530D01*
X91525Y335475D01*
X91525Y334205D01*
X93218Y334205D01*
X93218Y336321D01*
X91101Y338709D02*
X91101Y339979D01*
X91101Y338709D02*
X91103Y338654D01*
X91108Y338598D01*
X91117Y338544D01*
X91130Y338490D01*
X91146Y338437D01*
X91165Y338385D01*
X91188Y338334D01*
X91214Y338286D01*
X91244Y338238D01*
X91276Y338193D01*
X91311Y338151D01*
X91349Y338110D01*
X91390Y338072D01*
X91432Y338037D01*
X91477Y338005D01*
X91525Y337975D01*
X91573Y337949D01*
X91624Y337926D01*
X91676Y337907D01*
X91729Y337891D01*
X91783Y337878D01*
X91837Y337869D01*
X91893Y337864D01*
X91948Y337862D01*
X92160Y337862D01*
X92160Y337863D02*
X92224Y337865D01*
X92288Y337871D01*
X92351Y337880D01*
X92413Y337894D01*
X92475Y337911D01*
X92535Y337932D01*
X92594Y337956D01*
X92652Y337984D01*
X92707Y338016D01*
X92761Y338050D01*
X92812Y338088D01*
X92862Y338129D01*
X92908Y338173D01*
X92952Y338219D01*
X92993Y338269D01*
X93031Y338320D01*
X93065Y338374D01*
X93097Y338429D01*
X93125Y338487D01*
X93149Y338546D01*
X93170Y338606D01*
X93187Y338668D01*
X93201Y338730D01*
X93210Y338793D01*
X93216Y338857D01*
X93218Y338921D01*
X93216Y338985D01*
X93210Y339049D01*
X93201Y339112D01*
X93187Y339174D01*
X93170Y339236D01*
X93149Y339296D01*
X93125Y339355D01*
X93097Y339413D01*
X93065Y339468D01*
X93031Y339522D01*
X92993Y339573D01*
X92952Y339623D01*
X92908Y339669D01*
X92862Y339713D01*
X92812Y339754D01*
X92761Y339792D01*
X92707Y339826D01*
X92652Y339858D01*
X92594Y339886D01*
X92535Y339910D01*
X92475Y339931D01*
X92413Y339948D01*
X92351Y339962D01*
X92288Y339971D01*
X92224Y339977D01*
X92160Y339979D01*
X91101Y339979D01*
X91020Y339977D01*
X90940Y339971D01*
X90860Y339962D01*
X90781Y339948D01*
X90702Y339931D01*
X90624Y339910D01*
X90547Y339886D01*
X90472Y339858D01*
X90398Y339826D01*
X90325Y339791D01*
X90255Y339752D01*
X90186Y339710D01*
X90119Y339665D01*
X90054Y339617D01*
X89992Y339565D01*
X89933Y339511D01*
X89876Y339454D01*
X89822Y339395D01*
X89770Y339333D01*
X89722Y339268D01*
X89677Y339201D01*
X89635Y339133D01*
X89596Y339062D01*
X89561Y338989D01*
X89529Y338915D01*
X89501Y338840D01*
X89477Y338763D01*
X89456Y338685D01*
X89439Y338606D01*
X89425Y338527D01*
X89416Y338447D01*
X89410Y338367D01*
X89408Y338286D01*
X17018Y280657D02*
X13208Y280657D01*
X17018Y280657D02*
X17018Y281715D01*
X17016Y281779D01*
X17010Y281843D01*
X17001Y281906D01*
X16987Y281968D01*
X16970Y282030D01*
X16949Y282090D01*
X16925Y282149D01*
X16897Y282207D01*
X16865Y282262D01*
X16831Y282316D01*
X16793Y282367D01*
X16752Y282417D01*
X16708Y282463D01*
X16662Y282507D01*
X16612Y282548D01*
X16561Y282586D01*
X16507Y282620D01*
X16452Y282652D01*
X16394Y282680D01*
X16335Y282704D01*
X16275Y282725D01*
X16213Y282742D01*
X16151Y282756D01*
X16088Y282765D01*
X16024Y282771D01*
X15960Y282773D01*
X15896Y282771D01*
X15832Y282765D01*
X15769Y282756D01*
X15707Y282742D01*
X15645Y282725D01*
X15585Y282704D01*
X15526Y282680D01*
X15468Y282652D01*
X15413Y282620D01*
X15359Y282586D01*
X15308Y282548D01*
X15258Y282507D01*
X15212Y282463D01*
X15168Y282417D01*
X15127Y282367D01*
X15089Y282316D01*
X15055Y282262D01*
X15023Y282207D01*
X14995Y282149D01*
X14971Y282090D01*
X14950Y282030D01*
X14933Y281968D01*
X14919Y281906D01*
X14910Y281843D01*
X14904Y281779D01*
X14902Y281715D01*
X14901Y281715D02*
X14901Y280657D01*
X14901Y281927D02*
X13208Y282774D01*
X15325Y284294D02*
X15325Y285564D01*
X15323Y285619D01*
X15318Y285675D01*
X15309Y285729D01*
X15296Y285783D01*
X15280Y285836D01*
X15261Y285888D01*
X15238Y285939D01*
X15212Y285988D01*
X15182Y286035D01*
X15150Y286080D01*
X15115Y286122D01*
X15077Y286163D01*
X15036Y286201D01*
X14994Y286236D01*
X14949Y286268D01*
X14902Y286298D01*
X14853Y286324D01*
X14802Y286347D01*
X14750Y286366D01*
X14697Y286382D01*
X14643Y286395D01*
X14589Y286404D01*
X14533Y286409D01*
X14478Y286411D01*
X14478Y286410D02*
X14266Y286410D01*
X14202Y286408D01*
X14138Y286402D01*
X14075Y286393D01*
X14013Y286379D01*
X13951Y286362D01*
X13891Y286341D01*
X13832Y286317D01*
X13774Y286289D01*
X13719Y286257D01*
X13665Y286223D01*
X13614Y286185D01*
X13564Y286144D01*
X13518Y286100D01*
X13474Y286054D01*
X13433Y286004D01*
X13395Y285953D01*
X13361Y285899D01*
X13329Y285844D01*
X13301Y285786D01*
X13277Y285727D01*
X13256Y285667D01*
X13239Y285605D01*
X13225Y285543D01*
X13216Y285480D01*
X13210Y285416D01*
X13208Y285352D01*
X13210Y285288D01*
X13216Y285224D01*
X13225Y285161D01*
X13239Y285099D01*
X13256Y285037D01*
X13277Y284977D01*
X13301Y284918D01*
X13329Y284860D01*
X13361Y284805D01*
X13395Y284751D01*
X13433Y284700D01*
X13474Y284650D01*
X13518Y284604D01*
X13564Y284560D01*
X13614Y284519D01*
X13665Y284481D01*
X13719Y284447D01*
X13774Y284415D01*
X13832Y284387D01*
X13891Y284363D01*
X13951Y284342D01*
X14013Y284325D01*
X14075Y284311D01*
X14138Y284302D01*
X14202Y284296D01*
X14266Y284294D01*
X15325Y284294D01*
X15406Y284296D01*
X15486Y284302D01*
X15566Y284311D01*
X15645Y284325D01*
X15724Y284342D01*
X15802Y284363D01*
X15879Y284387D01*
X15954Y284415D01*
X16028Y284447D01*
X16101Y284482D01*
X16171Y284521D01*
X16240Y284563D01*
X16307Y284608D01*
X16372Y284656D01*
X16434Y284708D01*
X16493Y284762D01*
X16550Y284819D01*
X16604Y284878D01*
X16656Y284940D01*
X16704Y285005D01*
X16749Y285072D01*
X16791Y285140D01*
X16830Y285211D01*
X16865Y285284D01*
X16897Y285358D01*
X16925Y285433D01*
X16949Y285510D01*
X16970Y285588D01*
X16987Y285667D01*
X17001Y285746D01*
X17010Y285826D01*
X17016Y285906D01*
X17018Y285987D01*
X16489Y288269D02*
X16390Y288222D01*
X16289Y288179D01*
X16187Y288140D01*
X16083Y288105D01*
X15978Y288073D01*
X15872Y288044D01*
X15766Y288020D01*
X15658Y287999D01*
X15550Y287982D01*
X15441Y287968D01*
X15332Y287959D01*
X15223Y287953D01*
X15113Y287951D01*
X16489Y288269D02*
X16539Y288289D01*
X16588Y288311D01*
X16636Y288337D01*
X16681Y288366D01*
X16724Y288399D01*
X16765Y288434D01*
X16804Y288472D01*
X16839Y288512D01*
X16872Y288555D01*
X16902Y288600D01*
X16929Y288647D01*
X16952Y288695D01*
X16972Y288745D01*
X16988Y288797D01*
X17001Y288849D01*
X17011Y288902D01*
X17016Y288956D01*
X17018Y289010D01*
X17016Y289064D01*
X17011Y289118D01*
X17001Y289171D01*
X16988Y289223D01*
X16972Y289275D01*
X16952Y289325D01*
X16929Y289373D01*
X16902Y289420D01*
X16872Y289465D01*
X16839Y289508D01*
X16804Y289548D01*
X16765Y289586D01*
X16724Y289621D01*
X16681Y289654D01*
X16636Y289683D01*
X16588Y289709D01*
X16539Y289731D01*
X16489Y289751D01*
X16489Y289750D02*
X16390Y289797D01*
X16289Y289840D01*
X16187Y289879D01*
X16083Y289914D01*
X15978Y289946D01*
X15872Y289975D01*
X15766Y289999D01*
X15658Y290020D01*
X15550Y290037D01*
X15441Y290051D01*
X15332Y290060D01*
X15223Y290066D01*
X15113Y290068D01*
X15113Y287951D02*
X15003Y287953D01*
X14894Y287959D01*
X14785Y287968D01*
X14676Y287982D01*
X14568Y287999D01*
X14460Y288020D01*
X14354Y288044D01*
X14248Y288073D01*
X14143Y288105D01*
X14040Y288140D01*
X13937Y288179D01*
X13836Y288222D01*
X13737Y288269D01*
X13687Y288289D01*
X13638Y288311D01*
X13590Y288337D01*
X13545Y288366D01*
X13502Y288399D01*
X13461Y288434D01*
X13422Y288472D01*
X13387Y288512D01*
X13354Y288555D01*
X13324Y288600D01*
X13297Y288647D01*
X13274Y288695D01*
X13254Y288745D01*
X13238Y288797D01*
X13225Y288849D01*
X13215Y288902D01*
X13210Y288956D01*
X13208Y289010D01*
X13737Y289750D02*
X13836Y289797D01*
X13937Y289840D01*
X14040Y289879D01*
X14143Y289914D01*
X14248Y289946D01*
X14354Y289975D01*
X14460Y289999D01*
X14568Y290020D01*
X14676Y290037D01*
X14785Y290051D01*
X14894Y290060D01*
X15003Y290066D01*
X15113Y290068D01*
X13737Y289751D02*
X13687Y289731D01*
X13638Y289709D01*
X13590Y289683D01*
X13545Y289654D01*
X13502Y289621D01*
X13461Y289586D01*
X13422Y289548D01*
X13387Y289508D01*
X13354Y289465D01*
X13324Y289420D01*
X13297Y289373D01*
X13274Y289325D01*
X13254Y289275D01*
X13238Y289223D01*
X13225Y289171D01*
X13215Y289118D01*
X13210Y289064D01*
X13208Y289010D01*
X14055Y288163D02*
X16171Y289856D01*
D12*
X67076Y181287D02*
X97516Y181287D01*
X97516Y130117D01*
X67076Y130117D01*
X67076Y181287D01*
X115166Y172637D02*
X118166Y175637D01*
X118166Y169637D01*
X115166Y172637D01*
X124694Y507296D02*
X94254Y507296D01*
X124694Y507296D02*
X124694Y456126D01*
X94254Y456126D01*
X94254Y507296D01*
X142344Y498646D02*
X145344Y501646D01*
X145344Y495646D01*
X142344Y498646D01*
D14*
X15963Y381372D02*
X15963Y364372D01*
X26963Y364372D02*
X26963Y381372D01*
D15*
X21463Y376372D03*
D14*
X13455Y370562D02*
X1771Y370562D01*
X13455Y370562D02*
X13455Y373807D01*
X13453Y373920D01*
X13447Y374033D01*
X13437Y374146D01*
X13423Y374259D01*
X13406Y374371D01*
X13384Y374482D01*
X13359Y374592D01*
X13329Y374702D01*
X13296Y374810D01*
X13259Y374917D01*
X13219Y375023D01*
X13174Y375127D01*
X13126Y375230D01*
X13075Y375331D01*
X13020Y375430D01*
X12962Y375527D01*
X12900Y375622D01*
X12835Y375715D01*
X12767Y375805D01*
X12696Y375893D01*
X12621Y375979D01*
X12544Y376062D01*
X12464Y376142D01*
X12381Y376219D01*
X12295Y376294D01*
X12207Y376365D01*
X12117Y376433D01*
X12024Y376498D01*
X11929Y376560D01*
X11832Y376618D01*
X11733Y376673D01*
X11632Y376724D01*
X11529Y376772D01*
X11425Y376817D01*
X11319Y376857D01*
X11212Y376894D01*
X11104Y376927D01*
X10994Y376957D01*
X10884Y376982D01*
X10773Y377004D01*
X10661Y377021D01*
X10548Y377035D01*
X10435Y377045D01*
X10322Y377051D01*
X10209Y377053D01*
X5017Y377053D01*
X4904Y377051D01*
X4791Y377045D01*
X4678Y377035D01*
X4565Y377021D01*
X4453Y377004D01*
X4342Y376982D01*
X4232Y376957D01*
X4122Y376927D01*
X4014Y376894D01*
X3907Y376857D01*
X3801Y376817D01*
X3697Y376772D01*
X3594Y376724D01*
X3493Y376673D01*
X3394Y376618D01*
X3297Y376560D01*
X3202Y376498D01*
X3109Y376433D01*
X3019Y376365D01*
X2931Y376294D01*
X2845Y376219D01*
X2762Y376142D01*
X2682Y376062D01*
X2605Y375979D01*
X2530Y375893D01*
X2459Y375805D01*
X2391Y375715D01*
X2326Y375622D01*
X2264Y375527D01*
X2206Y375430D01*
X2151Y375331D01*
X2100Y375230D01*
X2052Y375127D01*
X2007Y375023D01*
X1967Y374917D01*
X1930Y374810D01*
X1897Y374702D01*
X1867Y374592D01*
X1842Y374482D01*
X1820Y374371D01*
X1803Y374259D01*
X1789Y374146D01*
X1779Y374033D01*
X1773Y373920D01*
X1771Y373807D01*
X1771Y370562D01*
X13455Y385943D02*
X13453Y386050D01*
X13447Y386156D01*
X13437Y386262D01*
X13424Y386368D01*
X13406Y386474D01*
X13385Y386578D01*
X13360Y386682D01*
X13331Y386785D01*
X13299Y386886D01*
X13262Y386986D01*
X13222Y387085D01*
X13179Y387183D01*
X13132Y387279D01*
X13081Y387373D01*
X13027Y387465D01*
X12970Y387555D01*
X12910Y387643D01*
X12846Y387728D01*
X12779Y387811D01*
X12709Y387892D01*
X12637Y387970D01*
X12561Y388046D01*
X12483Y388118D01*
X12402Y388188D01*
X12319Y388255D01*
X12234Y388319D01*
X12146Y388379D01*
X12056Y388436D01*
X11964Y388490D01*
X11870Y388541D01*
X11774Y388588D01*
X11676Y388631D01*
X11577Y388671D01*
X11477Y388708D01*
X11376Y388740D01*
X11273Y388769D01*
X11169Y388794D01*
X11065Y388815D01*
X10959Y388833D01*
X10853Y388846D01*
X10747Y388856D01*
X10641Y388862D01*
X10534Y388864D01*
X13455Y385943D02*
X13453Y385822D01*
X13447Y385701D01*
X13437Y385581D01*
X13424Y385460D01*
X13406Y385341D01*
X13385Y385221D01*
X13360Y385103D01*
X13331Y384986D01*
X13298Y384869D01*
X13262Y384754D01*
X13221Y384640D01*
X13178Y384527D01*
X13130Y384415D01*
X13079Y384306D01*
X13024Y384198D01*
X12966Y384091D01*
X12905Y383987D01*
X12840Y383885D01*
X12772Y383785D01*
X12701Y383687D01*
X12627Y383591D01*
X12550Y383498D01*
X12469Y383408D01*
X12386Y383320D01*
X12300Y383235D01*
X12211Y383152D01*
X12120Y383073D01*
X12026Y382996D01*
X11930Y382923D01*
X11832Y382853D01*
X11731Y382786D01*
X11628Y382722D01*
X11523Y382662D01*
X11416Y382605D01*
X11308Y382551D01*
X11198Y382501D01*
X11086Y382455D01*
X10973Y382412D01*
X10858Y382373D01*
X8262Y387891D02*
X8339Y387970D01*
X8420Y388046D01*
X8503Y388119D01*
X8588Y388189D01*
X8676Y388256D01*
X8766Y388320D01*
X8858Y388380D01*
X8953Y388437D01*
X9049Y388491D01*
X9147Y388542D01*
X9247Y388589D01*
X9349Y388633D01*
X9452Y388673D01*
X9556Y388709D01*
X9662Y388741D01*
X9768Y388770D01*
X9876Y388795D01*
X9984Y388817D01*
X10094Y388834D01*
X10203Y388848D01*
X10313Y388857D01*
X10424Y388863D01*
X10534Y388865D01*
X8262Y387890D02*
X1771Y382373D01*
X1771Y388864D01*
M02*
