G04 EAGLE Gerber RS-274X export*
G75*
%MOMM*%
%FSLAX34Y34*%
%LPD*%
%INSoldermask Top*%
%IPPOS*%
%AMOC8*
5,1,8,0,0,1.08239X$1,22.5*%
G01*
%ADD10R,7.315200X8.077200*%
%ADD11R,1.371600X1.587500*%
%ADD12C,1.203200*%
%ADD13C,2.003200*%
%ADD14C,2.003200*%
%ADD15C,2.103200*%
%ADD16C,2.753200*%
%ADD17C,0.457200*%
%ADD18C,1.853200*%
%ADD19R,0.526800X1.550400*%
%ADD20R,1.550400X0.526800*%
%ADD21R,1.625600X0.457200*%
%ADD22R,1.103200X0.903200*%
%ADD23R,0.903200X1.103200*%
%ADD24R,0.603200X1.203200*%
%ADD25C,1.320800*%
%ADD26R,1.603200X4.003200*%
%ADD27R,4.003200X1.603200*%
%ADD28R,1.303200X1.103200*%
%ADD29R,1.103200X1.303200*%
%ADD30R,1.603200X2.203200*%
%ADD31R,1.203200X2.203200*%
%ADD32R,1.803200X2.603200*%
%ADD33R,2.603200X1.803200*%
%ADD34R,1.703200X1.503200*%
%ADD35C,1.159600*%


D10*
X74803Y852551D03*
X74930Y766572D03*
D11*
X278003Y59119D03*
D12*
X145796Y909066D03*
X935482Y393319D03*
X78740Y36322D03*
X1084961Y36830D03*
D13*
X800473Y232485D02*
X800473Y250485D01*
D14*
X784830Y222724D03*
X769810Y239014D03*
X754790Y222724D03*
X739770Y239014D03*
X724750Y222724D03*
X709730Y239014D03*
X694710Y222724D03*
X679690Y239014D03*
X664670Y222724D03*
X649650Y239014D03*
X634630Y222724D03*
X619610Y239014D03*
X604590Y222724D03*
X589570Y239014D03*
X574550Y222724D03*
X559530Y239014D03*
X544510Y222724D03*
X529490Y239014D03*
X514470Y222724D03*
X499450Y239014D03*
X484430Y222724D03*
X469410Y239014D03*
X454390Y222724D03*
X439370Y239014D03*
X424350Y222724D03*
X409330Y239014D03*
X394310Y222724D03*
X379290Y239014D03*
X364270Y222724D03*
X349250Y239014D03*
X334120Y210424D03*
D15*
X781290Y162264D03*
X322060Y162264D03*
D14*
X818890Y221314D03*
X838980Y221314D03*
X859070Y221314D03*
X879160Y221314D03*
D16*
X643640Y105774D02*
X643640Y80274D01*
X522480Y80274D02*
X522480Y105774D01*
D17*
X395220Y388376D02*
X395220Y405836D01*
X400220Y405836D02*
X400220Y388376D01*
X405220Y388376D02*
X405220Y405836D01*
X410220Y405836D02*
X410220Y388376D01*
X415220Y388376D02*
X415220Y405836D01*
X420220Y405836D02*
X420220Y388376D01*
X425220Y388376D02*
X425220Y405836D01*
X430220Y405836D02*
X430220Y388376D01*
X435220Y388376D02*
X435220Y405836D01*
X440220Y405836D02*
X440220Y388376D01*
X445220Y388376D02*
X445220Y405836D01*
X450220Y405836D02*
X450220Y388376D01*
X455220Y388376D02*
X455220Y405836D01*
X460220Y405836D02*
X460220Y388376D01*
X465220Y388376D02*
X465220Y405836D01*
X470220Y405836D02*
X470220Y388376D01*
X475220Y388376D02*
X475220Y405836D01*
X480220Y405836D02*
X480220Y388376D01*
X485220Y388376D02*
X485220Y405836D01*
X490220Y405836D02*
X490220Y388376D01*
X495220Y388376D02*
X495220Y405836D01*
X500220Y405836D02*
X500220Y388376D01*
X505220Y388376D02*
X505220Y405836D01*
X510220Y405836D02*
X510220Y388376D01*
X515220Y388376D02*
X515220Y405836D01*
X520220Y405836D02*
X520220Y388376D01*
X525220Y388376D02*
X525220Y405836D01*
X530220Y405836D02*
X530220Y388376D01*
X535220Y388376D02*
X535220Y405836D01*
X540220Y405836D02*
X540220Y388376D01*
X545220Y388376D02*
X545220Y405836D01*
X550220Y405836D02*
X550220Y388376D01*
X555220Y388376D02*
X555220Y405836D01*
X560220Y405836D02*
X560220Y388376D01*
X565220Y388376D02*
X565220Y405836D01*
X570220Y405836D02*
X570220Y388376D01*
X575220Y388376D02*
X575220Y405836D01*
X580220Y405836D02*
X580220Y388376D01*
X586490Y412106D02*
X603950Y412106D01*
X603950Y417106D02*
X586490Y417106D01*
X586490Y422106D02*
X603950Y422106D01*
X603950Y427106D02*
X586490Y427106D01*
X586490Y432106D02*
X603950Y432106D01*
X603950Y437106D02*
X586490Y437106D01*
X586490Y442106D02*
X603950Y442106D01*
X603950Y447106D02*
X586490Y447106D01*
X586490Y452106D02*
X603950Y452106D01*
X603950Y457106D02*
X586490Y457106D01*
X586490Y462106D02*
X603950Y462106D01*
X603950Y467106D02*
X586490Y467106D01*
X586490Y472106D02*
X603950Y472106D01*
X603950Y477106D02*
X586490Y477106D01*
X586490Y482106D02*
X603950Y482106D01*
X603950Y487106D02*
X586490Y487106D01*
X586490Y492106D02*
X603950Y492106D01*
X603950Y497106D02*
X586490Y497106D01*
X586490Y502106D02*
X603950Y502106D01*
X603950Y507106D02*
X586490Y507106D01*
X586490Y512106D02*
X603950Y512106D01*
X603950Y517106D02*
X586490Y517106D01*
X586490Y522106D02*
X603950Y522106D01*
X603950Y527106D02*
X586490Y527106D01*
X586490Y532106D02*
X603950Y532106D01*
X603950Y537106D02*
X586490Y537106D01*
X580220Y543376D02*
X580220Y560836D01*
X575220Y560836D02*
X575220Y543376D01*
X570220Y543376D02*
X570220Y560836D01*
X565220Y560836D02*
X565220Y543376D01*
X560220Y543376D02*
X560220Y560836D01*
X555220Y560836D02*
X555220Y543376D01*
X550220Y543376D02*
X550220Y560836D01*
X545220Y560836D02*
X545220Y543376D01*
X540220Y543376D02*
X540220Y560836D01*
X535220Y560836D02*
X535220Y543376D01*
X530220Y543376D02*
X530220Y560836D01*
X525220Y560836D02*
X525220Y543376D01*
X520220Y543376D02*
X520220Y560836D01*
X515220Y560836D02*
X515220Y543376D01*
X510220Y543376D02*
X510220Y560836D01*
X505220Y560836D02*
X505220Y543376D01*
X500220Y543376D02*
X500220Y560836D01*
X495220Y560836D02*
X495220Y543376D01*
X490220Y543376D02*
X490220Y560836D01*
X485220Y560836D02*
X485220Y543376D01*
X480220Y543376D02*
X480220Y560836D01*
X475220Y560836D02*
X475220Y543376D01*
X470220Y543376D02*
X470220Y560836D01*
X465220Y560836D02*
X465220Y543376D01*
X460220Y543376D02*
X460220Y560836D01*
X455220Y560836D02*
X455220Y543376D01*
X450220Y543376D02*
X450220Y560836D01*
X445220Y560836D02*
X445220Y543376D01*
X440220Y543376D02*
X440220Y560836D01*
X435220Y560836D02*
X435220Y543376D01*
X430220Y543376D02*
X430220Y560836D01*
X425220Y560836D02*
X425220Y543376D01*
X420220Y543376D02*
X420220Y560836D01*
X415220Y560836D02*
X415220Y543376D01*
X410220Y543376D02*
X410220Y560836D01*
X405220Y560836D02*
X405220Y543376D01*
X400220Y543376D02*
X400220Y560836D01*
X395220Y560836D02*
X395220Y543376D01*
X388950Y537106D02*
X371490Y537106D01*
X371490Y532106D02*
X388950Y532106D01*
X388950Y527106D02*
X371490Y527106D01*
X371490Y522106D02*
X388950Y522106D01*
X388950Y517106D02*
X371490Y517106D01*
X371490Y512106D02*
X388950Y512106D01*
X388950Y507106D02*
X371490Y507106D01*
X371490Y502106D02*
X388950Y502106D01*
X388950Y497106D02*
X371490Y497106D01*
X371490Y492106D02*
X388950Y492106D01*
X388950Y487106D02*
X371490Y487106D01*
X371490Y482106D02*
X388950Y482106D01*
X388950Y477106D02*
X371490Y477106D01*
X371490Y472106D02*
X388950Y472106D01*
X388950Y467106D02*
X371490Y467106D01*
X371490Y462106D02*
X388950Y462106D01*
X388950Y457106D02*
X371490Y457106D01*
X371490Y452106D02*
X388950Y452106D01*
X388950Y447106D02*
X371490Y447106D01*
X371490Y442106D02*
X388950Y442106D01*
X388950Y437106D02*
X371490Y437106D01*
X371490Y432106D02*
X388950Y432106D01*
X388950Y427106D02*
X371490Y427106D01*
X371490Y422106D02*
X388950Y422106D01*
X388950Y417106D02*
X371490Y417106D01*
X371490Y412106D02*
X388950Y412106D01*
D18*
X982030Y49022D03*
X982030Y29022D03*
X1002030Y49022D03*
X1002030Y29022D03*
X1022030Y49022D03*
X1022030Y29022D03*
D19*
X227020Y605680D03*
X232020Y605680D03*
X237020Y605680D03*
X242020Y605680D03*
X247020Y605680D03*
X252020Y605680D03*
X257020Y605680D03*
X262020Y605680D03*
X267020Y605680D03*
X272020Y605680D03*
X277020Y605680D03*
X282020Y605680D03*
X287020Y605680D03*
X292020Y605680D03*
X297020Y605680D03*
X302020Y605680D03*
X307020Y605680D03*
X312020Y605680D03*
X317020Y605680D03*
X322020Y605680D03*
X327020Y605680D03*
X332020Y605680D03*
X337020Y605680D03*
X342020Y605680D03*
X347020Y605680D03*
D20*
X364346Y623006D03*
X364346Y628006D03*
X364346Y633006D03*
X364346Y638006D03*
X364346Y643006D03*
X364346Y648006D03*
X364346Y653006D03*
X364346Y658006D03*
X364346Y663006D03*
X364346Y668006D03*
X364346Y673006D03*
X364346Y678006D03*
X364346Y683006D03*
X364346Y688006D03*
X364346Y693006D03*
X364346Y698006D03*
X364346Y703006D03*
X364346Y708006D03*
X364346Y713006D03*
X364346Y718006D03*
X364346Y723006D03*
X364346Y728006D03*
X364346Y733006D03*
X364346Y738006D03*
X364346Y743006D03*
D19*
X347020Y760332D03*
X342020Y760332D03*
X337020Y760332D03*
X332020Y760332D03*
X327020Y760332D03*
X322020Y760332D03*
X317020Y760332D03*
X312020Y760332D03*
X307020Y760332D03*
X302020Y760332D03*
X297020Y760332D03*
X292020Y760332D03*
X287020Y760332D03*
X282020Y760332D03*
X277020Y760332D03*
X272020Y760332D03*
X267020Y760332D03*
X262020Y760332D03*
X257020Y760332D03*
X252020Y760332D03*
X247020Y760332D03*
X242020Y760332D03*
X237020Y760332D03*
X232020Y760332D03*
X227020Y760332D03*
D20*
X209694Y743006D03*
X209694Y738006D03*
X209694Y733006D03*
X209694Y728006D03*
X209694Y723006D03*
X209694Y718006D03*
X209694Y713006D03*
X209694Y708006D03*
X209694Y703006D03*
X209694Y698006D03*
X209694Y693006D03*
X209694Y688006D03*
X209694Y683006D03*
X209694Y678006D03*
X209694Y673006D03*
X209694Y668006D03*
X209694Y663006D03*
X209694Y658006D03*
X209694Y653006D03*
X209694Y648006D03*
X209694Y643006D03*
X209694Y638006D03*
X209694Y633006D03*
X209694Y628006D03*
X209694Y623006D03*
D21*
X648970Y568706D03*
X648970Y563706D03*
X648970Y558706D03*
X648970Y553706D03*
X648970Y548706D03*
X648970Y543706D03*
X648970Y538706D03*
X648970Y533706D03*
X648970Y528706D03*
X648970Y523706D03*
X648970Y518706D03*
X648970Y513706D03*
X648970Y508706D03*
X648970Y503706D03*
X648970Y498706D03*
X648970Y493706D03*
X648970Y488706D03*
X648970Y483706D03*
X648970Y478706D03*
X648970Y473706D03*
X648970Y468706D03*
X648970Y463706D03*
X648970Y458706D03*
X648970Y453706D03*
X826970Y453706D03*
X826970Y458706D03*
X826970Y463706D03*
X826970Y468706D03*
X826970Y473706D03*
X826970Y478706D03*
X826970Y483706D03*
X826970Y488706D03*
X826970Y493706D03*
X826970Y498706D03*
X826970Y503706D03*
X826970Y508706D03*
X826970Y513706D03*
X826970Y518706D03*
X826970Y523706D03*
X826970Y528706D03*
X826970Y533706D03*
X826970Y538706D03*
X826970Y543706D03*
X826970Y548706D03*
X826970Y553706D03*
X826970Y558706D03*
X826970Y563706D03*
X826970Y568706D03*
X786970Y453706D03*
X786970Y458706D03*
X786970Y463706D03*
X786970Y468706D03*
X786970Y473706D03*
X786970Y478706D03*
X786970Y483706D03*
X786970Y488706D03*
X786970Y493706D03*
X786970Y498706D03*
X786970Y503706D03*
X786970Y508706D03*
X786970Y513706D03*
X786970Y518706D03*
X786970Y523706D03*
X786970Y528706D03*
X786970Y533706D03*
X786970Y538706D03*
X786970Y543706D03*
X786970Y548706D03*
X786970Y553706D03*
X786970Y558706D03*
X786970Y563706D03*
X786970Y568706D03*
D22*
X484886Y572747D03*
X484886Y585747D03*
X576834Y359768D03*
X576834Y372768D03*
X562102Y359768D03*
X562102Y372768D03*
X437134Y359514D03*
X437134Y372514D03*
X437134Y329034D03*
X437134Y342034D03*
D23*
X407520Y344932D03*
X420520Y344932D03*
D24*
X249824Y807880D03*
X235824Y807880D03*
X235824Y827880D03*
X242824Y827880D03*
X249824Y827880D03*
X276494Y807626D03*
X262494Y807626D03*
X262494Y827626D03*
X269494Y827626D03*
X276494Y827626D03*
X303926Y807626D03*
X289926Y807626D03*
X289926Y827626D03*
X296926Y827626D03*
X303926Y827626D03*
X330342Y807880D03*
X316342Y807880D03*
X316342Y827880D03*
X323342Y827880D03*
X330342Y827880D03*
D25*
X427736Y724154D02*
X438912Y724154D01*
X438912Y673354D02*
X427736Y673354D01*
D22*
X397256Y730354D03*
X397256Y743354D03*
X397256Y682648D03*
X397256Y669648D03*
X397256Y699874D03*
X397256Y712874D03*
X200152Y854052D03*
X200152Y867052D03*
X212090Y854052D03*
X212090Y867052D03*
X224028Y854052D03*
X224028Y867052D03*
X235966Y854052D03*
X235966Y867052D03*
X247904Y854052D03*
X247904Y867052D03*
X259842Y854052D03*
X259842Y867052D03*
X272542Y854052D03*
X272542Y867052D03*
X284734Y854052D03*
X284734Y867052D03*
X296672Y854052D03*
X296672Y867052D03*
X308610Y854052D03*
X308610Y867052D03*
X320294Y854052D03*
X320294Y867052D03*
X343916Y854052D03*
X343916Y867052D03*
X379730Y854052D03*
X379730Y867052D03*
X355854Y854052D03*
X355854Y867052D03*
X331978Y854052D03*
X331978Y867052D03*
X367792Y854052D03*
X367792Y867052D03*
X391668Y854052D03*
X391668Y867052D03*
D23*
X378310Y771271D03*
X391310Y771271D03*
D22*
X181864Y730608D03*
X181864Y743608D03*
X181864Y699366D03*
X181864Y712366D03*
X203200Y610766D03*
X203200Y597766D03*
X279146Y577746D03*
X279146Y564746D03*
D26*
X131191Y457934D03*
X131191Y517934D03*
D27*
X484660Y848233D03*
X424660Y848233D03*
D26*
X171323Y109954D03*
X171323Y169954D03*
X162052Y227048D03*
X162052Y287048D03*
X193802Y332712D03*
X193802Y392712D03*
X65786Y256512D03*
X65786Y316512D03*
D28*
X258986Y150368D03*
X278986Y137868D03*
X278986Y162868D03*
X258986Y110998D03*
X278986Y98498D03*
X278986Y123498D03*
D29*
X45974Y379382D03*
X58474Y399382D03*
X33474Y399382D03*
D28*
X349156Y804037D03*
X369156Y791537D03*
X369156Y816537D03*
D24*
X819008Y325468D03*
X833008Y325468D03*
X833008Y305468D03*
X826008Y305468D03*
X819008Y305468D03*
D30*
X1002790Y216088D03*
X1002790Y176088D03*
X970790Y176088D03*
X970790Y216088D03*
D31*
X986790Y216088D03*
X986790Y176088D03*
D30*
X1071116Y216088D03*
X1071116Y176088D03*
X1039116Y176088D03*
X1039116Y216088D03*
D31*
X1055116Y216088D03*
X1055116Y176088D03*
D32*
X141712Y379730D03*
X75712Y379730D03*
D33*
G36*
X148540Y358808D02*
X130134Y340402D01*
X117384Y353152D01*
X135790Y371558D01*
X148540Y358808D01*
G37*
G36*
X68884Y400652D02*
X87290Y419058D01*
X100040Y406308D01*
X81634Y387902D01*
X68884Y400652D01*
G37*
D34*
X939038Y190348D03*
X939038Y171348D03*
D22*
X938530Y233576D03*
X938530Y220576D03*
X1023366Y261008D03*
X1023366Y248008D03*
X1039114Y261008D03*
X1039114Y248008D03*
X1054862Y260500D03*
X1054862Y247500D03*
X849884Y280312D03*
X849884Y267312D03*
X624078Y420266D03*
X624078Y407266D03*
X378714Y400708D03*
X378714Y387708D03*
D23*
X594972Y378714D03*
X607972Y378714D03*
X214861Y581152D03*
X227861Y581152D03*
X360657Y760222D03*
X373657Y760222D03*
X357228Y591947D03*
X370228Y591947D03*
D22*
X294132Y52936D03*
X294132Y65936D03*
X1009396Y278742D03*
X1009396Y291742D03*
X1054862Y278996D03*
X1054862Y291996D03*
X1039114Y278996D03*
X1039114Y291996D03*
X1023366Y278742D03*
X1023366Y291742D03*
X1009396Y247500D03*
X1009396Y260500D03*
D23*
X347830Y409702D03*
X360830Y409702D03*
D22*
X187960Y867052D03*
X187960Y854052D03*
X344424Y518437D03*
X344424Y505437D03*
X355219Y505356D03*
X355219Y492356D03*
D35*
X1111758Y34544D03*
X18288Y34290D03*
X18415Y930783D03*
X371348Y930783D03*
X429387Y33528D03*
X727583Y34544D03*
M02*
