G04 EAGLE Gerber RS-274X export*
G75*
%MOMM*%
%FSLAX34Y34*%
%LPD*%
%INSolderpaste Bottom*%
%IPPOS*%
%AMOC8*
5,1,8,0,0,1.08239X$1,22.5*%
G01*
%ADD10R,2.200000X3.000000*%
%ADD11R,0.900000X0.700000*%
%ADD12R,0.400000X1.000000*%
%ADD13R,0.900000X1.100000*%
%ADD14R,1.100000X0.900000*%
%ADD15R,0.700000X0.900000*%
%ADD16R,1.100000X1.000000*%
%ADD17R,1.000000X1.100000*%
%ADD18R,1.524000X0.635000*%
%ADD19R,0.600000X0.800000*%


D10*
X1053030Y25022D03*
X951030Y25022D03*
D11*
X342265Y663425D03*
X342265Y676425D03*
D12*
X235824Y807880D03*
X249824Y807880D03*
X249824Y827880D03*
X242824Y827880D03*
X235824Y827880D03*
X262494Y807626D03*
X276494Y807626D03*
X276494Y827626D03*
X269494Y827626D03*
X262494Y827626D03*
X289926Y807626D03*
X303926Y807626D03*
X303926Y827626D03*
X296926Y827626D03*
X289926Y827626D03*
X316342Y807880D03*
X330342Y807880D03*
X330342Y827880D03*
X323342Y827880D03*
X316342Y827880D03*
D13*
X410464Y775241D03*
X397964Y795241D03*
X422964Y795241D03*
D14*
X78707Y305435D03*
X58707Y292935D03*
X58707Y317935D03*
D13*
X41275Y282161D03*
X53775Y262161D03*
X28775Y262161D03*
D12*
X58308Y374744D03*
X44308Y374744D03*
X44308Y354744D03*
X51308Y354744D03*
X58308Y354744D03*
X833008Y325468D03*
X819008Y325468D03*
X819008Y305468D03*
X826008Y305468D03*
X833008Y305468D03*
D15*
X342496Y468630D03*
X355496Y468630D03*
X342242Y481076D03*
X355242Y481076D03*
D11*
X839978Y527662D03*
X839978Y540662D03*
D15*
X596242Y574040D03*
X609242Y574040D03*
X369166Y549402D03*
X382166Y549402D03*
D16*
X91685Y536448D03*
X74685Y536448D03*
X53966Y203073D03*
X36966Y203073D03*
D15*
X165123Y437261D03*
X152123Y437261D03*
X128166Y101727D03*
X115166Y101727D03*
D17*
X31242Y352797D03*
X31242Y335797D03*
D11*
X307340Y733321D03*
X307340Y720321D03*
X343916Y758975D03*
X343916Y745975D03*
D15*
X349481Y718185D03*
X362481Y718185D03*
X359814Y622427D03*
X346814Y622427D03*
X209019Y774192D03*
X222019Y774192D03*
D11*
X321183Y727733D03*
X321183Y714733D03*
D15*
X453794Y127254D03*
X440794Y127254D03*
D11*
X41275Y311554D03*
X41275Y298554D03*
X67691Y277645D03*
X67691Y264645D03*
X272542Y867052D03*
X272542Y854052D03*
X33655Y366245D03*
X33655Y379245D03*
D15*
X54252Y330708D03*
X41252Y330708D03*
D11*
X83947Y335557D03*
X83947Y322557D03*
X15240Y311808D03*
X15240Y298808D03*
D18*
X106436Y172637D03*
X106436Y160927D03*
X106436Y149217D03*
X106436Y137497D03*
X58156Y137497D03*
X58156Y149217D03*
X58156Y160927D03*
X58156Y172637D03*
X133614Y498646D03*
X133614Y486936D03*
X133614Y475226D03*
X133614Y463506D03*
X85334Y463506D03*
X85334Y475226D03*
X85334Y486936D03*
X85334Y498646D03*
D19*
X21463Y385372D03*
X21463Y360372D03*
M02*
