G04 EAGLE Gerber RS-274X export*
G75*
%MOMM*%
%FSLAX34Y34*%
%LPD*%
%INSoldermask Bottom*%
%IPPOS*%
%AMOC8*
5,1,8,0,0,1.08239X$1,22.5*%
G01*
%ADD10C,1.203200*%
%ADD11C,2.003200*%
%ADD12C,2.003200*%
%ADD13C,2.103200*%
%ADD14C,2.753200*%
%ADD15C,1.853200*%
%ADD16R,2.403200X3.203200*%
%ADD17C,1.320800*%
%ADD18R,1.103200X0.903200*%
%ADD19R,0.603200X1.203200*%
%ADD20R,1.103200X1.303200*%
%ADD21R,1.303200X1.103200*%
%ADD22R,0.903200X1.103200*%
%ADD23R,1.303200X1.203200*%
%ADD24R,1.203200X1.303200*%
%ADD25R,1.727200X0.838200*%
%ADD26R,0.803200X1.003200*%
%ADD27C,1.159600*%


D10*
X145796Y909066D03*
X935482Y393319D03*
X78740Y36322D03*
X1084961Y36830D03*
D11*
X800473Y232485D02*
X800473Y250485D01*
D12*
X784830Y222724D03*
X769810Y239014D03*
X754790Y222724D03*
X739770Y239014D03*
X724750Y222724D03*
X709730Y239014D03*
X694710Y222724D03*
X679690Y239014D03*
X664670Y222724D03*
X649650Y239014D03*
X634630Y222724D03*
X619610Y239014D03*
X604590Y222724D03*
X589570Y239014D03*
X574550Y222724D03*
X559530Y239014D03*
X544510Y222724D03*
X529490Y239014D03*
X514470Y222724D03*
X499450Y239014D03*
X484430Y222724D03*
X469410Y239014D03*
X454390Y222724D03*
X439370Y239014D03*
X424350Y222724D03*
X409330Y239014D03*
X394310Y222724D03*
X379290Y239014D03*
X364270Y222724D03*
X349250Y239014D03*
X334120Y210424D03*
D13*
X781290Y162264D03*
X322060Y162264D03*
D12*
X818890Y221314D03*
X838980Y221314D03*
X859070Y221314D03*
X879160Y221314D03*
D14*
X643640Y105774D02*
X643640Y80274D01*
X522480Y80274D02*
X522480Y105774D01*
D15*
X982030Y49022D03*
X982030Y29022D03*
X1002030Y49022D03*
X1002030Y29022D03*
X1022030Y49022D03*
X1022030Y29022D03*
D16*
X1053030Y25022D03*
X951030Y25022D03*
D17*
X438912Y724154D02*
X427736Y724154D01*
X427736Y673354D02*
X438912Y673354D01*
D18*
X342265Y663425D03*
X342265Y676425D03*
D19*
X235824Y807880D03*
X249824Y807880D03*
X249824Y827880D03*
X242824Y827880D03*
X235824Y827880D03*
X262494Y807626D03*
X276494Y807626D03*
X276494Y827626D03*
X269494Y827626D03*
X262494Y827626D03*
X289926Y807626D03*
X303926Y807626D03*
X303926Y827626D03*
X296926Y827626D03*
X289926Y827626D03*
X316342Y807880D03*
X330342Y807880D03*
X330342Y827880D03*
X323342Y827880D03*
X316342Y827880D03*
D20*
X410464Y775241D03*
X397964Y795241D03*
X422964Y795241D03*
D21*
X78707Y305435D03*
X58707Y292935D03*
X58707Y317935D03*
D20*
X41275Y282161D03*
X53775Y262161D03*
X28775Y262161D03*
D19*
X58308Y374744D03*
X44308Y374744D03*
X44308Y354744D03*
X51308Y354744D03*
X58308Y354744D03*
X833008Y325468D03*
X819008Y325468D03*
X819008Y305468D03*
X826008Y305468D03*
X833008Y305468D03*
D22*
X342496Y468630D03*
X355496Y468630D03*
X342242Y481076D03*
X355242Y481076D03*
D18*
X839978Y527662D03*
X839978Y540662D03*
D22*
X596242Y574040D03*
X609242Y574040D03*
X369166Y549402D03*
X382166Y549402D03*
D23*
X91685Y536448D03*
X74685Y536448D03*
X53966Y203073D03*
X36966Y203073D03*
D22*
X165123Y437261D03*
X152123Y437261D03*
X128166Y101727D03*
X115166Y101727D03*
D24*
X31242Y352797D03*
X31242Y335797D03*
D18*
X307340Y733321D03*
X307340Y720321D03*
X343916Y758975D03*
X343916Y745975D03*
D22*
X349481Y718185D03*
X362481Y718185D03*
X359814Y622427D03*
X346814Y622427D03*
X209019Y774192D03*
X222019Y774192D03*
D18*
X321183Y727733D03*
X321183Y714733D03*
D22*
X453794Y127254D03*
X440794Y127254D03*
D18*
X41275Y311554D03*
X41275Y298554D03*
X67691Y277645D03*
X67691Y264645D03*
X272542Y867052D03*
X272542Y854052D03*
X33655Y366245D03*
X33655Y379245D03*
D22*
X54252Y330708D03*
X41252Y330708D03*
D18*
X83947Y335557D03*
X83947Y322557D03*
X15240Y311808D03*
X15240Y298808D03*
D25*
X106436Y172637D03*
X106436Y160927D03*
X106436Y149217D03*
X106436Y137497D03*
X58156Y137497D03*
X58156Y149217D03*
X58156Y160927D03*
X58156Y172637D03*
X133614Y498646D03*
X133614Y486936D03*
X133614Y475226D03*
X133614Y463506D03*
X85334Y463506D03*
X85334Y475226D03*
X85334Y486936D03*
X85334Y498646D03*
D26*
X21463Y385372D03*
X21463Y360372D03*
D27*
X1111758Y34544D03*
X18288Y34290D03*
X18415Y930783D03*
X371348Y930783D03*
X429387Y33528D03*
X727583Y34544D03*
M02*
